<?xml version="1.0" encoding="UTF-8"?>
<svg id="Layer_1" data-name="Layer 1" xmlns="http://www.w3.org/2000/svg" viewBox="0 0 50.79 40.84">
  <defs>
    <style>
      .cls-1 {
        fill: #fff;
      }

      .cls-2 {
        fill: #c8161d;
      }

      .cls-3 {
        fill: none;
        stroke: #231f20;
        stroke-miterlimit: 10;
      }

      .cls-4 {
        fill: #00509d;
      }
    </style>
  </defs>
  <g>
    <path class="cls-4" d="M18.8,38.6c-.76-2.22-1.2-4.61-1.69-6.94-.51-2.4-.99-4.81-1.38-7.25-.05-.32-.16-.56-.3-.73,0-1.28,0-2.56,0-3.84.03-.34.07-.68.11-1.01.04-.35,0-.65-.11-.92.55-2.31.14-4.78.94-7.01.23-.63.1-1.24-.19-1.66.2-.64.36-1.3.44-2,.03-.24.02-.49-.02-.73.03-.03.06-.05.09-.08.13-.09.24-.22.32-.38.1-.14.17-.31.2-.5.05-.19.05-.39.02-.58,0-.05,0-.1-.01-.16.08-.04.15-.09.21-.17.03-.05.06-.1.09-.15.05-.11.08-.24.08-.37v-.13c0-.1-.01-.19-.05-.28-.02-.09-.06-.17-.12-.24-.05-.07-.11-.12-.18-.15-.07-.05-.14-.07-.22-.06-.05,0-.1.02-.15.03-.1.03-.18.1-.25.19-.03.05-.06.1-.09.15-.02.05-.04.1-.05.15-.02,0-.05-.02-.07-.03-.1-.02-.2-.03-.3-.05-.2,0-.39.07-.57.2-.1.09-.2.17-.3.26-.09.07-.17.16-.24.26-.53.01-1.04.08-1.56.22-1.22-.41-2.46-.51-3.68-.34-.03-.02-.06-.03-.1-.04-.68-.19-1.38-.36-2.08-.35-.71.01-1.36.25-2.01.63-.57.33-1.21.75-1.67,1.34-1.27.67-2.33,1.69-2.53,3.26-.48.74-.97,1.54-.76,2.53.03.15.09.29.16.43-.31,1.42-.41,2.96.16,4.06-.04,2.43.25,4.89.57,7.24.14,1.06.29,2.15.47,3.24.13,2.38.24,4.77.47,7.13.11,1.09.28,2.17.59,3.15.23,1.11.62,2.12,1.4,2.68.41.29.87.39,1.33.42.12.08.27.14.43.17,3.33.48,6.68.57,10.02.28.2.06.4.13.59.21.19.08.36.09.51.07.78.51,1.98-.73,1.5-2.12Z"/>
    <path class="cls-4" d="M14.45,3.4c-.61,0-1.62.19-1.91.82-.27.59.23.96.81.96s1.62-.19,1.91-.82c.27-.59-.23-.96-.81-.96Z"/>
    <path class="cls-4" d="M5.15,4.82c-.57,0-1.02.26-1.28.59-.38.12-.73.32-.88.63-.28.58.24.84.78.84.18,0,.41-.02.65-.07.13.03.27.05.44.05,1.62,0,2.25-2.03.28-2.03Z"/>
  </g>
  <path class="cls-1" d="M31.53,37c-.02-.09-.13-.14-.23-.17,0-.02.02-.03.02-.05v-2.67c0-.08-.13-.12-.24-.14-.02-.16-.04-.32-.1-.48-2.91-8.61-2.75-17.42-1.7-26.32.28-.77.46-1.57.51-2.38.23-.8.48-1.59.76-2.37.02-.05.01-.11,0-.17.09-.05.17-.1.24-.17.12-.14.27-.34.2-.53s-.24-.31-.44-.36c-.59-.17-1.2-.26-1.81-.29-.29-.01-.59.04-.85.16-.09.04-.17.1-.25.16-.36-.07-.75-.08-1.14.02l-5.63,1.34c-1.1.26-2.2.45-3.06,1.25-.91.85-.94,2.03-.93,3.18-.01.23,0,.47.02.71-.02.03-.04.05-.06.08-.41.58-.42,1.38-.18,2.05-.74,1.08-1.16,2.37-1.18,3.71,0,.22,0,.45,0,.67,0,.02,0,.07,0,.12,0,.05-.02.1-.02.12-.1.46-.23.91-.3,1.38-.18,1.16-.21,2.29-.18,3.46.01.53.21,1.05.52,1.48-.06.85-.06,1.7.05,2.55.07.53.2,1.02.37,1.49.03.79.22,1.54.52,2.25.51,2.28.93,4.58,1.28,6.89-.09.38-.1.78.03,1.15.22.65.45,1.3.7,1.94.12.31.23.63.38.93.03.05.06.08.09.13-.02.01-.04.02-.06.04-.14.1-.24.22-.32.37-.03.09-.06.18-.08.27,0,.02,0,.05-.01.08s0,.05,0,.08c0,.08,0,.16.02.24,0,.01,0,.03,0,.04,0,.05.02.1.04.15.04.11.09.22.16.32.07.09.16.16.26.2.11.07.23.1.36.11.14.02.29.01.43-.02.15-.02.29-.06.43-.13.05-.03.1-.06.15-.09.16.27.65.29.92.28,1.88-.06,3.76-.2,5.64-.37.05,0,.1.01.15.02.21,0,.4-.04.6-.09.12-.01.24-.02.35-.03.05,0,.1.02.15.01.22-.03.44-.06.66-.09,0,0,0,0,0,0,.21-.02.43-.04.64-.06.02,0,.03,0,.05,0,0,.02,0,.04,0,.06-.01.14.33.2.4.21.25.03.56-.01.8-.08.25-.07.53-.16.74-.33l.15-.13c.07-.07.1-.15.09-.25.05-.63,0-1.27-.12-1.89Z"/>
  <path class="cls-1" d="M20.82,37.52c.23-.26.23-.5-.32-.5-.64,0-1.53.12-2.05.55-.24.19-.36.4-.25.52-.27.59.23.98.82.98s1.61-.18,1.9-.83c.14-.31.07-.56-.11-.73Z"/>
  <path class="cls-2" d="M50.02,6.98c-.19-.5-.38-.99-.57-1.49-.06-.25-.14-.49-.25-.72-.04-.08-.08-.16-.12-.23-.05-.13-.1-.25-.14-.38-.08-.2-.24-.32-.41-.35-.56-.89-1.29-1.59-2.14-2.01-.11-.06-.23-.04-.34.02,0,0,0,0-.01,0-.35-.24-.7-.46-1.07-.64-.1-.22-.28-.36-.48-.38-1.7-.14-3.41-.25-5.11-.31-.25,0-.41.17-.48.4-1.42-.12-2.84-.13-4.25-.13-.11,0-.19.04-.27.09-.2,0-.4.01-.59.06-.19.02-.39.03-.58.06-.28.04-.58.07-.87.14-.07-.1-.15-.17-.25-.21-.3-.11-.59.13-.68.51-.08.35-.17.71-.26,1.06,0,.01-.02.03-.02.04-.26.7-.46,1.45-.58,2.21-.03.06-.05.12-.07.2-.04.17-.07.35-.11.52-.14.52-.29,1.03-.44,1.54-.05.16-.03.33.03.48-.09.45-.19.9-.28,1.35-.26,1.26-.57,2.52-.76,3.8-.18,1.22-.07,2.39.07,3.6-.02.35-.03.69-.04,1.03-.05,1.55-.1,3.18.28,4.66-.07.14-.1.33-.07.54.3,1.98.68,3.92,1.13,5.84.41,2.07.84,4.13,1.26,6.19.17.85.35,1.71.52,2.56,0,0-.01.02-.02.02-.02.03-.07.11-.09.16,0,0,0,.01,0,.02,0,0,0,0,0,0-.02.06-.04.12-.06.18,0,0,0,.01,0,.02,0,0,0,.01,0,.02-.01.07-.02.14-.02.21,0,.01,0,.03,0,.04,0,.03,0,.07.01.1,0,.03,0,.07.01.1,0,0,0,0,0,0,0,0,0,.01,0,.02.02.09.05.18.1.25.02.03.04.06.06.09,0,0,0,0,0,0-.05.11-.08.24-.08.37v.13c0,.1.01.19.05.28.02.09.06.17.11.23.05.07.11.12.18.15.07.05.14.07.21.06.05,0,.1-.02.15-.03.09-.03.17-.1.24-.19,0,0,0-.01.01-.02,3.1-.56,6.21-.98,9.33-1.28.09.07.19.12.3.14.93.16,1.9.27,2.8-.14.15.15.36.2.57.03.61-.48,1.08-1.16,1.42-1.94.16-.17.31-.35.43-.57.15-.26.27-.54.36-.85.18-.57.2-1.18.13-1.78-.01-.1-.06-.2-.12-.29,0-.08,0-.16,0-.25,0-.04,0-.08-.01-.13.08-.13.13-.28.12-.45-.09-1.44-.29-2.85-.62-4.23-.05-.47-.09-.93-.13-1.4-.04-.98-.08-1.96-.1-2.94l.64-3.43c.23-1.22.44-2.46.73-3.66.28-1.16.66-2.27.87-3.46.12-.7.19-1.41.23-2.13.11-.08.19-.22.23-.43.05-.31.07-.61.07-.9.33-.65.13-1.49-.14-2.2ZM39.83,20.47c-.07.16-.14.33-.22.49,0-.01,0-.03-.02-.04.08-.19.15-.37.23-.56,0,0,0-.02.01-.03,0,.04,0,.09,0,.13Z"/>
  <path class="cls-3" d="M18,40.33c.21-4.38-1.45-8.55-2.22-12.85-.98-5.49-.5-11.23-.02-16.83.22-2.6.47-5.28,1.47-7.53"/>
  <path class="cls-3" d="M31.48.39c-2.96,8.39-3.56,18.18-1.68,27.09.5,2.35,1.16,4.64,1.59,7.02.31,1.72.5,3.49.55,5.26"/>
  <path class="cls-3" d="M6.12,4.02c-2.04.51-4.05,2-4.97,4.45-.85,2.24-.68,4.88-.49,7.37.43,5.72.86,11.44,1.29,17.16.18,2.44.54,5.26,2.16,6.47.72.54,1.57.65,2.39.72,2.13.18,4.27.15,6.41.11,4.34-.07,8.68-.14,13.01-.21,2.09-.03,4.19-.07,6.28-.36,3.27-.46,6.52-1.57,9.81-1.39,1.47.08,3.05.4,4.34-.55,1.55-1.14,2.12-3.75,2.05-6.09s-.62-4.61-.69-6.95c-.13-4.45,1.48-8.63,2.27-12.96.39-2.13.56-4.46-.17-6.43-.84-2.29-2.73-3.6-4.6-4.21-2.27-.74-4.65-.67-6.99-.6-2.5.08-4.99.16-7.49.23-3.07.1-6.17.2-9.16,1.1-2.75.83-5.24,1.78-8.07,1.98-2.44.17-4.94-.44-7.37.17Z"/>
</svg>