<?xml version="1.0" encoding="UTF-8"?>
<svg id="Livello_2" data-name="Livello 2" xmlns="http://www.w3.org/2000/svg" viewBox="0 0 197.112194385554176 657.936119969916945">
  <defs>
    <style>
      .cls-1 {
        fill: #f1f2f2;
      }
    </style>
  </defs>
  <path class="cls-1" d="M115.708975498971085,88.214129648366907c-10.41287577293042-12.46787062349631-17.397065496195864-28.333752213260595-16.897029087083865-44.790451402717736,.458036299812193-15.074433514258089,7.635674150639716-30.088635811936001,20.251295406166719-38.659867403067437l-3.029564823148576-3.926443665835905c-14.963452338567549,17.846154782957456-36.767249751105737,29.218863749684715-60.027093393718133,30.960998859455685l.664599030524187,4.910697583882211c13.695632808944538-2.821161649842907,27.391265617891804-5.642323299676718,41.086898426835432-8.463484949519625l-2.823275743393424-3.672495454065938c-15.579684066142363,36.492409699290874-31.412368573679487,73.572432361974279-37.681813073776539,113.01340490329585-5.494154124255147,34.563633500415563-2.434690645719456,69.654886157001783,9.999325293697439,102.437827325014041,11.756522515990582,30.99669389680821,31.042502490701736,59.226144395829579,56.266963688815849,80.817337222149945,12.319787753544915,10.545276304495019,28.116913716816271,23.024433802142994,45.418186630467062,20.770026624059028,16.630233592097284-2.166968764109697,26.680530424813696-18.116286863958521,27.984258263910306-33.755779000988696,1.507366213589194-18.082333856874357-6.143737899021289-37.167752884757647-15.466352266546892-52.309057187394501-9.211135657602426-14.960246392953195-22.125148444597471-29.202816511409765-38.388772511701063-36.516874716221537-16.437020350236708-7.392037780711689-35.303149107580793-6.593235153016394-51.998414348530787-.405810092773208-16.669284180102295,6.177796230472268-30.948211242258367,17.329454813956545-43.348106466760328,29.857768213276358-12.884595855422049,13.018033779941106-24.670667018179302,27.587105961459201-33.313654053499704,43.79112038648509C5.696075905546422,308.603355574477064,.846064389123057,326.452890019410916,.112203881955793,344.94816552685279c-1.496985102367944,37.728085417360489,12.185792570869125,74.67098543350221,29.047059555406122,107.810943724207391,32.628343906987539,64.129341950630987,81.575847670790608,118.024277310083562,116.50904736240409,180.768863954035623,4.223499341318529,7.585956130598788,8.222084694263685,15.293264933556202,11.969477521698536,23.125453881273643,1.388184894533879,2.901357527493019,5.700749102536975,.367752145775739,4.317353425738474-2.523595740363817-29.390949414071656-61.428166131532635-74.493475026160922-113.176558786060923-109.916344894697431-170.944737243185955-18.107720862828501-29.530358611196789-34.289470923021327-61.159414268895489-42.328553392080721-95.048602373075482-4.275958453923522-18.025534745836922-6.130714014429941-36.885711295395595-3.535785417470834-55.310842777445941,2.515039056429487-17.857880695257336,9.525020492004842-34.48168088586408,19.373796858116293-49.50629936553014,9.56709436705296-14.594903720073489,21.414981895812161-28.100655888571055,34.509428698621377-39.633983374946183,12.97560826366589-11.428656872138163,28.181639654405444-20.650722641063112,45.362635893613515-23.860170592673967,18.111907636158321-3.3833442515961,35.838540341411317,1.164887095669656,50.032577753469923,12.893840515662305,13.519154696182341,11.171277847589408,24.000985580473753,26.41929944381809,30.402697757587703,42.693970909685049,6.192510004630094,15.742829900214929,10.3041794796045,35.42457260278934-.258837757466608,50.286106794015723-4.872138499196808,6.854807794511544-12.37982714611644,11.304912773695833-20.908903158088833,11.182096573256786-8.774288004792652-.126347181429992-16.984416048314415-4.391005256735298-24.120896380674822-9.160966164815363-26.255788195917376-17.549138717230562-47.175977086310013-43.842908653289669-61.067104020834449-71.979414395103959-14.27852693478053-28.921185226999114-21.345286225347081-61.315779152410869-19.831439833897093-93.560004509935425,1.774341361855477-37.792647296297218,14.354300121712186-74.05760639773689,28.531957918741682-108.787087835363309,3.593797704189456-8.803339200667324,7.318376531280592-17.552263553761804,11.051786968749184-26.297058549685971,.857977735898203-2.009647623042838-.543668684102158-4.142071420514185-2.823275743393424-3.672495454065938-13.695632808939081,2.821161649842907-27.391265617892714,5.642323299677628-41.086898426835432,8.463484949521444-2.731131230718347,.562585372744252-2.158752592094061,5.122163321338121,.664599030524187,4.910697583882211,24.530222479954318-1.83728500025336,47.734837646110464-13.548458655911418,63.562627299651467-32.425464953522351,1.69371658563432-2.020010333296341-.511237369156333-5.637430972229595-3.029564823148576-3.926443665835905-13.856134728566758,9.414053997891642-21.876899574605886,25.395688416293524-22.688457891686085,41.988262144458531-.887357051177787,18.14230349810714,6.872853031132763,35.605989260776369,18.322253407033713,49.314943992998451,2.064852957399125,2.47235442838155,5.585544066502734-1.080951520029885,3.535533905933335-3.535533905933335h0Z"/>
</svg>