<?xml version="1.0" encoding="UTF-8"?>
<svg id="Livello_2" data-name="Livello 2" xmlns="http://www.w3.org/2000/svg" viewBox="0 0 226.663278248017377 177.160024368255108">
  <defs>
    <style>
      .cls-1 {
        fill: #fff;
      }
    </style>
  </defs>
  <path class="cls-1" d="M3.786193575529978,52.598438160215665C27.116402557936453,40.720306854377668,48.957901197773026,26.166340675221363,72.229738920404088,14.181931929349957c6.458655877097954-3.326044676944548,13.024640785363772-6.458358134805167,19.742448597285147-9.22780364827122,1.247377134300223-.51423665351922,2.135170446676057-1.65953631600496,1.746098553358024-3.075296614407307-.32419947233484-1.179701617049432-1.819331031435468-2.263875832228223-3.075296614406398-1.746098553358934C66.180284652331466,10.217589656442215,43.859078838793721,24.49905761811624,20.95449870955963,37.580096947703169c-6.48784208611778,3.705272788839466-13.033240167998883,7.310857580429911-19.691900874393468,10.700987786774022-2.86823830396861,1.460308873215581-.340746911761926,5.775678902055915,2.523595740363817,4.317353425738474h0Z"/>
  <path class="cls-1" d="M89.640478015260669,1.876997622433009c-6.92955560419432,21.045382589165456-12.981740403124604,42.364301241083922-18.846691218222986,63.726807047828515-1.650908956667081,6.013273305280563-3.287606559114465,12.030434978482845-4.926139898099791,18.047088483667721-.846614274148124,3.108746473991232,3.97553008052364,4.435193539428838,4.821395167764422,1.329198061048373,5.820952969107566-21.374393948407487,11.620063213930734-42.760142325341803,18.111429862289697-63.94319405805345,1.827142467034719-5.962450666997938,3.711048404177745-11.907389178461926,5.66140125403308-17.830701473442787,1.008673014724991-3.063386848269147-3.818045005666136-4.376419158386852-4.821395167764422-1.329198061048373h0Z"/>
  <path class="cls-1" d="M1.622951946646936,54.053006605967312c5.98582174164676,3.794577998996829,12.023761228567309,7.506127117766482,18.112254665036744,11.13367904732786,1.159957878926434,.691108151107983,2.743154243785284,.261134420111375,3.420474583051146-.896878842687329,.688942935244995-1.177884392473061,.266361997620152-2.727410428702569-.896878842687329-3.420474583051146-6.088493378105341-3.627551894788667-12.1264328660518-7.339101011983075-18.112254665034925-11.13367904732786-1.140605482611136-.723061370126743-2.756409950804482-.238471163680515-3.420474583052055,.896878842686419-.704233889515308,1.204027307160686-.246599701581545,2.695591899657302,.896878842686419,3.420474583052055h0Z"/>
  <path class="cls-1" d="M23.533362794774803,67.348349638640684c8.33931416897758-8.749253858577504,17.094896277757471-17.097347002133574,26.244095074595862-24.99623118278123,4.574103055372689-3.949013576710058,9.245549153485626-7.785214828541939,14.007422575787132-11.505632027776301,4.313479435741101-3.370090226700086,8.70078495216967-6.654341792020205,12.828947650469672-10.253608714478105,4.675238957079273-4.07625235791329,8.966193093086076-8.591028258765618,12.347989604564646-13.811962842699359,1.754491030151257-2.708644019659914-2.572234549576933-5.217770704086433-4.317353425738474-2.523595740365636-5.847094726367686,9.026947354408549-14.69065509318807,15.517660029888248-23.070210768397374,22.022353686588758-9.378661360187834,7.280257023463491-18.423278764348652,14.981575676953071-27.072206252109027,23.116264080200381-4.966481091183596,4.671189138142836-9.800197542108435,9.481620191504589-14.504218365105771,14.416878835378157-2.220001285681064,2.329130959839858,1.310041937691494,5.870425456464545,3.535533905933335,3.535533905933335h0Z"/>
  <path class="cls-1" d="M38.939119509303964,64.585813378767853l-2.094852540573811,4.079154707267662c-1.463052359371432,2.848895950007318,2.679337184257747,5.318989224576399,4.317353425738474,2.523595740363817,5.315393829152526-9.071104974273112,11.570419078354462-17.444040956733261,18.548326246374018-25.297912758579514,6.532254172871035-7.352274201344699,13.446450247848588-14.378783681390814,19.542439581170584-22.109204988030797,3.487424179736081-4.422458227896641,6.718320257110463-9.033058401300877,9.416776933167057-13.983019415873059,1.540706076576498-2.826221032798458-2.775055375022021-5.352737038660962-4.317353425738474-2.523595740363817-9.563348908636726,17.542695677320808-25.407701209994229,30.444876918957561-37.373254850074773,46.215485607237497-3.679866703574589,4.850067080280496-7.05659189529797,9.922340149659249-10.134287910636885,15.174651555245873l4.317353425738474,2.523595740363817,2.094852540573811-4.079154707265843c1.467427984020105-2.857416287142769-2.845341221441231-5.389938547803467-4.317353425738474-2.523595740365636h0Z"/>
  <path class="cls-1" d="M38.625253208329013,74.69600101776814c9.22596338632502,5.179413532466242,18.771896083341744,10.444709688375951,29.400168165834657,11.932944659662098,1.335408768544767,.186992016660042,2.684957697903883-.325503224048589,3.075296614407307-1.746098553358024,.321439785299845-1.16984455903912-.400367433147949-2.88685919960426-1.746098553358934-3.075296614406398-10.244451246674544-1.434490055261449-19.314837091649679-6.437573685841016-28.205770486517395-11.428902917636151-2.809135715489901-1.577035907263962-5.332682082823339,2.740345236267785-2.523595740365636,4.317353425738474h0Z"/>
  <path class="cls-1" d="M20.343191249989104,63.36938428790927c-.712036944915781,2.590161693087794,.219767336670884,5.007992156424734,1.465493561247968,7.264568380222045,1.134040605203154,2.05426281957898,2.154610490636514,4.064259833358847,2.820663939401129,6.324916013823895,.640378357121335,2.173512191174268,.852441355183146,4.29181567933847,1.059481916854565,6.531338390831479,.246720555262073,2.668734485840105,1.790804037801536,4.956797085418657,4.740281490740927,4.471918178770466,1.333323254038078-.219191477793174,2.076692579974406-1.872326402963154,1.746098553358024-3.075296614407307-.389094408594246-1.415842227307621-1.738063667155075-1.965932764584977-3.075296614406398-1.746098553358934,1.510608557503474,.973718018231921,2.040620273590321,1.10605939071138,1.590035148257812,.397024117439287,.102433440715686,.176718125215302,.100675336840141,.118943183827469-.005274311626636-.173324824163501,.00841731881701,.21195507689481,.004048357183819,.167778106919286-.013106884899571-.132530909925663-.009013794724524-.253839162661279-.021524619992306-.507505851559472-.037532475803346-.761000066694578-.062733213660067-.983403826581707-.180980316586101-1.962939640839977-.326722143351617-2.937296200593664-.272652074747384-1.822814654209651-.710870278628136-3.615475345066443-1.326365442931092-5.353379270809455-.643996899651938-1.81838104502549-1.450829784024791-3.570309380992512-2.394285133455014-5.251437423775315-.686127163233323-1.222599051161524-1.825185919489741-2.763820336301251-1.422076435620511-4.230203156310381,.854127605988651-3.107041877306074-3.968195294683028-4.432865144037351-4.821395167766241-1.329198061048373h0Z"/>
  <path class="cls-1" d="M34.043442981123007,88.260338723882342c.356266236132797-1.095472777593386,.735773596657964-2.183030762018461,1.14418764608763-3.260197070630056,.190567298127462-.502609235290947,.386764115875849-1.003079789092226,.58878001631183-1.501198885773192,.086579310191155-.213482244173974,.174444278969531-.42643047227557,.262890196526314-.639144389838293-.198176439862436,.476617667111896,.164581672564964-.380803829828437,.200104440383257-.462177314554538,.891159975511073-2.041417296876716,1.882210114865302-4.037137407093724,2.96075690806083-5.985893017468698,.633248497420936-1.144175264251317,.315780335034106-2.779771440857076-.896878842687329-3.420474583052055-1.174935348658437-.620771923052416-2.744147909871572-.325131557900932-3.420474583051146,.896878842686419-2.297303671812188,4.150847647433693-4.193569115566788,8.531582489906214-5.660760949395808,13.043008357582039-.404672793971258,1.244316706627615,.471031613263222,2.784877100431004,1.746098553358024,3.075296614407307,1.371736974003397,.312437859351121,2.642012650343531-.413806184730674,3.075296614406398-1.746098553358934h0Z"/>
  <path class="cls-1" d="M35.639254692882787,87.892521920983199c.886907583948414-.759045547237292,1.786780772646125-1.50263834692214,2.701882318066964-2.227482979539673,.221834027363002-.175712963080514,.44502362161893-.349658515025112,.667966326038368-.523956209565767,.297640418443734-.232696731979559-.30375098262175,.229120818698902-.001750891892698,.002111059159688,.113090524887411-.085008758767799,.224922078883537-.171741998062316,.337675498339195-.257203619640677,.479236048263374-.363237673869662,.962092512335403-.721700268506538,1.448545919060962-1.075215221853796,1.888860556346117-1.372670932557412,3.832045179110537-2.668623218612993,5.820910254843511-3.891747358607063,1.11345652273576-.684760152113995,1.63987269102563-2.268033723576991,.896878842687329-3.420474583051146-.720286087355817-1.117219367881262-2.228649416959342-1.629834611827391-3.420474583051146-.896878842687329-4.219146903685214,2.594716198221249-8.224287689939047,5.534913793929263-11.98716759002582,8.755313849852428-.99716708768392,.853409364692197-.942280454781212,2.670537773367869,0,3.535533905933335,1.061723129198072,.974642311587559,2.471894907235765,.910298277340189,3.535533905933335,0h0Z"/>
  <path class="cls-1" d="M27.68121510317269,67.809412837051241c2.809482306417522-4.028758062883753,6.033038957867575-7.75116716541288,9.606908364765331-11.119949571882898,.586599452009978-.55293735964824-.298505841348742-1.435669133388728-.883883476482879-.883883476482879-3.65142160708001,3.441884262697386-6.932249681211033,7.257231681564917-9.802363244716616,11.372934113274823-.461170640682212,.661312204305432,.621957135022058,1.286777165528292,1.079338356434164,.630898935090954h0Z"/>
  <path class="cls-1" d="M45.381519492218104,52.631986389175836c4.344674430499254-5.888526543732951,9.410884200859982-11.220367912981601,15.048896158959906-15.884111887980907,.620373195285538-.513170559634091-.268219141900772-1.393158882843636-.883883476482879-.883883476482879-5.724727992444059,4.735475178427805-10.833941697072987,10.159476496372918-15.244351038911191,16.137096429372832-.47801277329836,.647871537635183,.606330148693814,1.271987566987264,1.079338356434164,.630898935090954h0Z"/>
  <path class="cls-1" d="M66.587650503471195,70.317396366942376c.303401733272949-4.329856135484988,1.357399302927661-8.59357675749925,3.119090216149743-12.561601657706888,.323550103463276-.728762836528404-.753212531487407-1.365463315412853-1.079338356434164-.630898935090954-1.85679527454522,4.182237547279328-2.969824962058738,8.62681329172392-3.289751859715579,13.192500592797842-.056253941913383,.802801859145802,1.19399243722637,.799285774321106,1.25,0h0Z"/>
  <path class="cls-1" d="M73.684430890461044,46.315678542524438c.375116014904961-4.797757561159415,1.5830227589895-9.512904662045912,3.568727957060219-13.897259518494138,.329331427566103-.72715015563881-.747595919403466-1.363372499796242-1.079338356434164-.630898935090954-2.082531298926369,4.59814287791778-3.345879650768438,9.495141300746582-3.739389600626055,14.528158453585093-.062714427370338,.802121493494269,1.18760393262437,.798049649019958,1.25,0h0Z"/>
  <path class="cls-1" d="M40.261928594969504,76.269059878376538c.125591031376644-.015359854711278,.25162284587168-.022468853026112,.378157312334224-.019035803697079,.06316226389572,.001713676705549,.125819021219286,.007030094375295,.188726247203704,.012418510204952,.087178672595655,.007467424164133-.029732379390225-.002220573360319-.053529915910985-.008115967038066,.036023249508617,.008924084945647,.075412089265228,.012087178803995,.111927307891165,.019158854689522,.117823153383142,.02281807925101,.234032385419596,.053807861443602,.347703424705287,.092271308175441,.029945677241813,.010132870858797,.059731732480031,.020726967862174,.089306950567334,.031897880147881,.021616489519147,.008164805669367,.128097418230027,.05093158696036,.030883279219779,.011175845155776-.100181827586312-.040969378646878,.016682246042365,.009074303640773,.029261422126183,.015052907800055,.02857489296548,.013581014591182,.056868008291531,.027744221870307,.084948209630056,.042317486000684,.106665940066705,.055358254006933,.209815651226563,.117604484416916,.308272024132748,.186532393683592,.011133010109006,.007794062365065,.110937952540553,.084808996813081,.028446432983401,.018483461200958-.080319042277551-.064578801887365,.008486045058817,.007400261059956,.02581830442341,.021838281866621,.048504478321775,.040404926586234,.095569072969738,.082562562231033,.141084195098301,.126307225343226,.045470659762032,.043701930255338,.089347594115679,.089130423461938,.131473694089436,.136065703843997,.01684473966634,.018767761072922,.033424650455345,.037795870545779,.049702873456226,.057057108466324,.031346193280115,.03709044203697,.08031726767058,.131534924311381-.00357762920703-.008027638679778,.06524410458951,.108536213708248,.141903969333725,.207766651460588,.202106047463531,.320185040675824,.154549926831351,.288598905011895,.578715020800701,.402420779574641,.855118645762559,.224219710671605,.293201823839809-.189031089658783,.389536474206579-.546414281327088,.224219710671605-.855118645762559-.593204171986145-1.107720191094813-1.914179518241326-1.828277159417667-3.170048536640934-1.674683662748976-.171721304885978,.021001613451517-.314703623445894,.055820146963015-.441941738241439,.183058261758561-.108401423773103,.108401423772193-.190031538700168,.286253909299376-.183058261758561,.441941738241439,.01364241975989,.304585452685387,.277421110842624,.667509096228969,.625,.625h0Z"/>
  <path class="cls-1" d="M38.614702401278919,78.862321769493064l1.777777777782831,1.333333333325754c.121193756696812,.090895317522154,.342692989926036,.101257066859944,.481599225176979,.063005217753926,.14497440985815-.039922896479766,.302083442273215-.15201801430976,.373519420585581-.28722492842553,.076636546496047-.145050032280778,.115052113878846-.32076892211262,.063005217753926-.481599225176979-.053270178473213-.164610372296011-.149764733000666-.270424274018296-.28722492842553-.373519420585581l-1.777777777782831-1.333333333325754c-.121193756696812-.090895317522154-.342692989926036-.101257066859944-.481599225176979-.063005217753926-.14497440985815,.039922896479766-.302083442273215,.15201801430976-.373519420585581,.28722492842553-.076636546496047,.145050032280778-.115052113878846,.32076892211262-.063005217753926,.481599225176979,.053270178473213,.164610372296011,.149764733000666,.270424274018296,.28722492842553,.373519420585581h0Z"/>
  <path class="cls-1" d="M22.78146906920756,92.001787556833733c-1.621982225632564,4.326763871467847-2.826982244808278,8.794938795742382-3.600440299946968,13.350539367732381-.169310278747616,.997222793896071,.264078022161812,2.019200128138436,1.309573915018518,2.306472460805708,.900382290651578,.247399270235292,2.136030517286599-.305685714195533,2.306472460805708-1.309573915018518,.773457656760002-4.55559822558007,1.978457238894407-9.023773267717843,3.600440299946968-13.350539367732381,.355517668077482-.948371059558667-.395708368415399-2.055368377938976-1.309573915018518-2.306472460805708-1.051206435487984-.288841426255203-1.9496660232453,.357764962524925-2.306472460805708,1.309573915018518h0Z"/>
  <path class="cls-1" d="M19.335657831609751,113.820691874568183c-2.435489549623526,6.121851219402743-2.960308189654825,12.845379817262256-1.689237973791023,19.296462378806609,.195859674276107,.994049670475761,1.38214259535016,1.563593448699066,2.306472460805708,1.309573915018518,1.037403186157462-.2850937564981,1.505998321003972-1.30955659864685,1.309573915018518-2.306472460805708-1.144922150113416-5.81084130895124-.495127587131719-11.812039809155067,1.689237973791023-17.30266528723223,.374456921005731-.94123563733956-.409489112761548-2.059154931861485-1.309573915018518-2.306472460805708-1.066976109443203-.293174481079404-1.930637993697928,.364875675145413-2.306472460805708,1.309573915018518h0Z"/>
  <path class="cls-1" d="M18.104010154717798,138.919047567826055c1.429763114781053,5.042425842420926,4.60541359635954,9.404357804993197,8.894335959299497,12.396305512234903,.806805105652529,.562826388957546,2.118219117970511,.173636963530953,2.565355937288587-.672659132014815,.506580692042007-.958805545040377,.1883927996887-1.964687019813937-.672659132015724-2.565355937287677-.24136461139733-.16837569780364-.480451049933436-.339783538414849-.714747434359197-.517903279382153,.155924495488762,.11853887892903,.058617113247237,.045894485703684-.037954847185574-.032599981366729-.114162476564161-.092792180228571-.228302159414852-.185441476331107-.341010527502476-.279992928341017-.428187675796835-.359208168532859-.841477173959902-.736140937286109-1.238514287518228-1.129515540695138-.417975797444342-.414120136227211-.81810815454628-.846363469468997-1.199033183874235-1.294796209887863-.076192524876205-.089695399616176-.151634576292963-.180062009372705-.226284961911915-.271044885870651,.008581821077314,.010459407018061-.304199449325097-.376957095179023-.183506610391305-.224443528921256,.128658636164801,.162579549911243-.149936277331108-.199219939788236-.174024410812308-.231844027122861-.087396783517761-.118367008410132-.173376676381849-.23776605816056-.258235054992838-.35796368066076-.644879795118868-.913439773890786-1.215862999475576-1.878822604087873-1.704507246882713-2.884567291640451-.115718694019051-.238176264996582-.226071759268052-.478775409083028-.333273022667527-.720890556758604-.227620656827639-.514083576950725,.069125138528761,.179554097053369-.050229596589816-.121584543468089-.054194936376007-.136736841207494-.108540519414419-.273382997957015-.160467143923597-.411005669976475-.207849443722807-.550869541260909-.388609458366773-1.11068002747561-.549198060136405-1.677036864627553-.267402216655682-.943062409180129-1.337754081273488-1.623064494306163-2.306472460805708-1.309573915018518-.960797551902033,.310927290622203-1.59621004237124,1.295576738993987-1.309573915018518,2.306472460805708h0Z"/>
  <path class="cls-1" d="M33.728063560978626,159.548573282963844c3.808641079911467,4.668864092302101,9.373033286526152,7.916138825990856,15.311196760523671,8.9367188842225,.996888923181359,.171333268228409,2.019583266066547-.265472410288567,2.306472460805708-1.309573915019428,.247840332313899-.901987487319275-.306088696588631-2.1340055007513-1.309573915018518-2.306472460804798-5.417061507374456-.931019324889348-10.174550459321836-3.704004795457877-13.656444876860405-7.972322937846911-.640569677374515-.785249306132755-1.986566812162891-.665083617286655-2.651650429450456,0-.776446197098267,.776446197098267-.642166398476547,1.864443765385658,0,2.651650429448637h0Z"/>
  <path class="cls-1" d="M60.294064942618206,168.682614121282313c6.526089460361618,1.615194352927574,13.295995991024938,2.130992987829814,19.986825791382216,1.460990750039855,1.007552416823273-.1008936700091,1.875-.7895397432967,1.875-1.875,0-.935676601304294-.861219626486672-1.976517321341817-1.875-1.875-6.372221159095716,.638097599799949-12.772255892269641,.211824349948074-18.989927245595027-1.327037125864081-2.34259737110915-.579788258799454-3.342020328953367,3.035633329986013-.99689854578719,3.616046375824226h0Z"/>
  <path class="cls-1" d="M93.946963864310419,164.589165491704989c4.062922616601099-2.542378871938126,8.399922863927713-4.56342544787185,12.969237831196551-6.008317812369569,.965271495945672-.305234684881725,1.585116086454946-1.303825717221116,1.309573915018518-2.306472460804798-.26125004293408-.950640344612111-1.33710770772359-1.616102954967573-2.306472460805708-1.309573915019428-4.864828474360365,1.538338584130543-9.539399461052199,3.679576627107963-13.865036090682224,6.386349118891303-.857621701801691,.536657844741057-1.194805215723136,1.672656883532909-.672659132015724,2.565355937287677,.500494767185955,.855682382798477,1.703496825623915,1.211968541239912,2.565355937288587,.672659132014815h0Z"/>
  <path class="cls-1" d="M112.87188473808601,150.027908000043681c3.076811100740088-3.407218395923337,4.315470045193251-8.138541312417146,3.284542423551102-12.615435111240004-.220304223016683-.956690449623238-1.371239793506902-1.612228057681932-2.306472460805708-1.309573915018518-1.000398837407374,.323742810794101-1.545616509428328,1.281436750258763-1.309573915018518,2.306472460805708,.050300848720326,.218435856197175,.097235161852041,.437416476351245,.13602746696597,.6582289322414,.019370618083485,.110260881340764,.036777795338821,.220878367739715,.05319723158027,.331613670522529-.027111255695672-.182842642346259-.021044042713584-.181085000433995-.005515806464246,.001379822193485,.03802247585736,.446783794508519,.063977966091443,.892253339921808,.057905971308173,1.340945487621866-.006059318049665,.447755396171488-.037144898976294,.895482107286625-.092914471182667,1.339792525625853,.023064773217811-.183754664631124,.026973456700034-.179270311406981-.005886638882657,.000352965415004-.020165565003481,.110231111651046-.038438209201558,.220748087357606-.059918100288996,.330748949024382-.048323011666071,.247467405681164-.104513144236989,.493381233152832-.16788653952608,.737417075261874-.112673711069874,.43387960893233-.248870693832941,.861436956009129-.408086938406086,1.280482273270536-.012363761488814,.032540500935283-.140358282063971,.354633430692047-.062181454863094,.165747363644186,.078089633716445-.188675395487735-.059190488525928,.128902009981175-.073870987193004,.16075165455004-.093746523216396,.203385015149252-.193065862011281,.404077330995278-.297989099083679,.601928870210031-.209756997351178,.395534353920084-.441559999546371,.779144880476451-.694891250498586,1.148303425114136-.063153559063721,.092028424700402-.133093616425867,.180583991850654-.193944365361858,.274018214402531-.156081847801033,.239658284550387,.170114848811863-.199394734192538-.012632035642127,.020723899153381-.161258067812014,.194235352404576-.322281765517801,.386995211949397-.491559459636846,.574451007752941-.657253328078696,.727833317316254-.772170755361003,1.942811873286701,0,2.651650429448637,.717097812486827,.658282607184447,1.949611686750359,.77742807096547,2.651650429448637,0h0Z"/>
  <path class="cls-1" d="M107.792208999580907,126.798257621492667c-2.52386287340687-2.495545037721968-6.010571569621789-3.144889002585842-9.425555286371491-3.360333923848884-4.101514578655042-.258756866432122-8.222641179307175-.325534919999882-12.329347338741172-.48022602412766-2.413437819810497-.09090919744358-2.409593315623169,3.659235617055856,0,3.75,3.801250783361866,.143185233595432,7.604579479117092,.259778490536519,11.404643506431057,.431475906605556,2.668691680541997,.120578880391804,5.693770833720009,.328390970911641,7.698608689232969,2.310734470819625,1.717822443790283,1.698548411824959,4.371034876657177-.951557539943678,2.651650429448637-2.651650429448637h0Z"/>
  <path class="cls-1" d="M72.437643895298606,142.355719083016083c.026769368128953-1.39710075397943,.051450450553602-2.798916096335233,.207731629808222-4.188871689455482,.064427950097524-.573018389152821,.180809189597312-1.202346248993308,.325338291194385-1.796152827934748,.077281980821681-.317517705001592,.164934489359439-.632264636533364,.264649925783488-.943481076960779,.047272831023292-.14754066900241,.096789984111638-.294281992313699,.149703501184376-.439901527895927,.015635242486496-.043028641366618,.163971516627498-.423779848504637,.061108681134101-.17943221844871,.200275449662513-.475748420199125,.450693450509789-.935346797168677,.725696456539481-1.371681650249229,.354348114101413-.562228153568867,.397066066270781-.613477304302251,.83101908212484-1.066594094396351,.198436954873614-.207200117854882,.408309937910417-.401351714292105,.625568323918742-.588543954464512,.063482650545666-.054697357308214,.229184354271638-.170173363198046,.069660060685237-.056542481140241,.102710245228991-.073161620086466,.206916910240579-.144500443537254,.313186856288667-.212407221746616,.23905561734955-.152757175387706,.487695177569549-.289716510689686,.744101325345582-.411023565272444,.28129623582754-.133082682023087-.217864578933586,.073506256725523,.077144885054622-.030085058481745,.150738341388205-.052931125751456,.301149025198356-.101420940806747,.454508462044942-.14673371567369,.971000493981592-.28689937629315,1.581462468667269-1.317120553208952,1.309573915018518-2.306472460805708-.265302911932849-.965387981542335-1.331742245341957-1.597575303898338-2.306472460805708-1.309573915018518-2.696607897014474,.796760793175963-4.841536365632237,2.900554010481756-6.002801086399813,5.430148585777715-1.388486266496329,3.024553544760238-1.536937464237781,6.340823167493909-1.599717848919681,9.617348872166986-.019413582279412,1.013200248455178,.875660451894873,1.875,1.875,1.875,1.032476644296366,0,1.85552170900155-.858422585544758,1.875-1.875h0Z"/>
  <path class="cls-1" d="M70.755132134024279,152.550085554466932c.45676257602554,6.163376434116799,4.811637972826247,11.662905298819169,10.782798885064949,13.375855728443639,.94229098116557,.270315565890996,2.083244806047333-.329508220396747,2.306472460805708-1.309573915019428,.22772475833608-.999809919176187-.300404194308612-2.016971351713437-1.309573915018518-2.306472460804798-.317900376616308-.091196267308987-.632646992491573-.191442682065826-.942734635501438-.306641516152013-.08007627063671-.029748663719147-.529463837795447-.216901194566162-.163795010464128-.057922382955439-.125967863336882-.054766006061982-.250798468713583-.11210850353018-.374805504921824-.171164485753252-.570546488785112-.271711866756959-1.119734465017245-.587093106392786-1.643628379675647-.940416826309956-.113962596004058-.076858476926645-.226464850901721-.155852703735945-.337901864530068-.23632018054559-.067085453849359-.048018388233686-.133560577720345-.096870916491753-.199425371615689-.146557584777838,.139306646660771,.109137931120131,.157176119345422,.122497300546456,.053608418055774,.040078108280795-.23139013803393-.195790281984955-.466031056941574-.385884466631978-.689410060440423-.591228094353937-.466638420906747-.428962546535331-.903199951983879-.890203856401058-1.306035115840132-1.379559147628242-.090239318178646-.109620737684963-.225015759463531-.287648091252777-.065351963892681-.074872441207845-.099257446835509-.132275245598066-.196834045351352-.265747698493215-.291620131721174-.40127214333188-.173692041016693-.248343594861581-.338904244198602-.50255820235725-.495639669613411-.761926323441003-.156623160075469-.259182342724671-.304769284930444-.523446533075912-.443551171976651-.792616219867341-.075635190119101-.146695659414036-.148653461799768-.29478686042421-.218696235029711-.444237998330209-.017408367621101-.037144450883716-.229749234500559-.536182721843943-.076224577242101-.156223011885231-.226530290507071-.560642081960395-.419089142022131-1.134012938662636-.565913206976802-1.720824602140056-.08016643980136-.320401167955424-.141407132776294-.64362495068417-.201700153916136-.968139977661849-.075905873447482-.408548055880601,.017330566327473,.297231000527972-.02321998946627-.155699697481396-.014754551059013-.164801418353818-.031419693881617-.329195972008165-.043652806083628-.494264827077131-.07232332188596-.975902758118536-.810590808010602-1.92267501817696-1.875-1.875-.953766326704681,.042719310678876-1.952630223039705,.827487983093306-1.875,1.875h0Z"/>
  <path class="cls-1" d="M92.240304963507697,172.285365678484595c9.329988888188382-1.069025297594635,17.361759695298133,6.895809736723095,26.837618045229647,4.380944197097051,2.330351491354122-.618468580301851,1.341892753809589-4.236754856949119-.99689854578719-3.616046375824226-4.290829171500263,1.138773715409116-8.599978124178051-.492192356310625-12.613222203031-1.930006360500556-4.238050982486129-1.518354960067882-8.650661643264357-3.10930292093326-13.227497296411457-2.584891460772269-1.005930104158324,.115258950663701-1.875,.77925650495672-1.875,1.875,0,.924065186618463,.862331287302368,1.991031056943029,1.875,1.875h0Z"/>
  <path class="cls-1" d="M134.162949172640765,170.662287156152161c4.855557591893557-.502344316179006,9.8279523668416-.757327970790357,14.611344625280253-1.774969734095066,4.213616549443032-.896424951915833,8.065450526058157-2.691788598351195,10.729413412568647-6.166515509456076,.616611796211146-.804274568856272,.124253723073707-2.099242721909832-.672659132014815-2.565355937287677-.966005962141935-.565015537413274-1.947211796499687-.133614142969236-2.565355937287677,.672659132014815-2.165821400720233,2.824978509959692-5.83583306737637,3.941349922810332-9.181195299829596,4.582919205036887-4.24713733957833,.814510556745518-8.624864747792344,1.056738357587165-12.921547668716812,1.501262843787117-1.007197058387646,.104202186459588-1.875,.787171375839534-1.875,1.875,0,.933003681513583,.861460613867166,1.979858348440757,1.875,1.875h0Z"/>
  <path class="cls-1" d="M198.461429201093779,142.236793975223918c.224751001826007-.475947361588624,.479095175654948-.935929835520255,.772437698436988-1.373274426475291,.087760480706493-.130842167622177,.183234780946805-.256033292582288,.271690493349524-.386248866675487-.095318310215589,.140317998116188-.121243619923916,.147960272590353-.004397919312396,.005873824038645,.166771656577112-.2027972982969,.3376072892097-.401815723157597,.517233139042219-.593394991256901,.361430487761027-.385482314371075,.754883605257419-.727870704648922,1.156543111654173-1.069794119706785-.315644140240693,.268700530313254,.079504995595926-.056577708511213,.123732743122673-.088216227094563,.085619146764657-.061248042630723,.172132956238784-.121347851486462,.259403934560396-.180218297086867,.240121810500568-.161979139620598,.486461202743158-.314630829057933,.738082574593136-.458070777794092,.228788830498161-.130423969462754,.4618872463343-.252947634744487,.699065305007025-.367413143244448,.118613554206604-.057244590302616,.238581792709738-.110974358127351,.358362336150094-.165727609999522-.240311386336543,.109849475432384-.098368154011041,.040640890790201,.062993778721648-.021370817635216,.490740472285324-.188592529625566,.994263790853438-.343105716860009,1.50666374102002-.460839818662862,.256369575925419-.058906020074573,.514671650984383-.100652183418788,.773098627763829-.148394545882184,.229210221990797-.042344795557256-.321032616111552,.022350488271513,.047952825167158-.00318703756966,.130841152456924-.009055531568265,.261250761772317-.023729734590233,.392219935531102-.032026971145569,.552001138976266-.034970702630744,1.10331496326944-.021574443182544,1.653781462624465,.029982768212903,.979422190657715,.091733605929221,1.91742042232363-.927906759638063,1.875-1.875-.04901241022344-1.094268276288858-.825811382926986-1.776732004786027-1.875-1.875-5.090188471898728-.476751852102097-10.384557548428347,2.548198495362158-12.566878856734547,7.169624252705034-.418027798512412,.885242896166346-.275978509240304,2.06414741248409,.672659132014815,2.565355937287677,.833044167500702,.440135221429955,2.118235173018547,.274192923535338,2.565355937287677-.672659132014815h0Z"/>
  <path class="cls-1" d="M218.867991762273959,126.656471581358346c-2.800861880210505,.785991649551761-4.090489313113721,3.766307770875756-3.655030973997782,6.471486529349932,.441451993923692,2.742412877592869,3.098259962438533,4.579117855990262,5.81590321661497,4.246431325005688,2.958771448344123-.362204791823387,5.468495191649708-2.554507471772922,5.627115608829627-5.639973938945332,.160305185896505-3.118238398249559-2.340563994654076-6.095480464195134-5.480374433289398-6.268104264841895-1.825215524531814-.10034861881104-3.462241008370256,.957829888444394-4.526747299618364,2.357878430220808-.979587734513188,1.288362868797776-1.402657549846481,3.202070028235539-.759868157327219,4.730755467733616,.19852059994264,.472122835416485,.400668831503936,.850782445485493,.861674785275682,1.120558261758561,.401900552240477,.235187959405266,.994218902793364,.3348291357579,1.444797675529117,.189015653259958,.453693173298234-.146821345316312,.891415193442299-.427975578098085,1.120558261758561-.861674785275682,.218009263577187-.412626249027198,.37919318258173-.992516378770233,.189015653260867-1.444797675530026-.087572485563214-.208265390091583-.115202355291331-.430012613499457-.192241153461509-.637644608537812,.145571994951752,.392340021541713,.035682357518454,.394001688246135,.033587045296372,.220100210605779-.000560371287065-.046508292984072-.0049126465874-.093065942612157-.005880037268071-.139613582471611-.004563225025777-.219567295283014,.112857643318421-.565761144144744-.033647766253125-.012449012146135,.056227543509522-.212356540736437,.098551594624951-.425433111392522,.162388332280898-.636826738073069,.085994417511756-.28476818301624-.21943121748518,.421245994581113-.020306850461566,.054543788597584,.061242049312568-.112781750003705,.119490251152456-.225467584943544,.187791413191007-.334477620795042,.059264538374919-.094587401738863,.137098683066142-.181419225954414,.19111997535947-.27820184326265,.004912835129289-.0088016599002-.276513444272496,.31344595615974-.141942211419519,.190765177832873,.046960796442363-.042811431064365,.085262244641854-.097905759338573,.128851702880638-.144613579025645,.077116639462474-.082633513616202,.157547590279137-.162157705813115,.241353703950153-.238018808512606,.042001002197139-.038019211265237,.115185579386889-.083757093074382,.14658921818409-.126422347148036-.02977543680754,.040453164830978-.359344665777826,.252195254734033-.148892509057987,.11762974364683,.184676123712052-.11808402137558,.406077040828677-.210093223711738,.581631546960125-.336283970070326-.313098702534262,.225059212818451-.345068362268648,.130050098108768-.182882914325091,.079866228054925,.045514824189013-.014083322835177,.090090848570981-.031332303491581,.135563746312982-.045669912457015,.0760122857846-.023966680908416,.335417691991097-.131084779027333,.416295659179013-.101833274444289,.047546166098982,.017196239518853-.473174837750776,.018135607347176-.261702617424817,.035974442325823,.045065276670357,.003801501835369,.097924948573564-.008181601449905,.143406667542877-.01016998736668,.069869746874247-.003054590367356,.329253943220465-.034690884876909,.386572806779441,.008626194905446,.0310915082664,.023496511627854-.457127095754913-.087175446101355-.258052987011979-.036119341926678,.061649211094846,.015811039233995,.126293054350754,.022744230700482,.18861057106551,.036805462619668,.124629722753525,.028121265544542,.244452529454065,.067025842102339,.366263468522448,.105107821858837,.370409935874704,.115801945111343-.32400767179206-.174982868832558-.054881112437215-.023975896849151,.096487788996455,.054139319749083,.195490500078449,.102780699146024,.289977101587283,.160714983472644,.092889075966013,.056954764503644,.179274285270367,.137291400631511,.275558031431501,.185868153830597-.021384789342846-.010788982311169-.362211506091626-.311514704179899-.155955621887188-.114721190704586,.046085682764897,.043971416705062,.095824866513794,.08427817905249,.142221428004632,.12801635154392,.081553527370488,.076880745742528,.159789275685398,.157213744777437,.234929095897314,.240354971434499,.042874501717961,.047440074452425,.081060783715657,.100745500997618,.126127933715907,.14580253416807,.130863000251338,.130833623669787-.149943335914941-.20152268783113-.144106811705569-.18931592966419,.109214163601791,.228415206701357,.290659899748789,.431325487437789,.406354104157799,.661211461303537,.02112520305127,.041976068734584,.037832470672583,.092341034993296,.063347194556627,.131599866732358,.099017675296636,.152355881704352-.093853560616481-.232172371484012-.092174939603865-.224521570713478,.026741760655568,.121883308615907,.092730663223847,.246931748836687,.129356622308478,.367244845239838,.033040671914932,.108535739261242,.061738044028971,.218366385097397,.086350499312175,.329107637729976,.010525921366934,.047360318337269,.018421721419145,.095447739812698,.029507266861401,.142651585470958,.07272525476219,.309674586561414-.021670694783097-.39102357365573-.018038491292828-.162687676786845,.003595987049266,.226059175988667,.017049210417099,.449409172869309,.014817048000623,.676185719870773-.003916704428775,.39791759757918,.084931422174122-.376004774107059,.014666262766696-.066405196858796-.028744649776854,.126653543440625-.052934843866751,.25341220349037-.089837835515937,.378158420214277-.025855169977149,.087400356805119-.161263816116843,.429852980490068-.024938308435594,.112294523520177,.142049686735845-.330892436050817-.016050639893365,.024282407683131-.05463335976674,.097273606959789-.048119959104952,.091033849760606-.100301144459081,.179863409612153-.155733101897567,.266619039053694-.031408228544024,.049156493167175-.070383176429459,.095460048656605-.098348607014486,.146362351167227-.091334401706263,.166245655714192,.322229586119647-.376496555662015,.10570359448684-.134230822754034-.138176534541344,.15460240666107-.274661400979312,.306972623747242-.429202020884986,.445841322693013-.060072905995185,.053980929432328-.363814116946742,.296719461476641-.084438403571767,.079396140716199,.280166309172273-.217938316609434-.073393362203205,.041541954215063-.13871925537569,.083034967395179-.175668162102738,.111579054057984-.374785569638334,.187663775690453-.548362413519499,.298947711449728-.169184649534145,.108468003272719,.279299726449608-.127490462297828,.243291966033212-.099812370284781-.035574517827627,.027345071349373-.120410414278012,.047440284822187-.166477184302494,.064230940573907-.111549342262151,.040658083999006-.22468627904891,.07719086729503-.33897891261222,.109354627528774-.099706512883131,.02805899447867-.200353736356192,.052693477784487-.301717438145715,.073971402781353-.057482052539854,.01206643779733-.117226513297283,.01825687519613-.173878334424444,.033122955098406-.193764323974392,.050845954554461,.316302601358984-.06320874456469,.280128092037558-.035045594476287-.120204574081072,.093583562699678-.553310991781473,.033359335734531-.699692842777949,.026581307331071-.08731911043833-.004043202123285-.472117966945007-.048931357069705-.0968012517842,.001322048997281,.373976136324927,.050073907925253-.012777165804437-.00942362256319-.091614669559931-.027647432227241-.098313349035379-.022725779926077-.195607197239951-.049724266205885-.291639465933258-.080673160041442-.041168269379341-.013267544500195-.081639433445162-.028838004991485-.122871019735612-.041824572450423-.28348891204223-.089289503785039,.354019414320646,.184686020318622,.167579256472891,.072437950669155-.17026403824093-.102509083042605-.3543199407668-.219464726902515-.529851545648853-.310912686923984-.165877727993575-.086418510491058,.243937932105837,.15130084685552,.207465306019003,.160774183572357-.010973366508551,.002850203206435-.105985874963153-.092115220139021-.123887540297801-.108724686771893-.080045640077515-.074267693148613-.151316127310565-.155521283129929-.226448615467234-.23434080417519-.202023190646287-.211937226062219,.265363416699984,.394653265501802,.072246067475135,.091382207014249-.050513198271801-.07932581494515-.102057512080137-.157284654625073-.147950518035941-.23946052669271-.04596227717775-.082299908902314-.083465720179447-.16798694452973-.126554713628138-.251558468386975-.09944888303653-.192882080463278,.153152523393146,.433521560557892,.096857570593784,.224206032495204-.017270582864512-.064215369096019-.045740016534182-.127757103628937-.065489964952576-.191297847028181-.0321345289085-.103385174088544-.059707118693041-.2082685306641-.082911697369127-.31400918502095-.008733766320802-.039798790524401-.015409172207001-.080071240544385-.024118030885802-.11984891262091-.073213018078604-.334400124313106,.051802963856971,.193789020467193,.024232758392827,.215651747294032,.033905431455423-.026886458529589-.0266359752477-.583617807270457-.023686428581641-.656222931771481,.003708697657203-.091292149478249,.055558103142175-.550891982665235,.003404145905733-.160723168811273-.051449301423418,.384897215358251,.012746410347972-.032188444767598,.031222859171976-.115013436346089,.047859256157608-.214540279147514,.119916057534283-.41738768885989,.191044827693986-.624627872472047,.070767099254226-.206186422319661-.200902960583335,.412987909255207-.093123121667304,.224479173286454,.033027815350579-.057766199930484,.058420918394404-.121776502846842,.089657460539456-.180593025406779,.050102972265449-.094340871173699,.104197359052705-.186736990056488,.162270740405802-.276392715363727,.021644384363753-.033415360593608,.045528127651778-.065563502438636,.066842267155153-.099145978238994,.181388571230855-.28579513155546-.10372698449828,.170138469528865-.125613356858594,.157920953493885,.003709926426382,.002070972971524,.185268513752817-.206722331807214,.212336151140335-.233703475661969,.074490752316706-.07425272015098,.159082676265825-.137553186428704,.233986009054206-.210694816362775-.408430620285799,.398824460408832-.221242836571037,.165588309950181-.057113034088616,.065953161497418,.07815489702989-.047444002551856,.47651155886706-.231676805125062,.131577009822649-.087048646240873-.343714230208207,.144116489448606,.068239386422647-.01315529067233,.16210869659335-.039497358613517,.943859227278153-.264870423005959,1.622477599206832-1.339567647958575,1.309573915019428-2.306472460805708-.311621548627954-.962942881088566-1.294759960117517-1.593485657652309-2.306472460804798-1.309573915018518h0Z"/>
  <path class="cls-1" d="M219.304940542133409,132.853489307999553c.164543266566398,.085323115989013,.337691405195073,.154990490634191,.512115914834794,.217451360498671,.025941672009139,.009289631387219,.052514878620059,.015928015282952,.079592951682571,.020886669374704,.085594984366253,.015674524493988,.205029511809698,.027882662971933,.263384174082603,.035723800399865,.064697489046011,.008693425393176,.176495107180017,.026622856381437,.263407246864517,.035246965810984,.01262376761224,.001252629996998,.025193737026711,.002278527510498,.037877478725932,.002698212380892,.026915148342596,.000890579514817,.053646401507649-.000749758972233,.080383803166114-.003752027673727,.154079832926072-.017301197243796,.446016830332155-.028556243312778,.637349341981462-.102457530912034,.17200717241758-.06643696572246,.345561417028875-.133138327643792,.510170295641728-.216845928079238,.0249207573288-.012672808505158,.049061169765992-.02686148885914,.072349993353782-.042324720008764,.011059620861488-.007343328149545,.021836630232428-.015036101007354,.032552564320213-.022868273483255,.133687389499755-.09771081864892,.274819447520713-.206868640985704,.403175139441373-.311484719754844,.022023277488188-.017950033209672,.043282822442052-.036717158208376,.063416976239751-.056778963555189,.148363082851574-.147829966868812,.271666800330422-.322673141747146,.389091676419412-.494867126774807,.113920285399217-.167054789169015,.20356975465802-.434711994102145,.261724901847629-.582310846988548,.019617879059297-.049790544520874,.033444646503995-.100118122026288,.04132356453556-.153053129819455,.022794831522333-.153148513465567,.05257248363705-.354275704769861,.068128628709019-.507894221489551,.00079779511907-.007878308044383,.001591167734659-.015746193565974,.002135800645192-.023648206313737,.000977625100859-.014184243879754,.001416252349372-.028403124610122,.001234179388121-.042621311431503-.000182324820344-.014237854750718-.001124326885474-.028382568500092-.002366344440816-.042562128885947-.007600162301969-.086767662592138-.02696522691258-.203114237731825-.0350623866143-.263374247725551-.010967077700116-.081618275565233-.02142130095126-.179631622130728-.036266944141971-.268042597603198-.005070965236882-.030199364037799-.013311103310116-.059498286183043-.023739616872263-.088257888101907-.062809139604724-.173214125034974-.130844928924489-.360445898352737-.225755274970652-.524442458743579-.117826329242234-.218503236764263-.278799904566768-.393859227448047-.482920725969961-.526067972051351-.181092741675457-.165727353384682-.393638586938323-.277596291126429-.637637535788599-.335606813224331-.249224636445433-.078139614102838-.498449272892685-.08930241611688-.747673909339937-.033488406043944-.249529373006226,.01131633231762-.481903961735952,.085484352085587-.697123766189179,.222504059303901l-.379476812087887,.293182319926927c-.23238043582387,.233949959093479-.393113093552529,.509741939704327-.482197973187795,.827375941831633l-.066976812087887,.498449272893595c.001051957819072,.338452600618439,.08638277960199,.653902068164825,.255992465348754,.946348402636431,.011792100058301,.020375690637593,.022195655974429,.041154275885674,.031375042566651,.06283304574572l-.189015653260867-.447899129743746c.015591682818922,.039054859319549,.026150531701205,.079132181833302,.031882734114333,.120786132513786l-.066976812087887-.498449272892685c.005212338284764,.044256419829253,.004811652554054,.088202343142257-.000581471644182,.132426206506352l.066976812087887-.498449272893595c-.007577488669995,.054380990236496-.022379776117305,.106793615223069-.043173750696951,.157571165592344l.189015653259048-.447899129742837c-.026027091649667,.061046216982504-.059860437590032,.117680069584821-.100313401366293,.170249214737851l.293182319926927-.379476812087887c-.041570016906917,.052633714806689-.088810927290979,.099760500249431-.141632224063869,.14109813349387l.379476812087887-.293182319926927c-.049896135071322,.038028370971915-.103442776848169,.069993690286537-.161109001857767,.094774056261485l.447899129741927-.189015653260867c-.047584468209607,.019621628319328-.096572587870469,.033777103455577-.147489936472994,.041489842587907l.498449272894504-.066976812087887c-.047379228748468,.006332529079373-.094439501190209,.006750520019523-.141856843720234,.000553355121156l.498449272894504,.066976812087887c-.041994121382231-.006341934306874-.082273555479333-.01766058872272-.121457944658687-.034029699668281l.447899129741927,.189015653260867c-.012375153581161-.005473356647599-.024498795022737-.011299029450129-.036511329750283-.017528071301967-.215219804453227-.137019707218315-.447594393182953-.211187726986282-.697123766189179-.222504059303901-.249224636447252-.055814010072936-.498449272894504-.044651208058895-.747673909339937,.033488406043944-.243998948850276,.058010522097902-.456544794113142,.169879459839649-.637637535788599,.335606813224331-.204120821403194,.132208744602394-.365094396727727,.307564735287087-.482920725969961,.526067972051351l-.189015653260867,.447899129742837c-.089302416117789,.332299515262093-.089302416117789,.664599030525096,0,.99689854578719l.189015653260867,.447899129742837c.166690049230965,.281749372113154,.39090975990257,.505969082784759,.672659132014815,.672659132015724h0Z"/>
  <path class="cls-1" d="M221.961178599331106,133.406661731666645l-.434108555589773-1.780298084810056c-.058010522097902-.243998948850276-.169879459839649-.456544794112233-.335606813223421-.63763753578678-.132208744604213-.204120821405013-.307564735287087-.365094396728637-.52606797205226-.482920725970871-.215219804453227-.137019707219224-.447594393182953-.211187726987191-.697123766189179-.222504059304811-.249224636447252-.055814010072936-.498449272894504-.044651208058895-.747673909339937,.033488406043944l-.447899129743746,.189015653260867c-.281749372112245,.166690049230056-.505969082783849,.39090975990166-.672659132014815,.672659132014815l-.189015653260867,.447899129742837c-.089302416117789,.332299515262093-.089302416117789,.664599030525096,0,.99689854578719l.434108555589773,1.780298084810056c.058010522097902,.243998948850276,.169879459839649,.456544794112233,.335606813223421,.63763753578678,.132208744604213,.204120821405013,.307564735287087,.365094396728637,.52606797205226,.482920725970871,.215219804453227,.137019707219224,.447594393182953,.211187726987191,.697123766189179,.222504059304811,.249224636447252,.055814010072936,.498449272894504,.044651208058895,.747673909339937-.033488406043944l.447899129743746-.189015653260867c.281749372112245-.166690049230056,.505969082783849-.39090975990166,.672659132014815-.672659132014815l.189015653260867-.447899129742837c.089302416117789-.332299515262093,.089302416117789-.664599030525096,0-.99689854578719h0Z"/>
  <path class="cls-1" d="M223.024825661777868,133.433562898166201c.002157397353585-.025029583252035,.004854971670284-.04993117941649,.008104642945909-.074842480473308l-.066976812087887,.498449272892685c.017117006895205-.117922744159841,.049024758780433-.231851023983836,.094428952557791-.341980512773262l-.189015653260867,.447899129743746c.051850509866199-.121254634451361,.118566496888889-.234180137063049,.198738170538491-.338847998888923l-.293182319926927,.379476812087887c.081654240035277-.103979384786726,.174696080406648-.197001143449597,.278694247652311-.278633468008593l-.379476812087887,.293182319926927c.104684355435893-.080148084404755,.21762406777998-.146839629594069,.338891337802124-.198664259346515l-.447899129743746,.189015653259958c.110142220853959-.045381338908555,.224076500277079-.077263346028303,.342001100629204-.09435436061176l-.498449272892685,.066976812087887c.024912009253967-.00324423776965,.049814193196653-.005936380711319,.074844246404609-.008088318786577,.258149527922797,.009738395587192,.498949140510376-.044089817318309,.722398837764558-.161484638718321,.232452054342502-.075616797354087,.433594179994543-.204846846206237,.60342637695976-.387690146557361,.182843300350214-.169832196964308,.312073349203274-.370974322618167,.387690146557361-.60342637695976,.117394821400012-.223449697254182,.171223034305513-.464249309842671,.161484638718321-.722398837764558l-.066976812087887-.498449272893595c-.089084879635266-.317634002127306-.249817537363924-.593425982738154-.482197973187795-.827375941830724l-.379476812087887-.293182319926927c-.292446334471606-.169609685745854-.607895802017083-.254940507528772-.946348402636431-.255992465348754-.251000168103928,.021579531376119-.511920149123398,.044061167788641-.756524336455186,.113653510136828-.041985592637502,.011945321821258-.083395713185382,.025906039685651-.124075111292768,.041735872543541-.184908871116932,.071954764816837-.371905212899946,.14758303407325-.550867221176304,.233802489987283-.078880439104978,.038002638702892-.154334049690078,.083079407904734-.225430055415927,.134170098446702-.194734382917886,.139939142768526-.400744617101736,.285524991184502-.572752009024043,.457494870499431-.172077217859623,.172039690022757-.31752815019172,.377731240853791-.457537022031829,.572716166057944-.051070024759611,.071123242601061-.096193506613417,.146516367146432-.134219264022249,.225400786085629-.104924045019288,.217664890542437-.208995731398318,.441658635541899-.275587881083993,.674923455516364-.069822801044211,.244581428776655-.092067466821391,.505425248456959-.11370979802814,.756514149616123-.009738395587192,.258149527921887,.044089817318309,.498949140510376,.161484638718321,.722398837764558,.075616797354087,.232452054341593,.204846846207147,.433594179995453,.387690146557361,.60342637695976,.169832196965217,.182843300351124,.370974322617258,.312073349203274,.60342637695976,.387690146557361,.223449697254182,.117394821400012,.464249309841762,.171223034305513,.722398837764558,.161484638718321l.498449272892685-.066976812087887c.317634002129125-.089084879635266,.593425982739063-.249817537363924,.827375941831633-.482197973187795l.293182319926927-.379476812087887c.169609685746764-.292446334471606,.254940507529682-.607895802017083,.255992465348754-.946348402636431h0Z"/>
</svg>