<?xml version="1.0" encoding="UTF-8"?><svg xmlns="http://www.w3.org/2000/svg" viewBox="0 0 1029 1029"><defs><style>.c{fill:#fff;}.d{fill:none;stroke:#fff;stroke-miterlimit:10;stroke-width:5px;}</style></defs><g id="a"/><g id="b"><path class="c" d="M516.73,800.93c-42.77,0-79-17.06-108.68-51.18-7.01-8.41-12.27-16.95-15.78-25.59-3.51-8.65-5.26-15.42-5.26-20.33,0-7.71,3.51-11.57,10.52-11.57,4.67,0,10.87,1.98,18.58,5.96,8.88,4.21,16.59,13.09,23.14,26.64,6.08,11.92,12.5,20.33,19.28,25.24,2.57,1.63,4.67,2.45,6.31,2.45,13.32,0,30.15-6.43,50.48-19.28,32.95-20.33,56.21-45.1,69.76-74.32,3.97-7.48,5.96-14.84,5.96-22.09,0-5.84-.59-9.58-1.75-11.22-5.38-6.78-32.84-10.17-82.38-10.17-27.58,0-67.19,1.99-118.84,5.96-43.71,3.74-81.45,5.61-113.23,5.61-37.63,0-67.08-2.57-88.34-7.71-30.15-6.54-57.26-18.28-81.33-35.23-24.07-16.94-41.49-36.63-52.23-59.07-6.55-12.39-9.82-26.29-9.82-41.72,0-24.54,8.41-52.59,25.24-84.14,32.25-63.1,92.08-128.42,179.49-195.97,60.53-45.57,116.62-78.29,168.27-98.16,39.49-14.49,77.12-21.74,112.88-21.74,51.88,0,93.48,15.9,124.8,47.68,19.63,18.23,32.13,38.45,37.51,60.65,1.87,7.48,2.8,18.7,2.8,33.65s-1.05,27.11-3.16,38.56c-5.61,25.94-15.66,55.27-30.15,87.99-21.74,48.38-48.5,92.78-80.28,133.22-13.79,17.3-22.67,26.29-26.64,26.99-1.17,.23-3.51,.35-7.01,.35-4.21-.7-8.53-2.45-12.97-5.26-6.55-3.97-9.82-7.83-9.82-11.57,0-2.8,6.31-13.09,18.93-30.85,21.5-32.02,38.09-60.06,49.78-84.14,32.95-64.03,49.43-117.91,49.43-161.61,0-14.02-1.4-27.81-4.21-41.37-1.87-7.94-3.45-12.45-4.73-13.5-1.29-1.05-5.55-1.58-12.8-1.58-32.49,0-77.24,15.2-134.27,45.57-43,22.91-85.42,50.48-127.26,82.73-56.33,43-105.4,91.15-147.24,144.43-36.46,45.81-55.51,80.87-57.14,105.17l-.35,6.31c0,2.8,.47,4.56,1.4,5.26,4.91,2.57,19.05,4.91,42.42,7.01,16.36,1.64,39.49,2.45,69.41,2.45,24.77,0,54.1-.58,87.99-1.75,15.66-.47,30.97-.7,45.92-.7,61.23,0,107.97,3.16,140.23,9.47,38.09,8.65,68.07,23.14,89.92,43.47,21.85,20.33,32.78,41.02,32.78,62.05,0,10.52-4.09,23.6-12.27,39.26-5.84,11.45-12.45,21.38-19.81,29.8s-16.89,16.94-28.57,25.59c-11.69,8.64-22.91,15.54-33.65,20.68-15.42,7.24-33.19,11.1-53.29,11.57Z"/><path class="c" d="M802.19,945.68c-45.57-8.18-81.22-28.8-106.92-61.88-25.71-33.07-38.56-78.23-38.56-135.49,0-17.06,1.05-35.41,3.16-55.04,5.61-49.55,15.89-89.75,30.85-120.59,13.09-29.91,30.62-49.55,52.58-58.9,6.54-3.74,12.62-6.08,18.23-7.01,5.61-.93,14.96-1.4,28.05-1.4,14.02,0,25.12,.82,33.3,2.45,8.18,1.64,18.58,5.03,31.2,10.17,44.87,18.23,67.31,42.3,67.31,72.22,0,18.23-3.74,35.29-11.22,51.18-3.98,8.65-8.3,12.97-12.97,12.97-7.95,0-15.07-3.16-21.38-9.47-1.17-47.68-3.04-71.52-5.61-71.52-1.4,0-5.73,2.8-12.97,8.41-29.22,22.44-48.26,68.71-57.14,138.82-1.87,16.83-2.8,35.99-2.8,57.49,0,30.62,2.22,53.29,6.66,68.01,10.52,35.53,16.59,53.29,18.23,53.29,1.87,0,11.33-5.61,28.4-16.83,43.47-35.52,77.71-84.6,102.72-147.24,4.44-10.98,7.3-16.94,8.59-17.88,1.28-.93,3.33-1.4,6.13-1.4,5.14,0,9.7,.82,13.67,2.45,2.8,2.8,4.21,5.14,4.21,7.01-1.4,7.71-8.65,27.23-21.74,58.54-10.99,25.94-22.32,48.15-34.01,66.61-31.79,49.78-62.05,80.28-90.8,91.5-4.21,1.87-9.35,2.92-15.42,3.16l-21.74,.35Z"/><rect class="d" x="2.5" y="2.5" width="1024" height="1024"/></g></svg>