<?xml version="1.0" encoding="UTF-8"?>
<svg xmlns="http://www.w3.org/2000/svg" viewBox="0 0 291.803737019115943 609.837131767013489">
  <defs>
    <style>
      .cls-1 {
        fill: #fff;
      }

      .cls-2 {
        fill: none;
        stroke: #fff;
        stroke-miterlimit: 10;
        stroke-width: 3px;
      }

      .cls-3 {
        fill: #1d1d1b;
      }
    </style>
  </defs>
  <g id="Livello_2" data-name="Livello 2">
    <g>
      <g>
        <path class="cls-2" d="M213.617304061615869,193.444493955948928c-60.283687618246404-2.722271733726302-120.283687618246404-4.722271733726302-179.892177758986691-9.594149188171286"/>
        <path class="cls-2" d="M36.109052844736652,138.161522759332001c0-2.439300537104828,56.17767333984375,6.055023193359375,89.72149658203125,4.721710205078125,6.909652709960938-.274658203125,14.170486450195312,.593475341796875,21.630081176757812,.918212890625,22.357025146484375,.9732666015625,44.676339617493795,2.06629756734219,66.829515961013385,3.657093907095259"/>
        <polyline class="cls-2" points="37.045765234784994 137.986213068094003 2.623266436061385 159.382022706333373 34.600563563776632 184.170463292404747"/>
      </g>
      <path class="cls-1" d="M212.886379896801373,146.853905313372707c1.429315537827279,4.515116655062229,1.775376985047842,9.517258976594348,2.1180396157215,14.208729266752925,.526391105877337,7.206937708314399,.545113188098185,14.538314165242809-.4751610285075,21.704074992919232-.537851256902286,3.77752706586034-1.380293485643051,7.537517602828302-2.839606423483929,11.072734354243948-.210394794494277,.509685882047052,2.547377209015394,.256790696295866,2.860463763739972-.501668167602475,2.678059894358739-6.487657276473328,3.425475041914979-13.725438676821796,3.636801888886112-20.683357756246551,.202145921322881-6.655637856503745-.15265898720827-13.36287587159859-1.082989532462307-19.957309330866337-.312517563750589-2.215208658396477-.642629817513807-4.480615287460751-1.319770805028384-6.619660494508025-.216541202889857-.684039853904324-3.099385706538669,.139589598034945-2.897777478865464,.776457135307282h0Z"/>
    </g>
    <path class="cls-1" d="M129.241362123404542,436.871365896024145c.267835955235569-7.528833928972745,1.433898607212541-14.989439635191957,3.476164605664053-22.240928903393069,.285251741250249-1.012845506893427-2.621350900089055-.605460180251612-2.895904799837808,.369400420218881-2.042268326857084,7.251497535688031-3.208328955790421,14.712103558100353-3.476164605664053,22.240928903393069-.041658784785795,1.171023031847653,2.862116979105849,.580370833931738,2.895904799837808-.369400420218881h0Z"/>
    <path class="cls-1" d="M126.798726628210716,77.89716386386408c3.891991871904793-2.567651948482307,7.694065809131644-5.267128553196926,11.399214408574153-8.097836482227649,.630720015562474-.481865733891937,.008748036479119-1.568024223035536-.630898935090954-1.079338356434164-3.705148536047091,2.830707880596492-7.507222608069242,5.530184580848982-11.399214408574153,8.097836482227649-.668610432304376,.441100324919717-.043182370724935,1.524047964079728,.630898935090954,1.079338356434164h0Z"/>
    <path class="cls-1" d="M127.280490401225507,82.053314302632316c4.556142994043512-4.269275906831353,9.185346760964421-8.459411206903496,13.884091346593777-12.571213843865735,.60652199220749-.530758521023017-.280531564339071-1.411867906826046-.883883476482879-.883883476482879-4.698744567878748,4.111802621428978-9.327948444720278,8.301938023399998-13.884091346593777,12.571213843865735-.588254509212675,.551216414091869,.297002305607748,1.433813021334572,.883883476482879,.883883476482879h0Z"/>
    <path class="cls-1" d="M129.591159403819802,83.330459948038879c4.441428967947104-3.861988018636112,9.22192758453366-7.330167133154646,13.497310227647176-11.383415310342571,.584987766523227-.554593774701061-.299971627455307-1.437457234734211-.883883476482879-.883883476482879-4.275382260342667,4.053247814304086-9.05588153601002,7.521427531967674-13.497310227647176,11.383415310342571-.608142191147635,.528802300517782,.279082769829074,1.409780231698278,.883883476482879,.883883476482879h0Z"/>
    <path class="cls-1" d="M128.514381329637217,88.102614889654433c5.768536542256697-5.124320944871215,11.947655597108678-9.762757443970258,17.716192181819679-14.8870784265564,.602643424356756-.535341728200365-.284008287439065-1.41676611890216-.883883476482879-.883883476482879-5.768536542256697,5.124320944872125-11.947655597107769,9.762757443971168-17.716192181819679,14.8870784265564-.602643424356756,.535341728200365,.284008287439065,1.41676611890216,.883883476482879,.883883476482879h0Z"/>
    <path class="cls-1" d="M132.404595849207908,89.744947719669653c5.103671994682372-4.383845451151501,10.475697665353437-8.482917191699016,15.221301615107222-13.267253425470699,.567127705693565-.571756442436708-.316316277855549-1.456082998871352-.883883476482879-.883883476482879-4.745600411962187,4.784332667104536-10.117631705103122,8.883409764972384-15.221301615107222,13.267253425470699-.611221325291808,.525014113234647,.276335371499044,1.405742443745112,.883883476482879,.883883476482879h0Z"/>
    <path class="cls-1" d="M148.14912143438778,195.239770759624662c-4.060739991792616-1.734755568742912-8.074116627773037-3.576653442987663-12.032295465364768-5.534354359082499-.718680111545837-.355456580029568-1.352747765878121,.722314539345462-.630898935090954,1.079338356434164,3.958178837591731,1.957700916096655,7.971555473572153,3.799598790339587,12.032295465364768,5.534354359082499,.731581778400141,.312533076887121,1.369194680548389-.763937060513854,.630898935090954-1.079338356434164h0Z"/>
    <path class="cls-1" d="M147.774119128693201,198.147024769124982c-4.841722810793726-2.937335039816389-9.728152295433574-5.799755895010094-14.65517564304082-8.59162225471664-.700869277259699-.39714310643285-1.331520410477424,.682335665353094-.630898935090954,1.079338356434164,4.927023326678864,2.791866347846735,9.813452795833655,5.654287192810443,14.65517564304082,8.59162225471664,.689568427826089,.418341483922632,1.318493480323923-.662194370745055,.630898935090954-1.079338356434164h0Z"/>
    <path class="cls-1" d="M145.335121916660682,199.01987229887709c-4.715118779952718-2.653782879498976-9.631872027635836-4.94835473843159-14.246913763161501-7.779837773005056-.68754777445065-.421833641034027-1.316189277160447,.658889725949848-.630898935090954,1.079338356434164,4.615041735525665,2.831483034573466,9.531794983208783,5.12605489350608,14.246913763161501,7.779837773005056,.701900453483177,.395046549938343,1.332722734107847-.684334949484764,.630898935090954-1.079338356434164h0Z"/>
    <path class="cls-1" d="M146.471701287379801,202.281335599762315c-6.153187442137096-3.537975618575729-12.546913205885176-6.636392153037377-18.70010083260695-10.1743678777475-.698587917886471-.401675886547309-1.328869289608519,.67801755806795-.630898935090954,1.079338356434164,6.153187442137096,3.537975618577548,12.546913205885176,6.636392153039196,18.70010083260695,10.1743678777475,.698587917886471,.401675886547309,1.328869289608519-.67801755806795,.630898935090954-1.079338356434164h0Z"/>
    <path class="cls-1" d="M142.3654349390672,203.403765260673026c-5.371950565666339-2.986971818205348-10.912494807957955-5.704816417663096-16.066650896806095-9.067320881258638-.67571207992296-.440825781308376-1.302815750012996,.640988556700904-.630898935090954,1.079338356434164,5.15415608884814,3.362504463595542,10.694700331139757,6.080349063053291,16.066650896806095,9.067320881258638,.703712485354117,.391286058234982,1.334841933575262-.687924125719292,.630898935090954-1.079338356434164h0Z"/>
    <path class="cls-1" d="M131.240808945846766,53.953372998246778c-1.200419727796543,1.774677511757545-2.007358185217527,3.720616073544988-1.658217631280422,5.903157710434243,.171044754810282,1.069232132833349,.747821747042508,1.976918197346095,1.812938890855548,2.331731477322137,.806578361704851,.268688487210966,1.750925249695683,.323642492147883,2.588588372616869,.197122738461076,2.015615852110386-.304436490229818,3.711637009000697-1.508710041788618,4.597553794939813-3.359014031333572,.91177591824453-1.904312736677639,1.207554588057974-4.470010954473764-.161246548919735-6.235065597002176-.74538626129015-.96116772950154-1.85936995002794-1.623647000705205-3.087714561501343-1.683064894945346-1.524147230034032-.073726556925067-2.947133710542403,.607541552666589-3.959204218687773,1.726522269870657-.426686898757907,.471760028723111-.281867962482465,1.126355614829663,.350366633251724,1.307586076572989,.683435612984795,.195907266936956,1.563307965393506-.011997794387753,2.049038105676118-.549038105677027,.075650907702766-.083642301870896,.151858117314077-.165699781723561,.232651303097555-.24440077240979,.164859327503109-.1605901818657-.228550247708881,.145258775812181,.084303034582263-.069319780671321,.06567159959468-.04504257375811,.137210347120345-.091953176439347,.199741222938428-.139985689418609-.202407404300175,.155477372528367-.092396486323196,.044880234813718-.014747784650353,.012493159256337,.04316471751099-.018003893655987,.353028632754103-.095916537527955,.124951179714117-.059083575022669l-.083016451661933,.032207703883614c.165699451282308-.040514429352697,.140550953861748-.040862848112738-.07544549225986-.001045256279212,.048137529477572-.026656467834073,.167235270610036-.012535052916064,.213671645817158-.023151033136855-.263478313047017,.060234687725824-.085826793985689,.00395654469321,.056857133309677,.011612452603003,.312548634177801,.016770238989011-.126666797113103-.064723357759249,.040199082229265,.009016115795021,.083097850447302,.036721657955241,.177977531116085,.05461780926089,.262930395068906,.089012734472817-.17531996265916-.070981915420816,.174918851324946,.10332451636441,.236804056163237,.143967821268234,.314896936344667,.206809563457682,.540027900986388,.446710339765559,.775510832251712,.769079506863818,.9194964372291,1.25876342301035,.652959446832938,3.179877526751625,.0819746610332,4.467114483330988-.145050965927112,.327005147199088-.314515635699536,.650535191160998-.522402360997148,.942502450320717,.119866575954802-.168347043787435-.109802157976446,.12782115234404-.155419598708249,.180024778190273-.056662452669116,.064843301842302-.115250996193026,.127805169160638-.175645502886255,.189169472237154-.030775095958234,.03126927296762-.281097568145015,.240413079389327-.128410878565774,.126322079829151,.167604030211805-.125237578926317-.087473063673315,.061720888027594-.099290362915781,.070436979883198-.050540713670671,.037277341780282-.105062721047034,.070539348582315-.155016471952877,.10859836009422-.245600706508412,.187119484457071,.222284726406542-.095045867870795,.043441957841424-.018501986508454-.068965619546361,.029516967573727-.134465493171774,.071160198738653-.202578354924299,.103160809708243-.054222263386691,.025474565475633-.110037102792376,.047303600705163-.164372156363243,.072429202573403-.229126678707871,.105952701404021,.09812249368315-.0445328152191,.126566956619172-.043609771452793-.051517062578569-.001671766613072-.604679485916677,.134550870145176-.311152350907832,.093837303349574,.279376037251495-.03875074430016-.159071627650519,.015406510535286-.231217860922698,.020740742837916-.057243309018304,.004232363829033-.114466467474813,.005220979204751-.171674919868565,.009066515382983-.293086093681268,.019701165288097,.260604200761918,.031283353876461,.071191648480635-.000797792495177-.124164373895837-.021029944452494-.256953344042813-.01552581478245-.382862624675909-.031387091917168-.056376939468464-.007102020252205-.112214966630745-.017123153725151-.168514570545995-.024457916089887-.253660792661321-.033047153193365,.221567168351612,.079310094431094-.036750278767613-.010877489113227,.011087221124399,.003870933584039-.310199663485946-.109137408698189-.161526950163534-.043085502730719,.144287180977699,.064103513666851-.155006173271431-.102366028402685-.150874820823446-.098905214289516,.085263944365579,.07142519687568-.058090131547033-.069348752800579-.060272529650319-.072238187354742-.056852738108319-.07527144832693-.111110753471621-.148674900291553-.157644199834067-.230619965317601-.080964883344677-.142578578404937,.056150823726966,.200858068270463-.035196891390115-.088050677687534-.021689590998903-.06859845949748-.049642113111986-.13482071667022-.071035355970707-.203725836269768-.056906616808192-.183289521040933-.097970501997224-.371369214401966-.128269329104114-.560786202291638-.286877212621221-1.793449539038193,.52397569482855-3.402150727883054,1.512670985759542-4.863818891250048,.398262236099981-.588783254575901-.344899876618911-1.089611614148453-.858755472131634-1.125754803986638-.746500356680372-.052506782723867-1.472075822252009,.23988412055769-1.893475361214769,.862873120109725h0Z"/>
    <path class="cls-1" d="M133.718122341363596,30.406561137052449c-1.282127773396496,1.819525700405393-2.257391683122478,3.795379390619928-1.846143912842308,6.084865880916368,.172762887308636,.96180046459358,.612555908697686,1.949776911968002,1.321083097357587,2.634061525686775,1.002685907418709,.968378560231031,2.376167259994872,1.22150992722618,3.714755861099547,.928640077187993,1.233661642552761-.269912876858143,2.309930336898105-1.017030284913744,3.241809880607434-1.839775609929347,.85970254941094-.759021118347846,1.634185005430481-1.560222336246625,1.877478110735865-2.723288185458841,.253068376229749-1.209796658801679-.193200409630663-2.421891641437469-.77257327672487-3.465292512706583-.526409301305648-.948018029184823-1.226551663663486-1.80549651907404-2.084879074554919-2.473033408773517-1.182186185841601-.919407768561541-2.690824725556013-1.225793466753203-4.04944418645573-.480845603097805-1.225460612917232,.67193521943318-1.953316059511053,1.909909094732029-2.628792765138314,3.084659623452353-.354644654542426,.616777739276586,.315450263597086,1.160059122600615,.881647332161265,1.211188388697337,.733549751065766,.066241707170775,1.510850147998099-.230273752785251,1.887472912013436-.885274565500367,.182318962750287-.317078732845403,.368947537743225-.649658611083396,.569615900075405-.946405116363167,.11145223443873-.164814526270675,.232018733036966-.325011789193013,.359083781097979-.478122038204674,.047715002851874-.057495401604683,.367734655386812-.379828413992982,.226491857817564-.260223078731542,.06546699651517-.055437885694118,.134335355859548-.10182458786494,.201371134110559-.154452059609866-.194399138372319,.152616042193586-.084760641935645,.046852650235451-.005838420917826,.016440620047433,.010917868935394-.004207111195683-.425825927557526,.122181110943529-.422411518975423,.100513673227397,.003065202365178-.019451415888398,.784152002170231,.488683692685299,.851109609113337,.543532099964068,1.055281322137489,.864435011838395,2.213764762116625,2.559138690968211,2.108664277120624,4.008286049876006-.024374847338549,.336085467599332-.103549878611375,.624296868956662-.282442976289531,.913994022405859,.075889383860158-.122894280252694-.037710066979344,.050224067445924-.046523915199941,.061757840275277-.050845479297095,.066536227187498-.105870332303311,.1309240426217-.161277785085076,.193526486195879-.054352151654712,.061410105252435-.113717655469372,.118103278690796-.168524503939807,.178992691170606-.178866095631747,.198716981169127,.095883069798219-.078900400333623-.069019219578877,.070419687778667-.311576743339174,.282134753525497-.629845781328186,.5584385296861-.967860941879735,.80873155063-.087422757084823,.064734688037788-.176735138480581,.125709041618393-.265222352831188,.188787072251216-.008121968971864,.005789738227577-.230573404254756,.146944722990156-.084936607297095,.060317775706608-.088100828698771,.052403691943255-.18242290512444,.099935210563672-.274308665024364,.144438060559878-.035566151652347,.017225684519872-.393881091954427,.149768300621872-.228123011639582,.101055314614314,.166208075565009-.04884523061537-.116570520188361,.021069303748845-.153378630543557,.030779332172642-.174704544962879,.046087291113508,.027031859171075-.013659739575814,.052295241072898-.012555284000882-.287679647635741-.012576676855133-.099264243566722,.008549978480005-.039447458048016,.01244544387464-.084931548437453-.005531021183742-.188461117997576-.013378061584262-.27305380814596-.035014405156289,.109708451886945,.028060223095963-.115302046851866-.058809564276999-.178015588372546-.094565254295048-.157128144421222-.08958551995147-.256263158517868-.171035715426115-.367641603156699-.290877458368413-.477485046086258-.513767635541626-.723277107881586-1.173059101542094-.856782168156315-1.854731590613483-.158924254201338-.811462065275919-.078609237234559-1.688978859398958,.210983627774112-2.463158335082881,.293492813077137-.784605353240295,.728860403002727-1.481199537102839,1.145846413347499-2.072963305329722,.378612018850617-.537305495657165,.297248010821932-1.154022486678514-.374028539031315-1.395893511145914-.621777378084516-.224035729328534-1.646153649389817-.022713507320077-2.049038105676118,.549038105677027h0Z"/>
    <path class="cls-1" d="M138.935074586600422,180.668298249272993c-.770538154323731,.121673681982429-1.474405228994328,.200210684293779-2.155154546603626-.090773746283958-.670214865307571-.286481507802819-1.199465806052103-.789065338849468-1.414894394713883-1.497007206427952-.23067987406921-.758060672797001-.12771035067999-1.588228890821483,.186574183568155-2.309105162164997,.125355917301931-.287529599481786,.305721268044181-.560317665163893,.496071199992002-.808563792217683,.11301999015177-.147395770240109,.113709013633525-.150500777139314,.267515164906399-.301075329503874,.059147538830985-.057904798404707,.120126934611108-.114368664519134,.18218362852167-.169082793869165,.004405182097798-.00388395977825,.306674337759432-.248412415245184,.126221501287546-.11423775793628,.132485341587198-.098508705395943,.275014055472639-.182653468040371,.416664497150123-.266985711667076,.23267160812884-.138522114788429,.053949040062435-.026769368019814,.002276059031828-.003427586259932,.093011514371028-.042015274255391,.190963317543719-.077393468500304,.282617121489238-.121804773030817,.199466392628892-.096652428215748-.245222696734345,.061149597073381-.030143135234539,.008537110496036,.098896506604433-.024191936650823,.197346600536548-.053828515161513,.296049489246798-.079284217668828-.431792589296492,.111360304057598,.451956919759141-.020025713904033,.091077889695043-.012512083609181,.162831164419003-.003390202999071,.328289879100339-.000452892305475,.49026329955359,.018332171322982-.1989311164225-.02307127718268,.007548040696747,.006816401875767,.039429990493772,.014149275182717,.079655990696665,.018320939958357,.160067800501565,.032163697389478,.239502486023412,.051616330250909,.288279877113382,.070596397210466,.597504013094294,.202362041072774,.927593184746911,.391478635025123,1.178531828150881,.675211259089338,2.083390583774417,2.048527872571867,2.037653545713511,3.435458100851974-.011486170993521,.348306721059998-.080268512331713,.739678812531565-.239131208230901,1.043270730322547-.085178706984152,.162779353971928-.209414079991802,.308562675902067-.257347905412644,.351990015427873-.17168220617441,.155541549051122,.107599071078766-.076382091499909-.075556060686722,.061606374714756-.084925015407862,.049635935300103-.079173095106853,.050877380150268,.017255760902117,.003724334552317-.063902902601512,.031083427567864-.128835559926301,.05979986132661-.194797971976186,.086149301278056-.037404517178402,.015533629479251-.316627197472371,.110859299544245-.145419341817615,.057428514850471,.146130210316187-.045604518407345-.245182673846102,.065362790695872-.295137658734347,.078619321640872-.101095723091021,.02682772469052-.202496000953033,.052331169255922-.304221225438596,.076660645674565-.076192844666366,.018547603222032-.152600530740528,.036172301977786-.229223058223397,.05287409626726-.167539785918052,.035005965271921-.204564031081645,.043142352888026-.111072735491689,.024409162850134,.158430273833801-.03068992882254-.158527535126268,.026425823987665-.18943250346183,.031485999363213-.154672063880753,.025324982070742-.309702852753617,.047834803635851-.465191115152265,.067537853788963-.285111412367769,.036128543533778-.570917764011028,.06121819252985-.857676727312537,.080020973644423-.539377871745273,.035366999320104-1.518395678409433,.381433435115468-1.643508591721911,.995562649070052-.135384415342742,.664547906164444,.871517721223427,.666397266619242,1.256414734891223,.641159574948688,1.331364275674787-.08729753647458,2.68717605646907-.334786806168268,3.938963109376346-.804463793694595,1.141358739975658-.428243712405674,2.150521859221044-1.185722948637704,2.545642116006093-2.374547702220298,.648878857688032-1.952325234780801-.538888070962457-4.009756507672137-2.120840741534266-5.096512488744338-3.626430670124137-2.491253558979224-10.095662357240144,.259205548660248-9.702848915040704,5.005364010698031,.098258296317908,1.187203375535319,.86164699586152,2.158123553594123,1.903762016291694,2.692188785351391,1.311496786398493,.672118548764047,2.882622716821061,.640418835935634,4.300773001069501,.416482401744361,.544437511272918-.085970715705116,1.511509773865328-.347633285848133,1.643508591721911-.995562649070052,.13024278546618-.639309703081381-.867045344892176-.702643885708312-1.256414734891223-.641159574948688h0Z"/>
    <path class="cls-1" d="M135.788106957690616,161.093433487402763c1.295452815109456,.33627621638152,2.572894796997389,.514122830039014,3.894622968477051,.194679158997133,1.252669656216312-.302753169841708,2.35918895082068-.948971075697955,2.991014158035796-2.098001079311871,.874070752422085-1.589574946276116,.650140722285869-3.660190802527723-.301562609537541-5.160116709495924-.524838053939675-.82716763485405-1.206980484073938-1.496939165842377-2.083404831490952-1.943316088181746-1.126976983668101-.573987382937048-2.391930859338572-.597536708664848-3.60064317126762-.271132977533853-2.044128245815955,.552001563778504-3.579036466466277,2.137866393042714-3.980515500708862,4.226977600493228-.439264921359609,2.285731487785597,.341425349415658,4.887552232427879,2.757181548316112,5.644922111939195,.636532095356415,.199560798637322,1.464740061387602-.036650756253948,2.034517781660725-.336495640982321,.294001092569488-.15471774443813,.96533005141373-.679667830846483,.320854485614291-.88171900713678-2.968404740967344-.930632131682614-2.984634833974269-5.622195676268348-.913786276751125-7.45002485184159,.007031993372948-.006206770942299,.242273520962954-.179647565389132,.180456210972807-.139978950122895-.115474714692937,.074100960247961,.092730753278374-.045777593936691,.117293613866423-.06112124507672,.150542070652591-.094038925384666-.111966746000689,.046065377922787-.1456789341064,.057289039248644-.040882287344175,.013610773230539-.374895376520726,.078523240745199-.183229525368006,.047422335827832,.149982542180624-.024337109378394-.027469083241158,.019190627552234-.079294298489913,.005065503381047,.081766384370894,.022285683267,.291193525751623,.038081963940385,.424563536717869,.077262631750273,.708945870843309,.208270003577127,1.332045990624465,.692417321274661,1.819402960431944,1.237281718264967,.90270509776019,1.009223011512404,1.407082166981127,2.48626787385183,1.256263736911933,3.83918141158756-.083009614195362,.744635988822665-.354774376009118,1.533305657418168-.877280043392602,2.082303874153695-.174253592500463,.183088753891752-.000264026143668,.043037679442023,.167314517058003-.00645916931353,.080149138206252-.02367325610885,.198997800083816,.023304726192691,.069032150601743-.020312199024374-.060643549418273-.020352186676973-.075999223404324,.003167066412061-.185918409798433-.004870411764387-.451974497942501-.033049145311452-.888725349574997-.143586742728075-1.325831800478227-.257051703976686-.658337499248773-.170892556461695-1.444405557335813,.025949746358492-2.034517781660725,.336495640982321-.269103012787127,.141615157944216-.985820071642593,.709105918735986-.320854485614291,.88171900713678h0Z"/>
    <path class="cls-3" d="M89.4259202570247,609.837131767013489c.568673516384479,0,1.627596725758849-.200226128958093,1.917158714203651-.774485643463777,.289130571068199-.573403927299296-.245577276640688-.788666779453706-.768433008180182-.788666779453706-.568673516384479,0-1.627596725758849,.200226128958093-1.917158714203651,.774485643463777-.28913057106729,.573403927297477,.245577276639779,.788666779453706,.768433008180182,.788666779453706h0Z"/>
    <path class="cls-1" d="M126.15408702024888,7.156726772796901c.827120039354668,.747953585754658,1.991759258644379,1.083017020143416,3.053688154413067,1.33714693480124,1.522486770991236,.364345894269718,3.111349813812922,.502341122973121,4.674367968880688,.505266107606985,3.218665018448519,.006023311814715,6.412225488554213-.561575574222843,9.475818309615534-1.527926838815802,.235028129346574-.074135090162599,1.177791650173276-.396750696038907,.882308812602787-.755022734443628-.279416580189718-.33879175038237-1.572572881151245,.113459092075573-1.855919260224255,.202835242147557-2.302900241779753,.726405462754883-4.757107816853932,1.032646134709466-7.167451462360077,.966767191558574-2.014542654712386-.05506100396633-4.746704610834058-.260068250859149-6.324584450100701-1.686923879446113-.367567112294637-.332386022058927-1.466998515320483,.065869526057213-1.855919260224255,.202835242147557-.195718679931815,.068925994564779-1.229376317977767,.441174232662888-.882308812602787,.755022734443628h0Z"/>
    <path class="cls-1" d="M131.492395501690226,11.265723509479358c2.235457012423467,.34599045910727,4.543418546060821,.371424687478793,6.789752812544066,.11448990352801,.601010391129421-.068743319861824,1.516328219947354-.408271284509283,1.612851885064629-1.109975035908064,.095433536745077-.693778781219407-.797835159598435-.90129504460856-1.31040851778107-.842667115983204-.54184244852695,.061975715068002-1.085296704123721,.106398938108214-1.630121906294335,.131444806087529-.237139981737528,.01090143527108-.474439396476555,.018355031542342-.711793994017171,.022459991416326-.079323430719342,.001370970557218-.158651567122433,.002367276079895-.237984409210185,.002988916568029,.172144561634923-.000519734088812,.176611916125694-.000915261938644,.013402063474132-.001186583550407-.118986219186809-.001926375823132-.237982592971093-.002308511784577-.356968464354395-.004766267057676-1.046456801202112-.021615463168928-2.090698071378029-.108248653128612-3.125150756040966-.268354956807343-.627484407826159-.097118225552549-1.617336892876665,.239450464207948-1.895315676635619,.85600496945608-.299958779924054,.665305944036845,.267732374785737,1.009172689058687,.851736963250914,1.099561372250719h0Z"/>
    <path class="cls-1" d="M137.557214071212002,13.66924208479486c-.230533449886934-.123355358788103,.027776908254054,.02728172357547,.075931760889944,.061586361814989,.007677420673645,.00546925438266,.222512857890251,.165510998212085,.216438972744982,.173277700905601-.101488808808426-.107211918414578-.123857691873127-.128990596951553-.067106649195011-.065336035611836,.026731799521258,.029549220038461,.052018654082531,.060304926256322,.075860563685637,.092267118653581,.018728365629613,.02480967545398,.118051363882842,.189870540026277,.122472076406666,.18883642536548-.029630914472364,.006931408205674-.10125991491077-.278102454434702-.017985481211326-.011449116508629,.016841656957695,.05392872511311,.026514316021348,.109275197003626,.040280772929691,.163865810795869,.060211881466785,.238769030305775,.012792935980542-.12599631730609,.001748150245476-.033806572265348-.006421326634154,.053598184651491-.000816651740024,.11016625740649-.004970610036253,.164487398194069-.006044201684745,.079039775384445-.017644350608862,.157650868073688-.031932245206008,.235596004074978-.003887078616572,.021205284615462-.09045736864573,.349069942880305-.024448985587696,.124748341082523-.079880478687301,.271464261071742-.160471361336022,.542216009176627-.230083978577568,.816606210852115-.109104621658844,.430054784990716-.143288775599103,.845419952323027-.061498236509578,1.28692740749284,.127943563463305,.690642679929624,.607119128684644,1.259948814639756,1.106846546724228,1.720805885738628,.6189889272855,.570842050631654,1.404090660763359,.971276610534005,2.172929185473549,1.298290988002009,.65119312725983,.276975604472682,1.630459552445245,.031325184889283,2.049038105676118-.549038105676118,.413964130148997-.57396534747204,.257985991655914-1.226966966579312-.404237285022646-1.508634086017082-.204108023563094-.08681440395776-.403982848803025-.180327193315861-.602972904467606-.278147355053989-.31129968094865-.153029683002387,.208553948184999,.130719697445784-.078654351292244-.042141362864641-.084137939159518-.050639808814594-.168637516729177-.100391988785304-.251206606304549-.153635115361794-.141673674655976-.091355608145022-.279530903193518-.188581086294107-.411937586195563-.292934303527545-.0675088058033-.053205479644021-.133506406775268-.108110143897648-.197764726373862-.1652044735647-.146154966085305-.129860535852458-.082687527153212-.01328134891628,.008139114527694,.018744382419754-.097384179861365-.034337937888267-.229420483964532-.26185096808058-.289178298758088-.346741193158778-.040290198736329-.057235092197516-.078518829483983-.116272576937263-.113540523048869-.176887808051106-.102637637414773-.177644296427388,.017055580596207-.095850774337123,.009424204139577,.031045927014929,.004929709121825-.081972607394164-.075929854069727-.245304533029412-.099107396210456-.331980515206851-.058021864089824-.216981681117431-.026159080325669,.132667872596357-.000904026784156-.011730110274584,.017832046471085-.101956289129703,.012531622349343-.210708191189951,.029364723712206-.314255264689564,.014302462149317-.087980109391538,.033322292474622-.174904514854461,.054351276477064-.261493024532683-.05508244351131,.226806330368163,.026415970476592-.077874546625026,.040074255986838-.124120531761946,.079830303638118-.270299740956034,.160387771761634-.541486140703455,.2203181845789-.816998591677475,.076216660980208-.350383688094553,.074876068401863-.713053721596225,.007981491700775-1.065961266495833-.17328048480249-.914154681676337-.932671677947837-1.474281579652597-1.698868674464393-1.884263321800063-.295629583770278-.158187427431585-.803666908372179-.119539232664465-1.10823933577467-.037929296705443-.330542996503937,.088568728977407-.734235159871787,.300564920690704-.940798769901448,.586967402381561-.175472533077482,.243294396987949-.324810518272898,.561175050862403-.22225104408426,.868026557824123,.108490901926416,.324597966312467,.333040868499666,.483587725615507,.626488329106905,.640607528192959h0Z"/>
    <path class="cls-1" d="M135.689687975317611,132.310273929004325c-2.199978130272939-5.558460200822083-3.721893819383695-11.427244071683162-3.325445355507327-17.45255112331597,.095857489720402-1.456862269353223,.222467257714015-3.092977577998681,.78054328541657-4.460040371723153,.172898025051836-.423530926654166,.702334686941867-.770578299678164,1.205604255424987-.65366798163177,.233926081675236,.054341399361874,.638042974168457,.556805157538292,.783658196304714,.720157520414432,.540428215578686,.606256850656791,.996778202623318,1.305813580993345,1.427710120181473,1.991804840388795,.711576114839772,1.132742726371362,1.895770122144313,2.705486899876632,1.386690432322212,4.109183569047673-.099381724986415,.274027424643464-.25257354493715,.51642741726755-.441795992061998,.735801262672794-.452934120117789,.525106302950917-1.674294905963507,.979111977571847-2.29962606582194,.507366277733126-.310435973540734-.234190849574588-.923049099432319-1.519203494332942-.344652156943084-1.803824921698833,.431006558878835-.212092583795311-.234193975923517-.229888468612444-.427944400893466-.134546466508255-.756449496013374,.372238716128777-.548668733617887,1.641168623371414-.004566477965454,2.113654579543436,.660903040272387,.573913086512221,1.711846943309865,.506770285803213,2.472868497737181,.194907073115246,.903639757676501-.370307511399005,1.741547901815466-1.192529215392824,1.881480509512585-2.189988066631486,.217613971172796-1.551182281758884-1.202055570184712-3.338357049883598-2.036338837394396-4.545123072434762-.604197926144479-.873954395136934-1.43128434053142-2.24543163708222-2.635911614146607-2.260264213931805-.839555551829108-.010337448366954-1.389749384594325,.606780733838605-1.684924556579972,1.330133326570831-.59360158846539,1.454672644648781-.71038212518215,3.186842229585636-.800466763875193,4.741710387497733-.106944861401644,1.845876967029653-.034530366602667,3.702165341623186,.175084004225027,5.538405146156947,.462082855668996,4.047885310619677,1.669261470844503,7.935432805390519,3.163588550348322,11.710996518562752,.078680705790248,.198794508767605,.791270388028352-.025271803961914,.724444369716366-.19411428382773h0Z"/>
    <path class="cls-1" d="M134.831159212952116,97.448414571377725c.60475242488701,3.43595058477058,2.162300891106497,6.207222211748558,3.768568024916931,9.239356723912351,.966185538150967,1.82385884247924,1.751081722266463,3.739743177877244,2.428437214684891,5.687869400126147,.662076507383972,1.904182692258473,1.407601220358629,3.991883640051128,.975621995065922,6.028672691069914-.078598720203445,.37059424009658,.664062339307748,.290893455664445,.735903267201138-.047837684121987,.387643220978134-1.8277440718457-.16014377614465-3.699630797178543-.733118821724929-5.426998829805598-.644061526724727-1.941674948829132-1.391054880406955-3.852571723990877-2.295826425720406-5.688454476156039-.701947098971687-1.424329244890941-1.543423982491731-2.773208695548419-2.257940734640215-4.190703975652468-.926668147567398-1.838372188544781-1.540580418958598-3.769853833203342-1.897200150066965-5.79601813320005-.061935180143337-.351889814202877-.787909555519946-.166468383225947-.724444369716366,.19411428382773h0Z"/>
    <path class="cls-1" d="M130.391812137556371,224.70635699401646c.78702800380961,11.112956764542105,.955866322553447,22.275814486707532,.63858454255751,33.410754283757342-.158730432519405,5.570612375191558-.566847120744569,11.132674185782889-.67096931389824,16.704599083421272-.101469193523371,5.429954062739853,.122800386279778,10.863739173029899,.618399528474583,16.271356302049753,.24916465653223,2.718703383228785,.567110126788066,5.430817634729465,.941625115347961,8.135044514248875,.172118510791734,1.242800735786659,.35613026617284,2.483926500290181,.550166574415925,3.72349066597053,.153629442106649,.981432562557529,.140453065906513,2.347499406358111,.635549610031376,3.219173134466473,.120662443174297,.212439943143181,.510919922461653,.061033646681608,.632870366885072-.059747722407337,.679459048868921-.672945429196261,.620444598744143-2.640455192949958,.744787302107397-3.54803235617328,.22835506638603-1.666763209674173,.412722013620623-3.339339683545404,.581318957639269-5.013097143057166,.353344789046787-3.507854071089241,.679589012257566-7.023516326511526,.923526656379181-10.54080891216654,.093371594753989-1.346308066234997,.88482477461821-14.955978303398297-1.350697283649424-14.408724981021805-.447421769827088,.10952835340504-.322111544418476,.573762405027082,.124447714484631,.464445193341817-.037386978977338,.009152291020655,.40444298213697,2.19701967697074,.435125525513286,2.436977661865967,.190174820201719,1.487294129210568,.269081020342128,2.990345151221845,.292006247551399,4.488825788757822,.046547003283194,3.042490376092246-.139983743511948,6.084787062949545-.387241930587152,9.11574251716047-.237686382196443,2.913621769333986-.496184929306764,5.826914052706343-.791989428833404,8.735225699814691-.141432005108982,1.390541213511824-.294357442268847,2.780138483591145-.475265375333947,4.166150564293275-.087773881291469,.672472775399001-.181626048650287,1.344234716925712-.285743118808568,2.014385493708687-.076497761898281,.492378766328329-.049296303807751,1.539984326500417-.410532615697775,1.897757654192901l.632870366885072-.059747722407337c-.482697488012491-.849843780808442-.45513354160903-2.321739031211109-.604792462097066-3.282800648317789-.173752003021036-1.115779670559277-.339271033461046-2.232844158821536-.495357191711264-3.35123388235661-.327221412446306-2.344609343354023-.611852595979144-4.695234362501651-.846243082642104-7.050964900870895-.551349164131352-5.541308786640002-.819434046312381-11.111195187084377-.745201063242348-16.680086715663492,.074464036791142-5.586224970609692,.4915739941016-11.162269239370289,.66233834853756-16.745762634693165,.169324930796392-5.536428465307836,.20687692867341-11.07704741280395,.119637339744258-16.615342788429189-.092608903987639-5.879159576456004-.329386711907318-11.75631807705031-.744776960336822-17.621692433311182-.021678440342839-.306102920210833-.748012241946526-.138667705963599-.724444369716366,.194114283825911h0Z"/>
    <path class="cls-1" d="M135.789276230345422,380.779351566299738c.340651375981906-8.886846852936287,.82914068442642-17.901837514478757-.231890666041181-26.75869236699873-.493017253710605-4.115413040317435-1.330095497970433-8.216359124278824-2.480918752657089-12.197894466449725-.457564174174877-1.583047547372189-1.127685106555873-3.132099828788341-1.431021398607299-4.755178273037018-.420430155131726-2.249619119076669-.229337384977043-4.597141298678252-.005817508998007-6.858681671234081,.546967795820819-5.534137612208724,1.253506358857521-11.056632876307049,1.88506726736523-16.581756335204773,.039041284086125-.341547286518107-.696472283545518-.228899252568226-.730437135292959,.068237566127209-.56534335183278,4.945828301704751-1.136382838846657,9.891043426881879-1.696033908406207,14.837518605096193-.436566449066959,3.858591935961158-.707337976681629,7.508481926424793,.549674292611599,11.229235510782019,2.751780773698556,8.145265107772502,3.718804847694628,16.731090617618975,3.777125494181746,25.290539043717217,.035887137292775,5.266987238983347-.164476332713093,10.532778175991552-.36618481944879,15.794909953328897-.01338851501896,.349276976279725,.719119976601178,.227002269055447,.730437135292959-.068237566127209h0Z"/>
    <path class="cls-1" d="M139.136397625662539,293.071724382711182c.801941574177363,3.753580145412343,1.018969443122842,7.639260435526012,1.176582453587798,11.464708010222239,.184787552675516,4.485004715885225,.166211508690139,8.976750767049452,.063294438088633,13.463583410220963-.203231986127321,8.860220215754453-.646035222508544,17.719465035006579-1.138861838679986,26.567735294558588-.48035327865,8.624322408906664-1.07681435241193,17.240314313639828-1.759802494333599,25.850836675812388-.3493580277418,4.404403130349237-.626380400591188,8.814056716559207-.421435837308309,13.233218295365077,.189420146889461,4.084412984540904,.72386436198849,8.144196108680262,.904115463968992,12.228918314878683,.041368058125954,.937453495705995,.114587116288021,10.803920967013255-1.352261630866451,10.390568820217595-.89092118834742-.251058049809217-1.105296259303941-2.833272011528607-1.174655223291666-3.480038746089122-.109421678216677-1.020348307443783-.116137981638531-2.057663411153044-.065757369204221-3.082047428295482,.02629078640166-.534567963462905-.054783717740065-1.610893196335383,.310346448091877-2.042125408950596,.299182922821274-.353346082732969-.385595968858979-.506348804114168-.612810140655711-.238000474641012-.637907267971059,.75339204577358-.456762750775852,2.463991810953303-.460735728011969,3.362962651586713-.006904697494065,1.562335080232515,.069095135476346,3.252908869975727,.667838772461437,4.715775736316573,.475199224357311,1.161019770870553,1.590815411821495,2.034854668047046,2.42519170797641,.621817824063328,.672036406246661-1.138110235033309,.776402195178889-2.703639699881023,.896268373698149-3.97982454133853,.210880355503832-2.245189730589118,.194672681847806-4.510314834309611,.081868703369764-6.76046595409025-.23345537318437-4.656838140614127-.876917837234032-9.284035689164739-.951353472420124-13.950389024412289-.07612193850855-4.77206731370643,.374645269171197-9.528000227963275,.744370653194892-14.280225434295062,.369822081253915-4.753468093704214,.704325018092277-9.509672938709627,1.006571553717549-14.267911119410201,.620310263579995-9.765484901072341,1.11770276405332-19.540528399098548,1.468748440204763-29.319480811203903,.199220772773515-5.549621000351181,.327937469251083-11.106311142881168,.185915641865904-16.659001258278295-.119369795596867-4.667053623325046-.290438417506266-9.454484155121463-1.268994545737769-14.034729116063318-.076039155507715-.355910048287114-.801604294923891-.167041656464789-.724444369716366,.194114283825911h0Z"/>
    <path class="cls-1" d="M141.916925947407435,255.22815701757645c-1.529450722118781-1.028651686594458-2.154119562772394-3.40225334214847-2.62272011611276-5.088663502454438-.561202323029647-2.01966748182349-.880322560432433-4.102804984473551-1.089302826118001-6.18594050925276-.467840335852088-4.663477770685859-.326867318467521-9.352067454001372-.305452408308156-14.030479221413771,.021460286087859-4.688324826925964-.085662866275925-9.397461900829512-1.056802423034242-14.001490952949098-.860341784994489-4.078753198036793-2.326102611124952-7.98692791621761-4.194858909610957-11.706578699315287-.087890467271791-.174940866116231-.781845524925302,.079860621057378-.724444369716366,.194114283825911,1.901823741613043,3.785469606465995,3.38646127697848,7.768379984019703,4.240676380953118,11.92377806087643,.964527059084503,4.692019454749243,1.037761246279842,9.491980058141053,1.008349806790648,14.264404879208087-.028742287119712,4.663845321541885-.151401000679471,9.340156339982059,.353459138293147,13.985796992536052,.224515648952547,2.065956381566139,.562708757446671,4.132018024245554,1.151800800991623,6.12797104625497,.47634434433985,1.613942921179842,1.082834785136583,3.771847831807463,2.556451601551089,4.762947709481523,.167560822814266,.11269517906112,.780531686040376-.180158527020467,.682843324320856-.24586008679762h0Z"/>
    <path class="cls-1" d="M156.521114663011758,33.960040790376297c3.597826443500708,6.81635766074487,7.195652887000506,13.632715321489741,10.793479330500304,20.449072982235521,.454603573431996,.861281276078444,3.242870550258885-.12265188989295,2.897777478867283-.776457135307282-3.597826443499798-6.81635766074578-7.195652886999596-13.63271532149065-10.793479330500304-20.449072982235521-.454603573431996-.861281276078444-3.242870550258885,.12265188989295-2.897777478867283,.776457135307282h0Z"/>
    <path class="cls-1" d="M151.360536739847703,34.610790566282049c7.250573479842387-4.586769109998386,14.774628097963614-8.726337110639179,22.518186335826613-12.419653138173089,.345216786339734-.164652302055401,.874647669762453-.402962005447989,.380480700421685-.659190944015791-.450448436010447-.233560581340498-1.613196820530902,.201350972685759-2.018883258078858,.394844477341394-7.930897804366396,3.782668261003892-15.646290555492669,7.997556080433242-23.072818424672732,12.695635304042298-.480583650936751,.304020951034545-.359806930541708,.478860420540514,.143996540827175,.537402406481306,.604443912019633,.070236409654171,1.537702727689066-.225563373212026,2.049038105676118-.549038105676118h0Z"/>
    <path class="cls-1" d="M162.353070522449343,46.786631851063248c2.916988758943262-2.509694327146462,5.833977517887433-5.019388654290196,8.750966276829786-7.529082981435749,.465590132459511-.400580533821085,.752565184723608-1.088313644759182,.149430102135739-1.521483515938598-.565641426794173-.406242036074218-1.566724908225297-.272404851504689-2.079466778921415,.168743699456172-2.916988758943262,2.509694327146462-5.833977517887433,5.019388654290196-8.750966276829786,7.529082981435749-.465590132459511,.400580533821085-.752565184723608,1.088313644759182-.149430102135739,1.521483515938598,.565641426794173,.406242036074218,1.566724908225297,.272404851504689,2.079466778921415-.168743699456172h0Z"/>
    <path class="cls-1" d="M176.223376543287486,44.753794281126829c.615544396416226,1.893102762866874,1.339655514149854,3.812181598220377,2.896407235956758,5.144359670074664,1.437971878516692,1.23053315288962,3.417777663478773,1.790723176376559,5.286972456495278,1.73106616611949,2.08569118543528-.066566684707141,4.510401623438156-.819942546150742,5.770149077867245-2.593587537944586,1.103983656137643-1.554339384330888,.827771070264134-3.421407460902628-.001299531913901-5.033098356876508-.611937434221545-1.189589872137731-1.418944231882051-2.27879150233457-2.167529701662716-3.383973317282653-.806296621904039-1.190384264661589-1.612593288889911-2.380768498785983-2.418889955768464-3.571152732984956-.479738770281983-.708267182712007-3.129514227071923,.434330244695047-2.897777478865464,.776457135307282,1.462594641008764,2.159316382175348,3.082507350678497,4.276115530984498,4.366017444479439,6.548496514115868,.966288851950594,1.71075897414994,1.536293863839092,3.928318761459195-.018485388103727,5.495851262417091-.548797218798427,.553298788768188-.952870094561149,.639778617184675-1.709713056308829,.558132235990342-1.029284305153851-.111036691866502-2.036713138013511-.50192330470145-2.895309623505455-1.074648745269769-1.861775206050879-1.241894234535721-2.649533253725167-3.334597609796219-3.312763999802883-5.374359428973548-.216720930679003-.666523804015924-3.095480274152578,.168423482235085-2.897777478867283,.776457135307282h0Z"/>
    <path class="cls-1" d="M181.521592335566311,30.187916137992033c7.277631409291644-1.531031774484291,14.555262818581468-3.062063548968581,21.832894227871293-4.593095323451962,.388763738628768-.081786175080197,1.608682817335648-.300454258648642,1.693080471943176-.810557873461221,.084633855372886-.511531223970451-.911778729609068-.369457374032208-1.169106813400504-.315321976044288-7.277631409291644,1.531031774484291-14.555262818581468,3.062063548968581-21.832894227871293,4.593095323451962-.388763738628768,.081786175080197-1.608682817335648,.300454258648642-1.693080471943176,.810557873461221-.084633855372886,.511531223970451,.911778729609068,.369457374032208,1.169106813400504,.315321976044288h0Z"/>
    <path class="cls-1" d="M187.20188173882525,30.209514078300344c3.054102255318867,4.91728225202769,6.108204510637734,9.834564504056289,9.162306765952962,14.751846756085797,.595888765368727,.959415568039731,3.393053868519928-.045107082523828,2.671518736911821-1.206820607569171-3.054102255315229-4.917282252029509-6.108204510634096-9.834564504057198-9.162306765952962-14.751846756085797-.595888765370546-.959415568039731-3.393053868519928,.045107082524737-2.671518736911821,1.206820607569171h0Z"/>
    <path class="cls-1" d="M201.299041020247387,39.649398110826951c.934934555627478,1.899050287925093,2.047533025584926,3.76313987935464,3.761096980031652,5.06129744359805,1.767756386161636,1.33921253331755,3.975367773637117,2.003485044436275,6.187169709697628,1.991064728048514,2.245814792493547-.012611314699825,4.784745967190247-.70722352105804,6.241139254096197-2.531191406074868,1.174582064923015-1.471031200156176,1.168433738448584-3.507322148624553,.251758877289831-5.099932918771628-1.296732519744182-2.252914598681855-3.694470919650485-3.649825292388414-5.832678917162411-4.993814005580134-.755913528471865-.475135838793904-3.440679217448633,.652431001990408-2.317867675901653,1.35818368864966,2.481419909217948,1.559717461797845,6.856302287118524,4.11058683547617,5.753970130548623,7.703169358017476-.982137883833275,3.200860444063437-5.493914440248773,2.006897885996295-7.497358708023967,.527245869225226-1.663068963111073-1.228266433399767-2.74972552411964-2.964944329772152-3.649452171710436-4.792479892419578-.466963421429682-.948501704828232-3.286913746032951-.013961119911983-2.897777478865464,.776457135307282h0Z"/>
    <path class="cls-1" d="M221.296151539187122,32.152172216614417c3.312865334555681,2.069277480599339,6.433925307597747,4.4167798727849,9.301320537419087,7.070936082953267l2.4871677306528-1.310587605968067c-1.739880650016858-.635237198803225-3.408708927045154-1.459645973322949-4.934542170509303-2.513356458447561-1.351970414203606-.933644228243793-2.89458517296589-2.169985382091909-3.684277910941091-3.641586470650509-.350585157293608-.653319290271611-.542629751374989-1.506948564536287-.011623000405962-2.120822668823166,.406355231545604-.469769835001898,1.034589723651152-.64224479080076,1.621132202441004-.790965348869577,1.79808588765809-.455912992388221,3.916785711746343-.395429362490177,5.809973172277751-.909754377550598,.464858980938516-.126288921386731,1.391287680247842-.537967251980263,1.239899803642402-1.168185894240196-.149898584451876-.62401880843754-1.241793874120049-.504766855649905-1.657877675223062-.391728758932913-1.651047838728118,.448542588742384-3.394225628722779,.424925215045732-5.071429765997891,.749958835493089-1.659076742445905,.321520623643664-3.53265575461046,.950049744139505-4.607647586470193,2.336639234691575-2.14624125827504,2.768351800187702,1.991372235987001,5.943689454809828,3.995202147334567,7.34157112765206,1.5460290834435,1.078517547415686,3.241291861899299,1.920233016899147,5.010006314027123,2.565997549104395,.624448398626555,.22798854136181,1.309469967891346,.155425579720031,1.894808924635072-.165676454478671,.31495207973785-.17277468433258,1.043870225435967-.726977193398852,.592358806017728-1.144911151489396-2.983569134950812-2.761690633239596-6.246254422487254-5.212213529892324-9.693287059075374-7.36529440987033-.574141719114778-.358619626836116-1.536719448657095-.085502858385553-2.057329944705998,.251359489463539-.449815152956944,.291054040733798-.813919370388248,.844087958052114-.233854525118659,1.206407279963059h0Z"/>
    <path class="cls-1" d="M243.082456344827733,30.948334556256668c2.708127526113458-.962528380458934,5.400980955109844-2.008283896599096,7.989838476034492-3.261173871845131,1.894193636726413-.916704067120008,4.008868730528775-2.728053607183028,2.202162950357888-4.856621360881036-1.551276846559631-1.827634531799958-4.422437648889172-1.919416962097785-6.620789487227739-1.791675601879433-2.542564970552121,.147742823563931-5.156006096223791,.716935444955197-7.425639978400795,1.900677593423097-3.649755618575,1.903553516380271-6.906673533472713,6.390805723884114-3.739759342544858,10.214225823375273,2.714078884169794,3.27671137634843,7.753364169882843,4.29769290250988,11.79474293178464,4.117701857129759,5.205169735534582-.231822849893433,10.889305624108601-2.47004230130824,14.048178084405663-6.769658662827169,1.088675238830547-1.481821734841105-1.637197463471239-1.930161484218843-2.425744908232446-.85685082101736-3.962368680564396,5.393274158252098-12.598388191281629,7.112610461284021-18.465565336939108,4.00263739267757-2.642897567657201-1.400902010361278-4.43051935072981-4.183348447901153-2.394668485329021-6.951415963407271,2.111579832231655-2.871033256578812,6.636449818093752-3.814589119139782,9.999974511119945-3.531115361533011,.966839833823542,.081484081643794,2.220139305789417,.297140909722657,2.778658201257713,1.201911086373912,.645047243975569,1.044941386255232-.672504098600257,1.441254210033549-1.44456084086778,1.800938769781169-2.230273211313033,1.039036115103954-4.511416583300161,1.96826874180806-6.829570644629712,2.792191933310278-.555164039278679,.197317570336963-1.377360219221373,.655176639279489-1.182516804827173,1.382342161313318,.177996558497398,.664292199889132,1.168537893019675,.800202386581077,1.715260674038291,.605885026006035h0Z"/>
    <path class="cls-1" d="M35.975172549476156,158.922377166124534c2.959617373494439,7.686882716799118,7.725617220778986,14.511399340443859,13.579035822568585,20.27553452862503,.465334038968649,.45823620191004,3.084908287212784-.478914039909796,2.813415790974432-.884276416549255-2.478395772227486-3.700464706780622-4.600869037169105-7.612855492117887-6.550801481803319-11.613590925568133-.979499658965324-2.009669105951616-1.919177446831782-4.038378494577955-2.853945395841038-6.069139024603828-.754554865223326-1.639252008649237-1.628519233952829-3.364104741567644-1.702199823816045-5.203817656386491-.204781585927776-5.113142132112444,5.827035392971993-4.372372097975131,8.67834512808713-2.319555186765683,3.100109853156937,2.231941993110922,4.892162688662211,6.746981919923201,1.95796736570901,9.879932570558594-3.283763738236303,3.506197988853273-9.124945358855257,3.797286135342802-13.522854183283926,2.894561939649066-.651792719480909-.133788371233095-1.441950185550922,.074125623671534-2.02635673551049,.366953079857922-.23119444686381,.115844152952377-1.009829828612055,.63052991832501-.351978701728513,.765561851252642,5.044350460769238,1.035414192126154,10.65459273070519,.465475908860753,15.262747404744005-1.911226994666322,1.919892078259181-.990203975263285,3.893593169786072-2.401073377372995,4.6836331223858-4.501391684890223,.837547436583009-2.226616778913012,.173936962108201-4.656775494074282-1.228374785023334-6.49353083664937-2.853766059356531-3.737877876802486-7.878298216955045-4.690239050751188-12.170837076565476-3.117678518282446-1.861590627574515,.681988921774064-3.705957166366716,1.928324533500017-4.09619518074669,4.005622994676742-.448081539550913,2.385208663146841,.847998360648489,4.739659402543111,1.811450589252672,6.830451885745788,2.733594903668745,5.932187924867321,5.569143277354669,11.824759431439816,9.21162227527293,17.263303641379025l2.813415790974432-.884276416549255c-5.794034609405571-5.705656992206059-10.481437202446614-12.452858415617811-13.410312446782882-20.059895966141085-.268229517206237-.696660608364255-3.118193525180686,.203980330674312-2.897777478867283,.776457135307282h0Z"/>
    <path class="cls-1" d="M64.747081972336673,160.358762073292382c4.460093578463784,1.25322099940513,8.869798963383801,5.826886991391802,7.072503069188315,10.755670603342878l2.875171641499037-.653800444726585c-1.233582427920737-2.730077269850881-4.354110483897784-4.009991211984925-7.166881522997755-4.297966232210456-3.228903307664041-.330579162826325-6.983448467368362,.277041456240113-9.757738741800495,2.036222791082764-1.01955459142755,.646500989323613-2.076673340782691,1.563366465243234-2.211856053005249,2.840803597584454-.142027812324159,1.34212132826724,.897996236961262,2.465391146190086,1.903859518355603,3.201429348131569,2.568428046231929,1.87944146677728,6.06703960318373,2.519064768799581,9.181694272126151,2.154611752830533,3.10888995672849-.363778473531056,6.991011957962655-1.728680053805874,8.401333844390138-4.787827087095138,.208206182929644-.451622663556918-.996125927877983-.259986658209527-1.146846091342013-.232243830305379-.443871722429321,.081702782985303-1.480564780715213,.275001174857607-1.705719712788778,.763387584451266-2.041403980566429,4.428035181894302-7.993543996669359,3.635809825349497-11.440587678771408,1.506468570538345-1.74202459292701-1.076100326745291-3.281112896808736-3.157220060435066-1.423923112874945-4.913800982232715,1.594257005972395-1.507891904940152,4.180056447643437-1.705036420198667,6.248458849141571-1.434447933362208,2.474894020415377,.323765737064605,5.141725170309655,1.552508740590383,6.220428950699898,3.939819555894246,.272555701441888,.603200976629523,2.688017181266332-.140560616227958,2.875171641499037-.653800444726585,1.934989805232362-5.306386150507024-2.767319355574728-9.968806508191847-7.533609985595831-11.308064396333066-.607779382306944-.170777108487528-1.474731799980873,.126511178114924-2.021692698044717,.384359504648273-.262964803035175,.123966877046769-.980338636208216,.527616123845291-.369766189678558,.699178042487802h0Z"/>
    <path class="cls-1" d="M78.882600744856063,158.872999644683659c-.948655423455421,1.139747773835552-2.471381756308801,1.572673513298469-3.447055480438394,2.684421515120448-.792925037921123,.903511906391032-1.177040128884983,2.274883521812626,.053224806477374,2.999524871645008,1.285722952512515,.757306811759918,3.112074417890653,.406444578818082,4.439880789289418-.033126253971204,1.47771885936163-.489199422166166,2.787881784013734-1.352063412848111,4.283177198995872-1.802725681886841,1.609356469003615-.48503876274026,3.306307035825739-.664951275973181,4.983014398992964-.593432900878724,1.423726577431808,.060727717688678,3.066248533838007,.301802434260935,3.963715377734843,1.542279148967282,1.814068028092152,2.507400872852486-.710377718765812,5.031635973953598-2.935295471854261,5.973975006818364-3.592368032426748,1.521507306359126-7.81941851400461,1.910435744379356-11.680970849740334,1.864130489557283-.675872074193649-.008104623711915-1.489290019944747,.146696867070204-2.049038105677027,.549038105677027-.412536350546361,.296526938598618-.431903972235887,.65059417370685,.176280324947584,.657887129080336,4.012746265191709,.048118275291927,8.040297551076037-.417159776447079,11.910669891448379-1.495627736943788,2.731326257409819-.761076092745498,6.61656257006689-2.035344680311027,7.771941911444628-4.946107563858277,.447583857152495-1.127604096781397,.379912486373541-2.435907354305527-.331586584757133-3.43785537750864-.898248887036061-1.264933059263058-2.452971045205231-1.668551010835472-3.917635084339054-1.836646766201739-3.641158372413884-.417886457690656-7.518614309003169,.304823947639306-10.856274981138085,1.776303276575163-.668094625476442,.29454385203735-1.449924486480995,.911330541530333-2.176598925337203,.989388509546188-.907507377396541,.097482693831807-1.674834087890304-.713768436121427-1.45043687402449-1.592035765904257,.220729920944905-.863913927145404,1.023468951678296-1.361506224350705,1.724764348178724-1.806029848641629,.777336645792275-.492723187412594,1.571193215563653-.979365442845847,2.166194702339453-1.694221019712131,.402261206279036-.48329066910992-.359097354944424-.516550125025788-.690334574848748-.497199458270188-.561762581928633,.032817811118548-1.545927855343507,.227447486254277-1.937636817694511,.698060320790319h0Z"/>
    <path class="cls-1" d="M93.33195653209259,157.992703166783031c5.300824675451622-1.656836828957239,10.662360375884418-3.109581861208426,16.072753471455144-4.36291019402961,.584867668480911-.135485759889889,1.352641165684872-.698835289801536,1.181686489094318-1.385440941816341-.178206613073598-.715731620818588-1.160444133926831-.737700506972942-1.716090989772965-.608983806509059-5.410392717773902,1.253328245303237-10.771928364806627,2.70607323029617-16.072753471455144,4.36291019402961-.573292363347718,.179189458151995-1.360183736759609,.668542044631977-1.181686489094318,1.385440941816341,.170421880450704,.684465781681865,1.170909337845842,.779386922003141,1.716090989772965,.608983806509059h0Z"/>
    <path class="cls-1" d="M95.317296833358341,153.331170953799301c1.44867982283904,6.227240619599797,3.112292448478001,12.401570557777632,4.983873944693187,18.51499397074258,.316644272098529,1.034302011719774,3.208086215045114,.237150178523734,2.897777478867283-.776457135307282-1.871581690418679-6.113424047322951-3.535194265484279-12.287753968544166-4.983873944693187-18.51499397074258-.238596150140438-1.025620440354942-3.144470316775369-.283967422669775-2.897777478867283,.776457135307282h0Z"/>
    <g>
      <g>
        <path class="cls-2" d="M73.661237903330402,33.314568413628876c60.361557006835938-10.110626220703125,120.801101684570312-18.165618896484375,179.926254272460938-28.9149169921875"/>
        <path class="cls-2" d="M260.88198680469759,49.565392388238251c-55.663299560546875,7.730010986328125-31.23114013671875,7.387176513671875-176.141036987304688,28.44769287109375"/>
        <path class="cls-2" d="M260.003226133545468,49.93408857473878l29.142722891663652-28.167193613912787s-33.965852766306853-14.724587339143-36.481685266666318-17.495741149984497"/>
      </g>
      <path class="cls-1" d="M72.787854281714317,32.722292243684933c-4.191930842945112,7.68442452495583-2.141193737405047,16.921190915796615,.131904810948981,24.867723569373993,2.295163788356149,8.023670598306126,5.350705288996323,16.086488683544303,11.815373366478525,21.707205816472197,.630993931340527,.548618793440255,3.26552800907757-.553779883191055,2.719230032460473-1.028759628485204-6.390379761337499-5.556127024615307-9.368842165492424-13.526251494010467-11.636825920071715-21.454903323294275-2.249967211360854-7.865667736888099-4.309887303827963-16.953293872765244-.160380188728595-24.559949477641567,.277940917437263-.509506497713119-1.015307888051211-.402341117618562-1.185567993574296-.37675593680342-.552018984531969,.082952524252505-1.390575333779452,.30803591840413-1.683734107513374,.845438980378276h0Z"/>
    </g>
  </g>
  <g id="Livello_1" data-name="Livello 1">
    <path class="cls-2" d="M147.84249705860384,190.095024956597626c-2.46832275390625,76.38568115234375-5.100311279296875,152.281494140625,.07696533203125,232.3302001953125"/>
    <path class="cls-2" d="M147.833616443369465,67.275200737847626c-1.19366455078125,17.735870361328125-.56695556640625,47.228179931640625,0,76.334442138671875"/>
    <path class="cls-2" d="M125.833616443369465,24.65330839390208s.722222222222626-12.853937621360274,0-16.553789667515957,7.333334069503508-6.599518726386123,11-6.599518726386123c3.666665930497402,0,7.333327443975577,.659951872638885,11,6.599518726386123v12.869062345182101"/>
    <path class="cls-2" d="M125.833616443369465,142.344719780816376c-3.203811645507812-34.63922119140625,1.1297607421875-45.251068115234375,0-71.329803466796875"/>
    <path class="cls-2" d="M125.851484485361652,438.314507378472626c-.70758056640625-116.50482177734375,.883880615234375-233.271484375-.009552001953125-249.199188232421875"/>
    <path class="cls-1" d="M119.336974804332385,453.402120906264827c-1.114571462928325-6.844362376334175-4.687768320224677-12.871873618216341-8.949334514622933-18.23020230248585-2.179102344837702-2.739919097270104-4.541427701678003-5.327519642611151-6.937765724929704-7.877356636503464-2.258558038286537-2.403231423528268-4.536443882640924-5.064713017205577-7.804427037011919-6.047743517312483l-2.07622073559105,1.353806748560601c6.451630414886495,1.463005906291073,12.705880939585768,3.772692325130265,18.563754217383575,6.846783892422536,5.409451774125955,2.838769173367837,11.306451597497471,6.342674416864611,14.05167311706191,12.05435513640623,.403448374002437,.839410693344689,2.947959289641403,.145575071830535,2.897777478867283-.776457135307282-.291946521353566-5.364176606983165,2.545292979601982-10.605549848278315,5.115906780112709-15.135681452453355,2.659418814785568-4.686630570180569,5.795344591974754-9.084549559052903,8.911620702524488-13.473161181480464l-2.774979373734823,.236459930980345c-2.686983437868548,7.582555988614331-5.061042099732731,15.270509590340225-7.117233644804401,23.047856139806754-.192095125427841,.726581317045202,1.33635498170861,.482321518134995,1.605390708636151,.402867557080754,1.76404096690203-.520971857096811,2.994835699382747-1.824349626327603,4.298030866199952-3.057545619758457,1.285123955207382-1.216095449843124,2.543379103448387-2.460238872909031,3.781110963104766-3.724475046938096,2.469754476396702-2.522640849605523,4.887947863789122-5.108488445470357,7.159464886308342-7.812214074265285,1.011727748536941-1.204232332827814,2.407034714297879-2.742509194018567,2.676531889321268-4.103051423397119,.493415026147886-2.490979653593968,1.713507051718807-4.955320721013777,2.588959857334885-7.325212828736767,1.425822566843635-3.859769054937715,2.886611642496973-7.753579986865589,3.808138991382293-11.771070867725939l-2.794266066774071,.748721336029121c1.910092549784167,2.704180691609508,2.100162211555471,6.624713367958975,2.300039705276504,9.824678733821202,.21881883383503,3.50320927402754,.048305550834812,7.023851916537751-.498308096994151,10.490891155746795-1.07984487449994,6.849196991361168-3.585344019351396,13.444197652061121-7.394846411838444,19.240534208256577-.560794760824137,.853275529920211,1.108266963663482,.705600380193573,1.498631417814067,.588676782936091,3.421427698264779-1.024800362807582,6.240419298062079-3.120915990326466,9.462533691803401-4.569765061058206,1.780646729881482-.800681802265899,3.336128895533875-1.419804546521846,4.721449721025238-2.847821884850418,2.149184488862375-2.215423789843044,3.492962901720603-5.348837566800285,6.386932849929508-6.759984449716285,2.436545963411845-1.188099497536314,5.421692779398654-.7728544367219,7.978260899657471-.295102697587936l1.134712378798213-1.403960044202904c-5.495727333753166,.66396907617127-9.798125082037586,4.939765368362714-13.310522009992383,8.867226953123463-3.838881859005596,4.292527678086117-7.067832754994924,9.268184763439422-11.323463435113808,13.17031508420223-.807413553794504,.740344533271127,.289062423757969,.927414460415093,.914325726877905,.854921938525877,9.566597057718354-1.109143529052744,18.735126209339796-4.539122427013353,26.707443501369198-9.932994763001261l-2.581722565990276,.05148855758307c-1.295442863196513,3.452608020525076-4.681263361123456,5.325929763350359-7.259943752625986,7.72255520980616-2.898778025716638,2.694124174113313-4.619980264448714,6.197908954698505-3.982812689529965,10.228301961973557,.129951454279762,.822005785026704,3.046776238245002,.166032064596948,2.897777478867283-.776457135307282-.680421106369067-4.303992508504962,1.506660465163804-7.628212077832359,4.67066200411864-10.273467907152735,2.536807729786233-2.120891963060785,5.349917349441967-4.108607421800116,6.556055623726934-7.323201286155381,.380664976171829-1.014546443695508-2.331333681197066-.117918357553208-2.581722565990276,.05148855758307-7.160548333633415,4.84464957333148-15.389823446033006,7.866645284735569-23.972682020279535,8.861734969288591l.914325726877905,.854921938525877c3.879595820023496-3.5573313615605,6.92030778964272-7.961985358486345,10.32486935723955-11.952222146672284,1.805756805579222-2.116395046197795,3.684336558167161-4.201345647878043,5.824627308244999-5.987374679232744,1.655726355005754-1.38166991466278,3.552597108058762-2.761238022992984,5.749727298533799-3.026685417707995,.532777977567093-.064367840703198,2.638116860503942-1.123015405933984,1.134712378798213-1.403960044202904-4.773264787248081-.891990921498291-10.132849889054341-.709205839542847-13.936939869059643,2.690512244407728-1.283326243912597,1.146909631994276-2.282811178424708,2.524060417643341-3.310288132935057,3.893168617089032-.852469571075744,1.135911685818428-1.775254199053961,2.409873162789154-3.071471782474873,3.071641267384621-1.511225656932766,.771537858609008-3.130747087770033,1.352856694462389-4.634077967992198,2.192573946689663-1.858215073006249,1.037945322404994-3.688225644888917,2.199043236329089-5.741811906599651,2.814141999668209l1.498631417814067,.588676782936091c3.968057570870769-6.037585696358292,6.612141624278593-12.87556035416128,7.671817319033835-20.027098519516585,.520896482425087-3.51542560870439,.674943264791182-7.093143534444607,.437817473390169-10.63951490803629-.222751755823083-3.331398265880125-.496252352274496-7.108463911830768-2.477946602789416-9.914013480369249-.450738336204267-.63812505099304-2.635943359436169,.058497618056208-2.794266066774071,.748721336029121-1.42553944127485,6.214782135943096-4.134475560789724,12.015692354008934-6.097653626659849,18.057679597855895-.151307264316529,.465671747662782-.301712166598918,1.331239339335298-.377916730883044,1.542910260852295-.23388817463092,.649663519774549-.782084363168906,1.236188136595956-1.198976150042654,1.770780764356459-1.894028715417335,2.428768855394082-3.999021862073278,4.703597091165648-6.110469550849302,6.942658851308806-1.385152897347325,1.468870339951536-2.794299424558631,2.915618605840791-4.233860632231881,4.331271274941173-.639048872382773,.628435412856561-1.284444773447831,1.250328563508447-1.940543283587431,1.86096905276645-.454132598172691,.422667858028944-1.433056166668393,1.528621697481867-1.800121567555834,1.637026630907712l1.605390708636151,.402867557080754c2.056191422670054-7.777346086497346,4.430250046984838-15.465299699819298,7.117233644804401-23.047856139806754,.335334891402454-.946301176687484-2.443656889996419-.230137267511964-2.774979373734823,.236459930980345-3.200953495353133,4.507861695887186-6.3968167410776,9.029307304737813-9.125139284168654,13.844779633191138-2.651702592721449,4.680238592345631-5.433088584844882,9.956718437751988-5.131945594423087,15.489869430924955l2.897777478867283-.776457135307282c-2.816561337946951-5.86010963949775-8.672481859536674-9.406943637051882-14.213854564159192-12.356969052299974-6.142141344608717-3.269852802995956-12.701058230760282-5.64717645534256-19.482980505223168-7.185081094245106-.586643809448105-.133030459423026-1.440414023173616,.119120466380991-1.915282126712555,.461747889745311-.268166012201618,.193487473909045-.761959780656071,.711267797430992-.160938608878496,.89205885881529,3.238610050812895,.974194880305731,5.481824134832095,3.749846183194677,7.713673968589319,6.130917246349782,2.299821022552351,2.453586798003016,4.56361569724686,4.945968453761452,6.657797051612761,7.57911117859112,4.195902383645262,5.275765545598915,7.661591761559066,11.19650792657194,8.758350504746886,17.931485922570573,.134226549097548,.824258625943912,3.050815531712942,.163319205541484,2.897777478867283-.776457135307282h0Z"/>
  </g>
</svg>