<?xml version="1.0" encoding="UTF-8"?>
<svg id="Livello_1" data-name="Livello 1" xmlns="http://www.w3.org/2000/svg" viewBox="0 0 417.20515812303438 395.907674136802598">
  <defs>
    <style>
      .cls-1 {
        fill: #fff;
      }
    </style>
  </defs>
  <path class="cls-1" d="M242.060793008954533,267.29544670798623c20.933526449336568,16.760942266532766,40.651711173053627,34.957953093332435,60.30471925065649,53.182845362057378,5.537852246448892,5.135435766021146,11.072737941136438,10.274096017956253,16.630923378876105,15.387542246868179,2.364829444959469,2.175607191016752,5.909782887125402-1.351260884571275,3.535533905931516-3.535533905933335-19.739537556735741-18.160074904052635-39.184463065243108-36.655796674899648-59.543135231830092-54.129208026623019-5.718497236355688-4.908063438860154-11.509780728702026-9.731029942319765-17.392507397702502-14.441179582302539-1.053030243079775-.843134535974968-2.506852831935248-1.028681073995358-3.535533905931516,0-.873619139681978,.873619139681978-1.059535501508435,2.687190774970077,0,3.535533905933335h0Z"/>
  <path class="cls-1" d="M196.606687766482537,168.294152755923278c-15.809014932321588-4.228571098459724-31.66107394487608-8.324059520658921-47.669710392994602-11.734530452647959-16.105795897095049-3.4311697265166-32.38295629689128-6.164671061054833-48.790787792993797-7.643743556186564-9.184406369639873-.827921888927449-18.403606991842025-1.242777897656197-27.625636374392343-1.175252946409273-1.350872860562049,.009891274497932-2.5,1.141937351310844-2.5,2.5,0,1.466055745115227,1.150977039871577,2.362257773900637,2.5,2.5,2.179295907380038,.222517391092879,4.346092734089325,.126031195492033,6.522564604783838-.082427332367843,3.152108014651276-.301903188016695,3.274899290807298-4.912687423665375,0-5-2.175337651310656-.057997000171781-4.348177126379596,.023301860580432-6.522564604783838,.082427332367843-2.891063271278654,.078613164203489-3.300882973901935,3.986457795863316-.664599030524187,4.910697583882211,1.681388439873444,.589468406524247,3.369475405862431,1.158871487124998,5.085713127357849,1.639762625932235,2.18943551031316,.613481525730094,4.767583298281352,1.389583834569748,7.051261677207549,.9108658202058,2.684896960613514-.562823799366925,3.789108842172027-3.725776970014522,1.732824775083827-5.690712677627744-1.674471610422188-1.60008488679432-4.595369413975277-1.684512681998058-6.756773953199627-1.796657899915772-2.150724948248353-.111591103666797-4.297987239022405-.031593683266692-6.448426595925412,.02604454752327-1.235174018147518,.033106371912254-2.307458014171971,.924731348132809-2.455348791941105,2.167700484737907-.158203685239641,1.329645438447187,.604815712069467,2.256263959031457,1.790749761416919,2.742997099144304,15.470351502395715,6.349368895825137,30.121232472563861,14.612104610367169,44.058257254449927,23.819637119262552,14.452913209386679,9.54835557131446,27.851106301146501,20.578162102400711,42.192121034495358,30.286304942052084,7.830214297302518,5.300659700636061,15.865470343112065,10.346198608935083,23.111937322008998,16.448592329296844,1.032069498770397,.86912621648662,2.523393683462928,1.012140222469498,3.535533905933335,0,.892551836138409-.892551836139319,1.037528809328251-2.661810295629948,0-3.535533905933335-6.624328566122131-5.578478610505044-13.846698273813672-10.353393780674196-21.036942989752788-15.157408852040135-7.279824048145201-4.863865671588428-14.354421855037799-10.00312255541121-21.380565166905399-15.224549487033983-13.886664458607811-10.319772964508957-27.890441569756149-20.352889255948867-43.013093961532832-28.81092498050748-8.457296626899733-4.730130346869373-17.173001972683778-8.968061812303858-26.138049337648226-12.64751233286097l-.664599030524187,4.910697583882211c1.978276145972814-.053023739870696,3.952990230372961-.126484174660618,5.932207966860005-.049288017591607,.594288764276826,.023179263173006,1.188427440980377,.057412903812292,1.780666741587993,.112490225559668,.097337963217797,.009052277200681,1.073780478415756,.138094182937493,.51988119339785,.052132260439066,.21731116101455,.033725418476024,.434658962731191,.069601224739927,.650107673288403,.113917581619717,.260522666706493,.053587767794852,.513766318180387,.130156700017324,.772229776972381,.190104452001833,.113837638419682,.03399972360512,.226470045361566,.0716052877724,.337897220827472,.112816692500928-.339864252366169-.152110607080431-.393273944754583-.171729485604374-.160229077165241-.058856635573648,.056291879414857,.07653643248068,.472292571191247,.606028564634471-.071705498250594-.085434866838114-.382685098696129-.486422225337265-.56025754822349-1.030572187622056-.384378571390698-1.648243958891726,.174614937202023-.613232573294226,.599686663749708-.964400308091172,1.164194507065076-1.192676112201298-.202448971089325,.081866358836123-.578186039628235,.039542467855426,.115725713404572,.022320256196508-.502572115921794,.012473348831918-.986218318395913,.01057798103102-1.487956452241633-.04492172881055,.466975707045094,.051654467731169-.044290218193055-.009387934254846-.224230996621372-.042437975769644-.318255322888035-.058454518901272-.635628610925778-.119496452512067-.951895822510778-.188057404050596-.584336868617356-.126673554083936-1.164639739481572-.272055007075323-1.741993796323186-.427310363092147-1.888348463809052-.507792765217346-3.741454286045155-1.130610706362859-5.585921548376064-1.777251989380602l-.664599030524187,4.910697583882211c2.17437489427266-.059125129602762,4.347212747921731-.140424711276864,6.522564604783838-.082427332367843v-5c-2.176309883130671,.208443012985299-4.343099564251133,.304961992830613-6.522564604783838,.082427332367843v5c16.200900104813627-.118625190220882,32.38389148540864,1.265157182959229,48.392273208341066,3.711652842361218,16.007330428936257,2.44633499442989,31.847776561499813,5.877645803308042,47.568661929681184,9.737921440876562,8.959639650780446,2.200046489449051,17.883735860252273,4.541508715012242,26.796001361310118,6.925347839770438,3.111876952076273,.832360080488797,4.439507964985751-3.989454238912003,1.329198061048373-4.821395167764422h0Z"/>
  <path class="cls-1" d="M298.717361842128412,223.538214285677896c13.376697257590422-9.163244593592026,26.513057882000794-19.160977239540443,36.504860040335188-32.074880373551423,2.850206012795752-3.683748314663717,5.424795835084296-7.555777267518351,7.63907192302031-11.655459816391158,.999299273831639-1.850180208487473-.663745204075894-4.332927639889931-2.823275743392514-3.672495454064119-18.087325118540321,5.531503929340033-37.010827436311956,7.355002458626586-55.867211248631065,6.832886357997268-3.218631967787587-.089120988897776-3.216272084062439,4.910944354134699,0,5,19.26649678551621,.533471755484243,38.716699960841652-1.359987487709986,57.196409309679439-7.011491190232846l-2.823275743392514-3.672495454064119c-7.464721863414525,13.820765225412288-19.022386016386008,24.791381303208254-31.45646167164341,34.154920070340268-3.565356408515072,2.684908301620453-7.211853600816539,5.259532047552966-10.89371260633925,7.781662434227655-1.112512711619274,.762088420910914-1.613171746870648,2.195847955124918-.896878842686419,3.420474583052055,.644864557383698,1.102507513009186,2.30126410077537,1.663555340129278,3.420474583050236,.896878842686419h0Z"/>
  <path class="cls-1" d="M180.7197271145169,220.552421487611355c-7.790129675641765,31.882521037822698-13.27722012735012,64.248303902690168-19.757148264213356,96.40698203388547-1.753453051445831,8.702061366826456-3.850601124463537,17.347102115952111-6.906355194801108,25.692807099949277-.901366095431513,2.461760777173367,2.486946892593551,4.040840829605258,4.178464536848878,2.432365983490854,22.049616165267253-20.96711972752837,44.053618565950273-41.982283058055145,66.152574764285418-62.897466972172879,6.195848149975063-5.863955853736115,12.422243560627976-11.696266622730946,18.78665222242671-17.377587606773886,2.4054631433537-2.14728641086549-1.140624374031177-5.673399417327346-3.535533905931516-3.535533905933335-11.32471785281632,10.10924354398594-22.258841506432873,20.653494186315584-33.265485804737182,31.105392384770312-10.971732771007737,10.41874624774573-21.92764134762001,20.854136837275291-32.885014939442954,31.28797818406656-6.261354955890965,5.962193739061149-12.523258953493496,11.923811464231221-18.788726242533812,17.881684010109893l4.178464536848878,2.432365983490854c5.531793066127648-15.108124508626133,8.030664001023069-31.186731806762509,11.054971817633486-46.930652511578046,3.094847969685361-16.111138145584846,6.134498049569629-32.234405604084714,9.521806077755173-48.287420330849272,1.896937468273791-8.989901379078219,3.90588433695757-17.956227347771346,6.086725563625805-26.881716291407429,.763582534404122-3.125100252614175-4.056797552331773-4.45845271719827-4.821395167764422-1.329198061048373h0Z"/>
  <path class="cls-1" d="M224.888319972888894,78.525684284959425c-9.125216529933823,23.363084137247824-17.138003271234993,47.146395730498625-24.519655751344544,71.113182095148659-2.100455134810545,6.819768286325598-4.148421815527399,13.655585079971388-6.157309085361703,20.502862464274585-.907671513734385,3.093791633649744,3.916016498118552,4.415174552605095,4.821395167764422,1.329198061048373,7.075924371223664-24.118235825191732,14.649769623039901-48.100000469051338,23.203550856913353-71.73822373490475,2.408772426073483-6.656600028380126,4.89794665338195-13.283910461702362,7.473413979792895-19.877820824518494,.491362438471697-1.258024064877645-.54021622973778-2.743954683372067-1.746098553358024-3.075296614406398-1.416031821767319-.38908499531135-2.582138605474029,.483477330301866-3.075296614406398,1.746098553358024h0Z"/>
  <path class="cls-1" d="M232.273551691277135,76.831143223935214c1.343518672732898-2.858024742870839,2.228872216373929-5.998629251594139,1.898555348810987-9.183271318491279-.129734739206469-1.250795065540842-.852674790350648-2.278648305826209-2.167700484736997-2.455348791941105-1.303563730243695-.175160337777925-2.290798794567309,.611340507041859-2.742997099145214,1.790749761416919-1.309279692479322,3.414821705962822-2.606669563203468,6.834185376130335-3.891825682951094,10.258159131126376-.460435558532481,1.226714205421558,.511328551816405,2.794055455653506,1.746098553358024,3.075296614407307,1.420915698165118,.323639201586047,2.582312257596641-.432666299171615,3.075296614406398-1.746098553358934,1.285156118812665-3.423973752506754,2.58254598964777-6.843337423013509,3.891825682951094-10.258159131126376l-4.910697583882211-.664599030524187c.067317209961402,.649016867499085,.088693979017989,1.299109189454612,.054677612757587,1.950996316852979-.008052448683884,.154316531094082-.01854001178981,.30850144863598-.032230782029728,.462427012253102-.002920644910773,.032836860617863-.085568403912475,.61913742590059-.017233493957974,.220444209372545,.067466889355273-.393628836913194-.023393781184495,.137286019013118-.037284693948095,.218043914877853-.031465608572034,.182932279808483-.066478156049925,.365302686871473-.104741673199896,.546933402160903-.127759536881058,.606453818097179-.294059439120247,1.205118463100007-.491892295804064,1.792380834404867-.109086149695941,.323819774032017-.236785366963886,.639653114227258-.354583006099347,.960115467306423-.122276434873129,.332646684030806,.251311166337473-.551171948504816-.000535793620656,.002409035950222-.076848249762406,.168918972713072-.153124418979132,.337955787895226-.232084648645468,.505925384948569-.555282588991759,1.181235073865537-.369383175569965,2.751450615852264,.896878842686419,3.420474583051146,1.108985474806104,.585927597308,2.826516579569216,.366629216136971,3.420474583050236-.896878842687329h0Z"/>
  <path class="cls-1" d="M235.373526338945339,75.355473861716746c.223597501790209-2.830194761766506-.357509514722551-5.709388778229368-1.290721714975007-8.372200986796997-.3532004785975-1.007816385412298-1.268229602268548-1.88657225040788-2.410697583882211-1.835400969475813-1.190906297862966,.053340839053817-1.981935605526814,.763300556814102-2.410697583882211,1.835400969475813-.0902948712137,.225778342241938-.181477078116586,.451175155189958-.274340246762222,.675911314546283-.046474827491693,.112406482701772-.093255372124986,.2246855898793-.140341633898061,.336837321532585,.133944795839852-.316887113449411,.146726108072471-.347905555227953,.038343936697856-.093055325332898-.168522611729713,.391385246472964-.337690682252287,.782466742961333-.508369918272365,1.17291949346054-.38468435762843,.880019556048865-.768637867615325,1.760133431538634-1.142061621369066,2.645013447805468-.728559682600462,1.726424463658077-1.403387730901159,3.472429853074573-1.858329525935915,5.293303909124916-.316499434702564,1.26676778368892,.408139671695608,2.770552325370772,1.746098553358024,3.075296614406398,1.294997328488535,.294959019730413,2.736176689835702-.388793774420265,3.075296614406398-1.746098553358024,.221447545853152-.886328966516885,.490692072819002-1.758450752347926,.798480121562534-2.618513389275904,.143338337004025-.400535201410094,.294334646276184-.798311030975128,.450545906103798-1.193993460313322,.089315518107469-.226235811818697,.180486129558631-.451736319428164,.272939737536944-.676706786271097,.046268676382169-.112520603377561,.092858242485818-.22490818397273,.139768698305488-.337162741783686-.122391399700064,.288674720763083-.147304126099698,.347566742373601-.074738179195265,.176676064831554,.767928571165612-1.792924075789415,1.573701163719306-3.569895699712106,2.298102725226272-5.381229848324438h-4.821395167764422c.423208562880973,1.207576291551959,.773863509903094,2.440373747244848,.994637579604387,3.701856135585331,.014253105664466,.081440912876133,.029829746092219,.420892965150415,.075223091196676,.462537168894414l-.03799245945811-.293473459330926c.012007887235086,.092845830368788,.022993641181529,.185810548318841,.032957261839329,.278894153849251,.034299845214264,.309906535088885,.060048943269067,.620628454385951,.076335520709108,.932008690987459,.034230462184496,.654446242798258,.02255673563559,1.3080403522099-.029044111151961,1.961180235763095-.103252097191216,1.306917752990557,1.223625556047409,2.557168967793586,2.5,2.5,1.442758533874439-.064621331575836,2.389395787717149-1.100022541721046,2.5-2.5h0Z"/>
  <path class="cls-1" d="M284.816328355112091,183.926001131796511c-6.623916856851793-15.213206690023071-12.940791044258731-30.55674798570908-19.300340268624495-45.881585077278942-6.430971995574509-15.496947141324199-12.905554032775399-30.979171597076856-19.776871753536398-46.287241243697281-3.825964771212966-8.523566739795569-7.778639424184803-16.99024217576607-11.908332579994749-25.371100775559171-1.281837801496295-2.601380043722202-5.244325022245903-.750817335217107-4.569374296750539,1.926396900707005,.401022763477158,1.590669971539683,1.119703421585655,3.072079949541148,1.994995824839862,4.453146407900022,.662734687612101,1.045685583985687,1.96455305249583,1.531621356724827,3.121875163222285,1.02288927819427,1.050935392151587-.461966933403346,1.893570375876152-1.766007660301511,1.447499133528254-2.949286178900365-.575302932742488-1.526087174815984-1.274606456208858-2.991582086189737-1.994995824839862-4.453146407900931-.483721230300944-.981399396837332-1.812998484836498-1.426538863636779-2.823275743392514-1.148899713700303-1.12121483959163,.308126439870648-1.739966278171778,1.304482095229105-1.835400969475813,2.41069758388312-.203173870324463,2.35505641787131-.049460304946479,6.472813607992975,2.776204573548966,7.178908494430289,2.517098599617384,.628988406720055,4.145236222238964-1.908899167440723,3.756334657491607-4.120624811351263-.272423432481446-1.549301793147606-1.122379574264414-2.958667756690375-1.873862518172245-4.320081553261844-.854250196753128-1.547590684543138-3.510149388579521-1.711566748277619-4.317353425736655,0-1.928257034323906,4.088607675574167-4.673636612544215,7.859250067348512-4.704635537560534,12.562010706028559-.021212143858065,3.218035307669197,4.978764799268902,3.221533201746752,5,0,.024277994269141-3.683146940562438,2.510275380071107-6.833031217732241,4.02198896329719-10.038414965662923h-4.317353425736655c.349677136631726,.633487801706906,.820992159035086,1.434720465977989,1.046795949358057,1.967633329860291-.048195881074207-.113745677048428,.142363789263982,.390523393237345,.166696724543726,.463935075374138,.038957225317063,.117737768558982,.071084065990362,.237237184293008,.09638052201808,.358498247203897,.033823681395006,.156246328338057,.035304212433402,.154806337872287,.004441593109732-.004319971396399-.107068253251782-.45772167987252,.057512623028742-.882776436553286,.493742628845212-1.275164270041387l2.778663319493717,.099564672620545c.180323566559309,.163749360082875,.351675082903967,.791478775843643,.302453521002462,.459103898798276-.024225443899923-.163585400932789-.2151663200857-1.076834173833959-.146354056225391-.546828660917527-.048029203653641-.369930318954175-.070200123072937-.744643733115481-.087278604545645-1.117094018711214-.025312495035905-.552018984893948-.044452846566855-1.115518159832391,.003135115268378-1.66712617297344l-4.658676712868328,1.261797870182818c.528738882336256,1.072733607094051,1.068703903505593,2.13865956072641,1.490954082812095,3.258748728583669l4.569374296750539-1.926396900706095c-.659685193519181-1.040873987320992-1.189033754410048-2.061171822924734-1.490954082812095-3.258748728584578l-4.569374296750539,1.926396900707005c7.339880307868953,14.8956585099113,14.110317344831856,30.062828668035763,20.634155157968053,45.331251759588667,6.551388698953815,15.332903324396284,12.854738545967848,30.770033459129081,19.277881536832865,46.156727068927466,3.635011066189691,8.707699894466714,7.306571277946205,17.400392584295332,11.073507907354724,26.051948268017441,.539092938830436,1.23813937898376,2.353382687151679,1.521028551434938,3.420474583050236,.896878842687329,1.278198744998008-.747627619961349,1.438060523913009-2.177537971487254,.896878842686419-3.420474583051146h0Z"/>
  <path class="cls-1" d="M325.766490903931299,332.948694583416909c4.020622726347938-14.510192816323979,1.210794596241612-29.65793030032637-2.819917133372655-43.832966265209507-4.148508232276072-14.58929770666964-9.048669860238078-28.958698642527452-14.074793885481995-43.264917715279807-2.903932097171491-8.265671230134103-5.904005321441218-16.497067617022367-8.986729341389946-24.697701080121078-.474831699597416-1.263142824291208-1.688742359294338-2.127144193523236-3.075296614406398-1.746098553358934-1.212279496856354,.333152356090977-2.22365482294299,1.804905914646952-1.746098553358024,3.075296614407307,5.322848152689403,14.159790625913047,10.406970880800145,28.413428219289926,15.195896640067076,42.762915717207761,2.37789993498518,7.125114713327093,4.662845995386306,14.281995197614378,6.787414962755065,21.486980790309644,2.046145775253535,6.9390314259972,3.950177401256951,13.944485983049162,4.98022157579544,21.117038888570278,1.136234224139116,7.911990851595874,1.061240573835676,16.035088393301521-1.082092818372985,23.770253542425962-.860518794095697,3.105562116677902,3.961958487860102,4.430854890754745,4.821395167764422,1.329198061048373h0Z"/>
  <path class="cls-1" d="M244.71214693728416,252.799876434832186c13.828856760834242,11.394714376957381,26.832950399701076,23.735299189417674,39.791827011737041,36.096898573747239,3.670660263685932,3.501478794351897,7.339363223840337,7.005018921134251,11.023720090963252,10.49209859855273,2.336363090382292,2.211263605933709,5.87837708740517-1.31813718239755,3.535533905931516-3.535533905933335-13.021960352903989-12.324705489839289-25.844222459729281-24.871086692918652-39.287506290493184-36.741549077974014-3.788600430229053-3.345346231261829-7.627373433359026-6.633372525378036-11.528040812207109-9.847448094325955-1.041219667957193-.857945159548763-2.516231203697316-1.019302702234199-3.535533905931516,0-.884358872744997,.884358872744087-1.047111564672377,2.672733935798533,0,3.535533905933335h0Z"/>
  <path class="cls-1" d="M215.515775563207171,184.195634451747537c-20.933027633374877-5.758643515797303-42.080232196182806-11.148044474845847-63.752922518146988-13.177614145609368-6.126779840798918-.573750944603489-12.277109521654893-.859084888339567-18.430887086929033-.815761623923208-1.350878375047614,.009510330916783-2.5,1.142210045853062-2.5,2.5,0,1.462192632711776,1.150545749076628,2.367086487157394,2.5,2.5,1.441962454575332,.142025040932822,2.868561379227685,.082588342572308,4.308116206957493-.056003865349339,3.150397479302228-.303302475233977,3.276165291148573-4.919505430829304,0-5-1.436971767759132-.035306040164869-2.871830563117328,.015127041148844-4.308116206957493,.056003865349339-2.90620022301664,.082710731056977-3.281485933305703,3.965853278866234-.664599030524187,4.910697583882211,2.721686797577604,.982682999406279,9.754163846717347,3.965455168640801,10.871834447087167-.522897235124219,.775657299946033-3.114892084980966-2.671336347730175-4.099924879071295-4.984785521870435-4.332190645396622-1.73722019352499-.17441350518402-3.481242287446548-.105684340627704-5.222449894692545-.05560970336137-1.102006328343123,.031692123861831-2.113720525531789,.754585800482346-2.410697583882211,1.835400969475813-.266494334410709,.969876665494667,.147450561085861,2.399792630653792,1.148899713700303,2.823275743393424,10.37999912505984,4.389393438735169,20.182981516722066,10.025503142366688,29.494670545220288,16.355083369770909,9.469382032799331,6.43677136307997,18.229138715550107,13.842021542493967,27.61173671742381,20.399113442988892,5.198439321803562,3.632964384214574,10.541804886882346,7.073678581629792,15.349436799412615,11.228814185676129,1.020950120233465,.882385813165456,2.531982143182177,1.003551762749339,3.535533905931516,0,.902366324900868-.902366324900868,1.025930454192348-2.648843694401876,0-3.535533905933335-4.419169274013257-3.819395478864863-9.24446460668878-7.10924122733104-14.051019970998823-10.413064215436862-4.779578951381154-3.285280542131659-9.421199629767216-6.750247803486673-14.028521607054245-10.271622559160278-9.05121770900405-6.917842882634432-18.171152653201716-13.663381749810469-28.042906798191325-19.383612045006885-5.601275324174821-3.245683019501485-11.38193756146029-6.174788466081736-17.345333851380019-8.696531698637045l-1.261797870181908,4.658676712869237c1.190628240554361-.034240763144226,2.379421998786711-.078819933332852,3.570848614625902-.044969995374231,.385280462347509,.010946305524158,.770609379024791,.027606251122052,1.15497860560572,.05684478891726,.20596568804649,.015667579863475,.4118014389569,.033491855647299,.617019036548299,.05712504976691,.413487028643431,.047617842372347-.355192915748376-.066673344877017,.026945948121465,.007313885443182,.25934538866295,.050212759856549,.620938436699362,.210042072587385,.883164408200173,.212818583025182-.35384151179187-.003746557387785-.167159023098975-.054788401225778-.295039140892186-.174327267623084-.647436460719291-.605206046993771-.988764668065414-1.375730920476599-.379412098704961-2.458122973411264,.218357262839163-.387867677732174,.649540574547245-.669027445518623,1.0338658686087-.861143087487108,.230707471284404-.115325518870122,.543802733503981,.031669811378379,.121558742806883-.036127488512648-.163677596989146-.026280774559382-.96859270477762-.105352108645093-.44924338308374-.018190236456576-.736043025358413-.123529357643747-1.46139451765066-.309616110494972-2.178614094376826-.514159882875902-1.162635631746525-.331571928234553-2.304759560425737-.727340889906372-3.441473476935244-1.137758959293933l-.664599030524187,4.910697583882211c1.436376031502732-.040879396641685,2.871099941236935-.091310998818699,4.308116206957493-.056003865349339v-5c-1.440172478674867,.138651671865773-2.866173807075029,.198026931009736-4.308116206957493,.056003865349339v5c21.418615493767902-.15078938629631,42.520749806762979,3.894419372030825,63.208685552304814,9.122745555027905,5.901055376463773,1.491334984387322,11.777505766405739,3.077632057503251,17.645925991722834,4.692025382270913,3.106909113093934,.854705890214973,4.432684374778546-3.967630884360005,1.329198061048373-4.821395167766241h0Z"/>
  <path class="cls-1" d="M283.162037829200017,223.195073132416837c11.516475510868986-8.119216337357102,22.780852859808874-17.316818135142967,29.461307367559129-29.999354111868342,.969873782245486-1.841260818695446-.647681199976432-4.35481860001164-2.823275743392514-3.672495454065938-11.872132926551785,3.723410279753807-24.270952129811121,4.960307813064901-36.674334782952428,4.613862382405387-3.218622180218517-.089901035752519-3.216195044373308,4.910166757860679,0,5,12.811372922495138,.357841222317802,25.741761521105218-.946856179612041,38.003532844000802-4.792467214639146l-2.823275743392514-3.672495454065938c-6.278769637192454,11.919955703742744-16.837185759806744,20.570094782340675-27.667549682186291,28.205596426495504-1.102025615011371,.776937733175146-1.619693256860046,2.184698305673919-.896878842686419,3.420474583051146,.637562272286232,1.090022993447747,2.311345010437435,1.678824928337235,3.420474583050236,.896878842687329h0Z"/>
  <path class="cls-1" d="M203.97844893106685,220.26137790818666c-5.137220062442793,21.643624951661877-8.763602610975795,43.595368366600269-13.032917514290602,65.416808805481196-1.161672600779639,5.937573133265687-2.552438737455304,11.833777029252815-4.578172347773943,17.541840387773846-.86605871986194,2.440359393744984,2.486001534375646,4.087905775297259,4.178464536848878,2.432365983490854,14.643108982155354-14.323651128733218,29.253725519479303-28.68061266703171,43.932678099824443-42.967582269354352,4.011825243427666-3.904694492945964,8.04623871010881-7.786345578764667,12.169190192798851-11.573954116795903,2.374791291178553-2.181636094498572-1.168279419580358-5.710246206535885-3.535533905931516-3.535533905933335-14.940859093247127,13.725634585969601-29.215258964431996,28.211787238118632-43.707416267956432,42.407204627133069-4.130429016082417,4.045854778619287-8.261254431777161,8.091305073984586-12.394452024668681,12.134331759017186l4.178464536848878,2.432365983490854c3.641845953141456-10.261905779027074,5.293866349280506-21.135322807840566,7.286298853543485-31.803530417229922,2.034068559736625-10.891142179509188,4.031149533680946-21.790130088930709,6.254163646592133-32.644791843581515,1.267584212087968-6.18943343086903,2.611550261817683-12.363088319625604,4.070627361928928-18.510326932443604,.742570960201192-3.128526161467562-4.077422582769941-4.463629408789529-4.821395167764422-1.329198061048373h0Z"/>
  <path class="cls-1" d="M274.284981141997378,195.184730171291449c-8.76594204124558-20.711415040655083-16.716927684981783-41.759552308806633-25.703921827498561-62.378745805853214-2.559136812616998-5.871522367546277-5.20555839712506-11.704768398413762-7.971735575709317-17.481781778794357-.471750647519002-.985226045542731-1.821956374538786-1.424077102907177-2.823275743392514-1.148899713700303-1.109259381404627,.304840902934302-1.758218459093769,1.305506799537397-1.835400969475813,2.410697583882211-.063672018331999,.911731524842253,.502622254000016,1.903445020534491,.86851961373759,2.690858653253599,.375478540392578,.808032399334479,.731509560580889,1.58662850231849,1.520749897430505,2.087774449095377,1.703487802222298,1.081667988330082,3.63645674117106-.36389367209631,3.761797870181908-2.158676712869237,.08555975494528-1.225146114134077-1.003951472588597-2.833059022302223-1.492390668481676-3.881754259661648-.883289314739159-1.896451606196024-4.190044667700931-1.459557747367398-4.569374296750539,.597198839657722-.419260930320888,2.273267401432349-.03222748322878,6.337710386342224,3.050958356914634,6.348957333486396,1.926406652582955,.007027209816442,3.125363365594239-1.760725629707849,2.860335988743827-3.55151807490256-.179655644567902-1.213934857784807-.7929811904487-2.310832573600237-1.341920048907923-3.394638098241558-.787913738169664-1.55562910005483-3.580195551561701-1.712457362559689-4.317353425736655,0-.887012428775051,2.060577547292269-1.999712914474003,4.034119397231734-2.651245892218867,6.190978434729914-.687059675361525,2.274467940562317-.888456553699143,5.828111514183547,1.79196799931924,6.916394325152396,2.522987414178715,1.024361544536077,4.705138057264776-1.40737314366379,5.583769730550557-3.519445614309916,1.186082603620889-2.851129194621535,.790735001615758-6.128597009264922-.155117540900392-8.990728305914672-.813334608852529-2.461134620893972-3.938628091340433-2.272208162106836-4.821395167764422,0-1.176618548794067,3.028570436817972-2.548699912726079,5.817577224616798-2.926828000694513,9.085915876846229-.12391719887637,1.071074547627177,.864839680703881,2.144015134600522,1.835400969475813,2.41069758388312,1.133663464888741,.311498256705818,2.172782904259293-.238274015392562,2.823275743392514-1.148899713700303,1.982668965387347-2.775540640114741,3.486314274607139-6.206430432780508,3.178848871708396-9.683114716504861-.251159778948931-2.840004917456099-3.907784718257972-3.356408695287428-4.910697583882211-.664599030524187-6.674803952868388,17.915117460922374-12.876900898951135,36.007413465217724-18.477583585079628,54.287687744330469-1.609054867496525,5.251853382234003-3.166388515244762,10.51937891601483-4.672774628315892,15.801591039830782-.884027345096911,3.099882506574431,3.939037692754937,4.42322509143014,4.821395167764422,1.329198061048373,5.255346751109755-18.428114865566386,11.149863245145752-36.671083839711173,17.559857410145923-54.729231290699317,1.822666648657105-5.134791428542485,3.688182861054884-10.254242195946063,5.590500803249597-15.360047493461934l-4.910697583882211-.664599030524187c.236931471092248,2.67911743599052-.976973837839978,5.032749250649431-2.496202297445052,7.159518976139225l4.658676712868328,1.261797870182818c.313507776685583-2.709794952880657,1.774435681118121-5.250226651834055,2.748223168458935-7.756717815797856h-4.821395167764422c.508786916843746,1.539579260582286,.932941838293118,3.226722552116371,.635252783014948,4.855060817524645-.104805333368859,.573277827040329-.247821779241349,.989852875743964-.582894801666043,1.461877309293413,.151639301800969-.213617482597328-.299693896222379,.31768159456351-.319713471413706,.356305372142742,.70883812813554-.550143812800343,1.526701912378485-.294438488248488,2.453591352728836,.767115973656473-.061098395955923-.269972391758529-.079707950493685-.32798834109235-.055828663615102-.174047848002374-.072150177047661,.341127385773689,.023773817192705-.693116886030111,.003039865561732-.454970781314842,.0118946362727-.136619460957263,.128627815849541-.647012245571204,.196521974814459-.898025669807794,.178464614155018-.659806595849659,.41384346603445-1.310693720208292,.679519308214367-1.940272460013148,.481956090503445-1.142103495782067,1.069739320564622-2.237206911247085,1.559885949111049-3.375843873821395h-4.317353425736655c.177812255957178,.351066247882954,.369180216586756,.69638349179786,.531490385023062,1.055086159076382,.174987233869615,.386718762803866-.097811660300067,.009945512994818,.146181666019402,.371470485070859l.068097657034741,.228525981678104c-.056006482865996-.384667529570834,.011431653056206-.758298926329189,.202314407768426-1.120894190274157l.896878842686419-.896878842686419,.899137371972756-.217373543166104,1.261797870181908,.341323287130763c.372725369892578,.230326923635403,.622916273232477,.541949511449275,.750572710025153,.934867763441616-.04007474973514-.129861421492024-.072667041347813-.261581938395466-.097776874839838-.395161550710327-.005054314826339-.543320142233824-.001605755112905,.378617975660745-.020687923293735-.237620105395763-.011057065634304-.357076032663826,.123281348682212-1.701113316696137-.068631815827757-.660544283822674l-4.569374296750539,.597198839657722c.281786514256964,.60500504042011,.558280675351853,1.212140869600262,.833391117985229,1.820176678610551,.113025260661743,.249802970574819,.074788487854676,.540636808217641-.003327274724143-.01455807136881,.055801313505071,.396598618636745-.048045489766082-.050450027187253-.020319749042756-.447460087943909l3.761797870181908-2.158676712869237-.011791299488323-.007487151467103,.896878842686419,.896878842687329c-.24447319308274-.325625784993463-.405427147943556-.742626570770881-.577277040822082-1.1086858667868-.058280801034925-.124144558029002-.11253341844531-.25027681897609-.171414764095971-.374090556585543-.200926227626042-.42250099672674-.076314777246807,.013234724064205,.040020830938374,.098940545250116-.286625137925512-.21116013576102-.016573608178078-1.007957967881339-.08928182075033,.033164510291499l-4.658676712868328,1.261797870181908c9.678551584318484,20.213138347834501,17.807821886752208,41.105496583147215,26.230198283186837,61.859169541159645,2.441854863813205,6.01700219381928,4.914433621015633,12.021268357552799,7.445459120021042,18.001358043489745,.526385885019408,1.24369936338735,2.361862705609383,1.516068527774223,3.420474583050236,.896878842686419,1.28765886108522-.753160909759572,1.425350086130493-2.17184811387142,.896878842686419-3.420474583052055h0Z"/>
  <path class="cls-1" d="M301.417889268083854,297.053233031074342c2.667778747671036-9.995446632809035,.853972636143226-20.364728892874155-1.84561284323172-30.145797609419787-2.748135885713054-9.956975300803606-6.003810949065155-19.770188906988551-9.342176099607968-29.542133863704294-1.908501337560665-5.586497935202715-3.880944231626927-11.150786924180466-5.906752764505654-16.695796261994474-.463091204457669-1.267565523251506-1.69739375122299-2.124766662919683-3.075296614406398-1.746098553358934-1.221912231509123,.335799574207158-2.211707404390836,1.80083983093391-1.746098553358024,3.075296614407307,3.494373201096096,9.564740060784061,6.83265346735061,19.188826310939476,9.978222886998992,28.874086831381646,3.049502331481563,9.389468359398961,6.362460120866672,18.985050463134939,7.781721840729006,28.786205867540048,.773813058136511,5.343807932391428,.731785318290349,10.83015146798698-.665403020382655,16.065038914100114-.830655600251703,3.112242246404094,3.991120014556145,4.440014875106499,4.821395167764422,1.329198061048373h0Z"/>
  <path class="cls-1" d="M244.870236620524338,236.012327368996921c11.174826894162834,7.412224712199531,21.692226203655082,15.738991682852429,32.353883744654013,23.856127001803543,1.075104856727194,.818519219039445,2.797387647771757,.168411675110292,3.420474583050236-.896878842686419,.751503517456513-1.284844097842324,.180870231533845-2.599942218203978-.896878842686419-3.420474583052055-10.66165739886128-8.117135210735796-21.179057013170677-16.443902397509191-32.353883744654013-23.856127001803543-2.6891225598647-1.78368585761018-5.195891955727348,2.544828425267951-2.523595740363817,4.317353425738474h0Z"/>
  <path class="cls-1" d="M226.658865553984469,200.40239700345046c-12.365513047830973-3.391917146939704-24.975156634831364-6.491153932874113-37.880793022575745-6.422800695453589-3.253976650973527,.017234317774637-3.174548742151273,4.757091264487826,0,5,.664218171864377,.050824356259,1.303591696130752,.032336413444682,1.966796382942448-.025510537509945,3.158841789493636-.275524841279548,3.268832241193195-4.949877870758428,0-5-.656464184399738-.010065791164379-1.310630401380877,.006277608593336-1.966796382942448,.025510537509945-2.905151552035022,.085153108913801-3.282815239756019,3.965441533711783-.664599030524187,4.91069758388312,2.157738171792516,.779009408916863,6.224884259943792,1.925446537636162,6.679323120661138-1.521212900835053,.450078927613504-3.413591833844293-3.718683314199552-3.462180672950126-6.014724090136951-3.389484683048067-1.102444854162059,.034905007273665-2.113105180307684,.752346319573007-2.410697583882211,1.835400969475813-.266729591344301,.970732857093935,.147791928880906,2.398569285554913,1.148899713700303,2.823275743393424,6.02825470798598,2.55740564882035,11.632753036996291,5.995355821939484,16.886014609423,9.888010468529501,2.626905749044454,1.946531070113451,5.187544022854127,3.981556587205887,7.837821971950689,5.896716494264183,2.696592897051232,1.94862829532849,5.547284957889133,3.69240818265007,8.079655662468213,5.859355189400048,1.02524733239261,.877303087612745,2.528677688565949,1.006856217366476,3.535533905931516,0,.898591332457727-.898591332457727,1.030406902387767-2.653815779583965,0-3.535533905933335-2.623955687895432-2.245316182757961-5.521286659048201-4.104369373618283-8.33264736574165-6.097498588197595-2.794569142424734-1.981224745251893-5.476878486682836-4.113915342435575-8.222095188568346-6.161700936354464-5.366681105100724-4.003258557560002-11.086454188449352-7.547366896846142-17.260687855099604-10.166702147446813l-1.261797870181908,4.658676712869237c.451258747436441-.014287508171037,.902226980721025-.031115556334044,1.353834467256092-.025373338819008,.292527208134743,.003719501797605,.586788297056046,.00838314613793,.878197383128281,.036630810325732-.266857328908372-.047572869153555-.262422034180418-.046032583464694,.013305884183865,.004620857065674,.611316194940628,.184262856611895,.325310029790671-.083119047706532-.858018495450779-.802145712954371l-.341323287130763-1.261797870182818,.070943858744613-.462720334566256,.642930630916453-1.103167922442481c1.374661107371139-.387795279013517,1.734787886580307-.586635273757565,1.080380337627503-.596519984234874,.302450604983278,.037967607722749,.296572901799664,.028093408976929-.017633109550843-.029622596237459-.290579050436463-.071696201249324-.578598510461234-.148385264227727-.865176297595099-.234841055700599-.435563599385205-.131402353610611-.865017322539643-.281302532216614-1.292842341605137-.435760436136661l-.664599030524187,4.91069758388312c.656165981561571-.019232928917518,1.310332198541801-.035576328674324,1.966796382942448-.025510537509945v-5c-.663204686811696,.057846950954627-1.302578211078071,.076334893768944-1.966796382942448,.025510537509945v5c12.473204925199752-.066062913290807,24.60173552375818,2.966294414754884,36.551594961527371,6.244195863219829,3.107440540357857,.852385243633762,4.433408451970536-3.969895968990386,1.329198061048373-4.821395167766241h0Z"/>
  <path class="cls-1" d="M269.945692513266295,220.652873769300641c7.203241056869956-4.088410097560882,14.44207662912595-8.757931825757623,19.083639635764484-15.798945601514788,1.245217551018868-1.888931361698269-.807138798349115-4.178680123392951-2.823275743392514-3.672495454065938-7.561671803397985,1.898483310262236-15.329719109826328,2.48852668078689-23.108824510682098,2.318976438416939-3.218753631505024-.070154655352781-3.218029179013683,4.929861134521161,0,5,8.206609530756396,.17886794988226,16.462050613723477-.495081024794672,24.438022571730471-2.497581270650699l-2.823275743392514-3.672495454065938c-4.14264736468067,6.284184254546744-10.881199274770552,10.367752662175008-17.289881950391646,14.005187916141949-2.798273589354721,1.588242002195329-.281627379326892,5.90953983709278,2.523595740363817,4.317353425738474h0Z"/>
  <path class="cls-1" d="M218.195841249501427,217.773057183258061c-2.077342696074993,7.053101136416444-3.790591772532935,14.203533038746173-5.453867880449252,21.363513748004152-.821241906880459,3.535237584975221-1.632615285196152,7.072810938088878-2.476007782739543,10.602859544451348-.802561946162314,3.359150914689963-1.641588724265603,6.741971028961416-3.030954384481447,9.915815516716066-1.159928615383251,2.649722205990656,1.647211652674741,4.822673563270655,3.926443665834086,3.029564823148576,11.702671917053522-9.206681538384146,23.241065125905152-18.682570629079237,35.213676342445979-27.537354377001975,1.083896931913841-.80163573038044,1.630664829695888-2.165940503987258,.896878842686419-3.420474583051146-.625258294676314-1.068987215317065-2.328721366431637-1.704324976568387-3.420474583050236-.896878842687329-12.315466381040096,9.108354859819883-24.187883163307561,18.848895679930138-36.225614508013678,28.319173896807115l3.926443665834086,3.029564823148576c2.952014020382194-6.743533178226244,4.245221069542822-14.104332827470898,5.901572035334539-21.24172454296513,1.698131949662638-7.317430399509249,3.440355099925-14.626930686484229,5.56329975436347-21.83486194552188,.910953387512563-3.09291595691866-3.91282363825303-4.41402701075458-4.821395167764422-1.329198061048373h0Z"/>
  <path class="cls-1" d="M264.619578750506662,204.641035160630054c-7.164314923735219-13.62263788540622-13.566709195676594-27.651453595945895-21.441042491309418-40.892979117892537-1.233699682819861-2.074596695765649-4.744755380808783-1.267613058168536-4.658676712868328,1.261797870182818,.039597757600859,1.163575171495722,.932255055420683,2.900363625936734,1.972094086833749,3.498943528789823,1.883590922825533,1.084282891429211,4.255896272970858-.70932226205241,3.672495454064119-2.823275743393424-.187270123380586-.678573489170049-.638897327713494-1.336616976868754-.985912828029541-1.937465655579217-1.006006756917486-1.741875593796976-4.175867515450591-1.582401473493519-4.569374296750539,.597198839658631-.362470125674008,2.007690939445638,.325607704191498,4.817897722822636,2.865576345840964,4.794764977204977,1.481662691248857-.013494232001904,2.717117097938171-1.272798191725087,2.718477244887254-2.745129871664176,.00090203036234-.976429700940571-.505974822099233-1.848602035831391-1.014679293977679-2.646833945199432-.973346232340191-1.527322963467668-3.387045290175593-1.711507988922676-4.317353425736655,0-.675398276864144,1.242544811089829-1.516189178046261,2.434715113481616-1.898397704298986,3.815266300950498-.4930959352223,1.781080567679965-.003063900065172,4.186244372761394,2.040626968917422,4.73710873320033,1.804260985749352,.486327501417691,3.503895706455296-.736662649291247,4.354116268545113-2.258554057600122,.968023643712513-1.7327584536215,.781026308888613-3.914345034437247,.07302876358699-5.696622136892074-.373937067661245-.941330203580947-1.01068387747182-1.663711142746251-2.078398068619208-1.790749761416919-.929722187658626-.110620073655809-2.048940529362881,.293153607812201-2.490976228131331,1.193550921758288-.78233215293767,1.593558554391166-1.765129417655771,3.130675622740455-2.058652465480918,4.909375885781628-.183356179559269,1.111107584997626,.121947644252941,2.222612912981276,1.148899713700303,2.823275743393424,.911363265584441,.533055100550882,2.307510583706971,.437312343830854,3.029564823147666-.39090975990257,1.474412082290655-1.691203527190737,2.729737435714924-3.744909916087636,2.538864641501277-6.079943999089664-.090633416144556-1.108759981358162-.713740226654409-2.102497331492486-1.835400969475813-2.41069758388312-.994705059732951-.273316466164033-2.364469718968394,.157904536653405-2.823275743392514,1.148899713700303-5.525803913777054,11.93542529161823-10.591616936342689,24.090052612947147-14.99168306080719,36.486761561002822-.451642432781227,1.272453556242908,.511411768111429,2.736040042158493,1.746098553358024,3.075296614407307,1.383077551285169,.380030105456171,2.622011852176001-.469017912063464,3.075296614406398-1.746098553358934,4.256489377166872-11.992197039002349,9.142106685267208-23.746310084340621,14.487641318779424-35.29236388168556l-4.658676712868328-1.261797870182818c.082331243414956,1.007195709899861-.422792415622098,1.796994494970022-1.074398547432793,2.54441009315633l4.178464536847969,2.432365983490854c.226440789198023-1.372193067265471,.950286600402251-2.484010167764609,1.554610723453152-3.714978206464366l-4.569374296750539-.597198839658631c.210368823416502,.529571803651379,.441287604018726,1.081246468856079,.428373679786091,1.65969158608641-.010354346830354,.46379560990772-.254203664344459,.274740600662881,.170074558642227,.17952861505637h1.329198061048373l.213173133714008,.081760805834165,.896878842686419,.896878842686419c.337460390657725,.586093565154442-.07899005715808,.919232708491108,.231157143700329,.114027990362956-.050502469412095,.131114601499576,.331945069441645-.65033415662856,.289876597405964-.571762075958759,.319821626675548-.597336899468246,.687092760146697-1.167685878486736,1.010642279767126-1.76292692440893h-4.317353425736655c.088100496406696,.138242597325188,.182579159782108,.345372782221602,.291218384152671,.460928783570125,.262815745865737,.27954854114796,.036671429847047,.13100884540836,.040128720256689-.260124850678039l.341323287131672-1.261797870181908-.069032233277539,.103151745450305,.896878842686419-.896878842686419-.148759396306559,.064412398154673,1.261797870183727-.341323287130763-.124926436668829-.014543067563864,1.767766952967577,.732233047033333c.341577467783281,.772643236584372,.464796983616907,.97813192963622,.369658547500876,.616466079155543-.039612596483494-.17823814487474-.034994830337382-.132530322975981,.013853298438335,.137123465695367-.044788210649131-.232738651098771,.09131263108975-.833298503410333-.0705335403145,.063153559523016l-4.569374296750539,.597198839658631c.176524600350604,.305647940176641,.342016290267566,.625474897549793,.527466628471302,.926070015334517,.165776063213343,.268705227125793,.202996671931032,.717772111454906-.045595542469528-.183002039072562l3.672495454064119-2.823275743393424c.115079698032787,.066245247954612,.878115759302091,1.139642510009253,.700051602194435,.621843495346184-.034394965927277-.100018329103477-.140215923718642-.234845461865916-.194056775155332-.320627495723784-.053930270501951-.085924500942383-.090421735345444-.197427739664818-.15416974215259-.275694104184367-.144204915452065-.177047017525183,.14400371983902,.543664057729984,.15248508791592,.792888001510619l-4.658676712868328,1.261797870182818c7.874330108204958,13.241520161950575,14.276730015904832,27.270345887884105,21.441042491309418,40.892979117892537,1.498326849801742,2.849004311802673,5.815326435273164,.324735759330906,4.317353425736655-2.523595740365636h0Z"/>
  <path class="cls-1" d="M281.986462115198265,257.743282955267205c2.217643268497341-6.856363004426385-.273180039799627-13.863609242068378-2.698623566284368-20.293272337529743-2.559956239880194-6.786245889389647-5.440006073480617-13.461884646640101-8.437365826206587-20.065168621634257-.558104512540012-1.229522942878248-2.34060277741446-1.528503612365057-3.420474583050236-.896878842687329-1.263948616593552,.739292617581668-1.4570945326941,2.186300645473239-.896878842686419,3.420474583051146,2.752904313510953,6.064740450850877,5.394283185598397,12.190804426048999,7.761599544599449,18.41736332534947,2.153129828095189,5.663201557956199,4.837699823472576,12.005755715760642,2.870348105863741,18.08828383240234-.992557779069102,3.068724592830222,3.833635878647328,4.383086999539955,4.821395167764422,1.329198061048373h0Z"/>
  <path class="cls-1" d="M1.430077503730899,141.086361885871156c12.046234399834248,1.384195683616781,24.660034336628087,1.859430087265537,36.219766596548652,5.73743056380863,1.834519509749043,.615435320912184,2.621495001299081-2.280938807796701,.797518836629024-2.892837100658653-11.797387912585691-3.957727992161381-24.730055509389786-4.432705726319-37.017285433177676-5.844593463149977-1.914633781829252-.2200046693888-1.898889979020169,2.781804402489797,0,3h0Z"/>
  <path class="cls-1" d="M22.692395552062408,51.598324111395414c16.098791826256274,10.366916510862211,31.638136337244759,21.572426535890372,46.491464132806868,33.65949338727205,12.106585863633882,9.851873916055411,23.636026458614651,23.103427738906248,38.789146095909018,28.207913678153091,.733488711356586,.247083300557279,1.048203952136646-.911497443536064,.319007534651973-1.157134840263097-8.710459535160226-2.934208881461927-15.701581927778534-8.640913670687041-22.54474244528501-14.586416826225104-6.565030764022595-5.703857307430553-13.181588217824356-11.333845060952626-19.986880641465177-16.751316393745583-13.630560451803831-10.850844592809153-27.815359813758732-20.97669574196243-42.462331698930939-30.408703827368299-.651200036782029-.419344289065521-1.253530583804604,.618966472437933-.605662977686734,1.036164822176943h0Z"/>
  <path class="cls-1" d="M81.227226480623358,37.378412214006858c29.383410045683377,30.538512938145686,56.367688363878187,63.287548010995124,80.704175762932209,97.982871834796242,1.100452531573865,1.56886062929425,3.702560881712088,.071378012685273,2.590412055442357-1.514157444218654-24.48166815766308-34.902300835329697-51.613866613608479-67.868612535682587-81.173267474814566-98.590034734137589-1.341170867663095-1.393894167855251-3.460867161995338,.729114068575655-2.121320343560001,2.121320343560001h0Z"/>
  <path class="cls-1" d="M158.808901611168949,52.422186589367811c5.986807155943097,16.568617190503574,13.175749526168147,32.634384502494868,21.546971151959042,48.136164243878738,.367075353495238,.679748014416873,1.403495257051873,.074557394951626,1.036164822176943-.605662977686734-8.321690341011163-15.410057994990893-15.474146488430961-31.37762343270515-21.426001133872887-47.849508800843978-.260438625262395-.720769480491072-1.420466342217878-.409768044123666-1.157134840263097,.319007534651973h0Z"/>
  <path class="cls-1" d="M229.742408633260311,46.782300203145496V1.448966869812466c0-1.930356840289278-3-1.933554151118187-3,0V46.782300203145496c0,1.930356840289278,3,1.933554151118187,3,0h0Z"/>
  <path class="cls-1" d="M270.961583250339572,86.073285714861413c-1.359098781516877-7.433965718873878,7.990532355772302-17.74307209354447,12.26929740639207-23.13454420171638,4.482867781340246-5.648652431668779,9.445469486137881-10.861734735491154,14.769813182692815-15.720589375737291,.571678700674966-.521698798163015-.278824721193814-1.368424343467268-.848528137423273-.848528137423273-6.64245494782881,6.061727958464871-12.695062726650576,12.701482254935399-18.005493115217178,19.96356460516381-3.944701099688245,5.394429855376984-10.656752120254168,12.868931419488945-9.342224176709351,20.059104644365107,.13868257890681,.758562623566831,1.295390819928798,.437221686673183,1.157134840264916-.319007534651973h0Z"/>
  <path class="cls-1" d="M287.811126630073886,142.441480453415352c18.533684981202896-34.672144614530225,42.115909542069858-66.36865364798723,70.009311218185758-94.075289921775948,1.371691955708229-1.362507539874969-.749432323274959-3.484022635225301-2.121320343558182-2.121320343560001-28.063856259326712,27.875949546979427-51.8309646865182,59.797502735543276-70.478402930071752,94.682452821117295-.909896615066828,1.702201534873893,1.67894312034332,3.219300418295461,2.590412055444176,1.514157444218654h0Z"/>
  <path class="cls-1" d="M329.176034536528277,151.959334993513039c4.866921860870207-9.270689569915703,12.082079159523346-16.747233947722634,21.180468057527833-21.931661930478185,.670905329283414-.382294096449186,.067004847456701-1.419463220922808-.605662977686734-1.036164822176943-9.261992384212135,5.277652233935441-16.655868184941937,12.923506011484278-21.610969902018041,22.362163774968394-.358639689282427,.683149909085842,.676678592873941,1.290425406959912,1.036164822176943,.605662977686734h0Z"/>
  <path class="cls-1" d="M361.688614632209465,176.701287655802844c5.888988154796607-6.441754198826857,18.430158521880003-5.893027078918749,26.410855746506058-6.83604651272708,9.206506013824765-1.087864110635564,18.430247281061384-2.010029955527898,27.667157946623774-2.797450280459998,1.909391001159747-.162770144368551,1.92666900408949-3.164243044905561,0-3-11.147972854962063,.950332933338359-22.276821047265912,2.102091281470166-33.378699982704347,3.492561468152417-7.695248841238936,.963802087472686-17.205875123623628,.877830354925209-22.820634053983667,7.01961498147466-1.300540023868962,1.422614367575989,.815249600789684,3.549984567369393,2.121320343558182,2.121320343560001h0Z"/>
  <path class="cls-1" d="M326.258154755515534,227.021677304613149c10.316156051998405,8.83395679498426,22.238335941960031,15.192551118130723,35.327166686563942,18.815635284460768,.745381024496965,.206326924110726,1.063467688965829-.951062819760409,.319007534650154-1.157134840263097-12.89758456664822-3.570145824263818-24.633503804814609-9.803244604531756-34.797646083790823-18.507028581620943-.583651377812203-.499793821355524-1.436288434140806,.345215756258767-.848528137423273,.848528137423273h0Z"/>
  <path class="cls-1" d="M336.500152566478391,341.510757178791209c3.186749485477776,15.360981233542589,6.373498970953733,30.721962467086087,9.560248456431509,46.082943700629585,.391921472450122,1.889165876000334,3.28434609569922,1.08965878840354,2.892837100658653-.797518836629024-3.186749485477776-15.360981233543498-6.373498970953733-30.721962467086996-9.560248456431509-46.082943700629585-.391921472450122-1.889165876001243-3.28434609569922-1.08965878840354-2.892837100658653,.797518836629024h0Z"/>
  <path class="cls-1" d="M351.636642643720734,272.846828723761973c.916778990953389,2.758920776706873,5.055942096867511,6.190965883328317,6.878960996875321,8.446425929900215,2.371439142265444,2.933971906832994,4.722555406910033,5.884381731921167,7.052272455919592,8.851594062050935,4.968778858894439,6.328417393895506,9.83697316845246,12.735585581598571,14.608933742374575,19.213668316112489,8.950716228328019,12.150871609695059,17.535911683888116,24.564384392171632,25.794219481569598,37.195486976424036,1.052407344912353,1.609659685696897,3.651058447168907,.108103884338561,2.590412055444176-1.514157444218654-11.01150887969925-16.842130576182171-22.619056945532066-33.286565038551089-34.857527772293906-49.260341351435272-5.804770646125689-7.576445551189863-11.632312292189454-15.198229049027759-17.838218848541146-22.452457685354602-1.398656387867959-1.634922010042828-3.319083603922991-4.427373469081431-5.851517543331283-3.093062003711566-1.414180163626952,.745115904924205-1.748668628246378,1.970992862591629-1.27037166867558,3.410362036861443,.605865950974476,1.823270577247058,3.504079703461684,1.041932037705919,2.892837100658653-.797518836629024h0Z"/>
  <path class="cls-1" d="M244.271427387059703,297.471663485540375c2.85560301883379,32.221305613274126,1.661355469417686,64.639428541478082-3.633814129054372,96.553124322758777-.313353817586176,1.888566214998718,2.577059992207069,2.700690092320656,2.892837100658653,.797518836629024,5.340176117471856-32.184947594620098,6.621287732376004-64.85054743809178,3.740977028395719-97.350643159387801-.169095870764068-1.907999709313117-3.170675730474613-1.925826116621465-3,0h0Z"/>
  <path class="cls-1" d="M283.363738355800706,319.467375638982958c-1.738775637008075,11.46361288870412-4.233511426144105,22.756249485346416-7.48590563831749,33.885540238024078-.217050284427387,.742719229518116,.940613537724857,1.059916653566688,1.157134840264916,.319007534650154,3.252377040533247-11.129231993453686,5.74712082105907-22.421866824658537,7.48590563831749-33.885540238022259,.114587783862589-.755468369828122-1.041523824453179-1.081221993327745-1.157134840264916-.319007534651973h0Z"/>
  <path class="cls-1" d="M199.124033650307865,327.01217851088677c-10.417614629585842,11.219850484735616-18.881196077873028,23.927932926803805-25.198853875126588,37.877927315433226-.316140769629783,.698069142692475,.717708975983442,1.308844031487752,1.036164822176943,.605662977686734,6.274732781598686-13.855211836813396,14.659730492863673-26.486431958631329,25.011217190372918-37.635062155696687,.524943905822511-.565368594022402-.321699496815199-1.415926605199274-.848528137423273-.848528137423273h0Z"/>
  <path class="cls-1" d="M141.832584656638574,350.595179443675079c-5.815511446217897,6.075686338224841-10.911573441979272,12.71734332572305-15.272409483463889,19.908799033408286-1.003675243740872,1.655161072692863,1.589592519848338,3.164609167959497,2.590412055442357,1.514157444220473,4.229935347040737-6.975587342711151,9.162711058915193-13.408679433634461,14.803317771581533-19.301636134070577,1.335128701803114-1.394859813850417-.783129743952486-3.519379038682928-2.121320343560001-2.121320343558182h0Z"/>
  <path class="cls-1" d="M149.850789533865282,223.272492898951896c-13.465760346880415-6.76268983465161-28.346592360813702-3.881128059300863-41.818012292487765,1.34365019485449-16.152199516278415,6.264496335015792-31.950386986007288,13.586302226842236-47.867373506949662,20.423274367783051-1.768787484800669,.759763837263563-.24242364597103,3.344932765824524,1.514157444218654,2.590412055442357,14.54993676700451-6.249770469904433,29.031810952717933-12.700340042095377,43.675737450727866-18.726454193659265,13.593479744583419-5.5938453849094,29.028066072193724-10.047992936940318,42.981333460272253-3.040470368978276,1.720740319668039,.864179427535419,3.241591066806905-1.722871159229726,1.514157444218654-2.590412055442357h0Z"/>
  <path class="cls-1" d="M147.081856655785487,246.95121034811109c-8.401831119274902,12.977989478690688-16.399058553859504,26.203936310151221-23.988753680421723,39.67299772419301-.379596970597049,.673652211886292,.656625525615709,1.279212838277999,1.036164822176943,.605662977686734,7.589693373394766-13.469058302779558,15.586920620380624-26.695005247674089,23.988753680421723-39.67299772419301,.420919293750558-.650178049060742-.617485344308989-1.252381268210229-1.036164822176943-.605662977686734h0Z"/>
  <path class="cls-1" d="M109.135404827545244,193.688202867208929c-14.517221077103386-1.200869852274991-29.034442154207682-2.401739704549072-43.551663231311068-3.602609556824973-.76962842757257-.063663945820736-.765422066814608,1.13668400588449,0,1.200000000000728,14.517221077103386,1.200869852274991,29.034442154207682,2.401739704549072,43.551663231311068,3.602609556824973,.76962842757257,.063663945820736,.765422066814608-1.13668400588449,0-1.200000000000728h0Z"/>
</svg>